<svg id="Accessory" xmlns="http://www.w3.org/2000/svg" width="24" height="24" viewBox="0 0 24 24">
  <rect id="Shape" width="24" height="24" fill="#021d3d" opacity="0"/>
  <path id="ABX_Accessories_edited" data-name="ABX Accessories_edited" d="M21.2,11.75a.86.86,0,0,0,.8-.8.666.666,0,0,0-.25-.55.765.765,0,0,0-.55-.25H18.45V8.5a2.739,2.739,0,0,0-.85-2.05q-.024-.026-.05-.05a2.824,2.824,0,0,0-2.1-.85h-7a2.889,2.889,0,0,0-2.1.85H6.3a2.865,2.865,0,0,0-.85,2.1v2.75H2.8a.707.707,0,0,0-.8.8.765.765,0,0,0,.25.55.666.666,0,0,0,.55.25H5.45V15.5a2.733,2.733,0,0,0,.85,2.1l.05.05a2.89,2.89,0,0,0,2.1.85h7a2.772,2.772,0,0,0,2.1-.85q.026-.024.05-.05a2.824,2.824,0,0,0,.85-2.1v-.65H21.2a.86.86,0,0,0,.8-.8.666.666,0,0,0-.25-.55.765.765,0,0,0-.55-.25H18.45v-1.5H21.2m-5.75-4.6a1.2,1.2,0,0,1,.95.4l.05.05a1.164,1.164,0,0,1,.4.9v7a1.2,1.2,0,0,1-.4.95l-.05.05a1.251,1.251,0,0,1-.95.4h-7a1.386,1.386,0,0,1-1-.45h0a1.251,1.251,0,0,1-.4-.95v-7a1.164,1.164,0,0,1,.4-.9V7.55h0a1.474,1.474,0,0,1,1-.4h7M11.5,10.1v2.15a.53.53,0,0,0,.6.6.707.707,0,0,0,.6-.6V10.1a.576.576,0,0,0-.2-.4.475.475,0,0,0-.4-.2.53.53,0,0,0-.6.6m-1.3,2.15V10.1a.576.576,0,0,0-.2-.4.475.475,0,0,0-.4-.2.53.53,0,0,0-.6.6v2.15a.53.53,0,0,0,.6.6.475.475,0,0,0,.4-.2A.475.475,0,0,0,10.2,12.25Z" transform="translate(0 -0.05)" fill="#021d3d"/>
</svg>
