<svg id="alert_bell" xmlns="http://www.w3.org/2000/svg" width="24" height="24" viewBox="0 0 24 24">
  <g id="Bell" transform="translate(-1727)" opacity="0.996">
    <g id="Bell-2" data-name="Bell" transform="translate(1727)">
      <rect id="Shape" width="24" height="24" fill="currentColor" opacity="0"/>
      <g id="bell_edited" transform="translate(1.803 1.85)">
        <path id="Path_2225" data-name="Path 2225" d="M10.658,16.15a1.436,1.436,0,0,0,1.047-.419,1.386,1.386,0,0,0,.426-1.029H9.223a1.443,1.443,0,0,0,1.434,1.448M10.115,4.721v.5A3.366,3.366,0,0,0,8.06,6.283q-.02.018-.039.038A3.239,3.239,0,0,0,6.936,8.8a.191.191,0,0,0,0,.038l.039.648a5.468,5.468,0,0,1-.659,3.39.522.522,0,0,0-.116.381.553.553,0,0,0,.194.381.561.561,0,0,0,.388.152h7.832a.595.595,0,0,0,.582-.533.527.527,0,0,0-.116-.381,5.19,5.19,0,0,1-.659-3.352l.039-.648a.646.646,0,0,0,0-.076,3.239,3.239,0,0,0-1.086-2.476q-.019-.02-.039-.038a3.367,3.367,0,0,0-2.055-1.067v-.5a.575.575,0,0,0-.194-.419A.528.528,0,0,0,10.7,4.15a.673.673,0,0,0-.426.152.647.647,0,0,0-.155.419m2.4,2.362.039.038a2.15,2.15,0,0,1,.737,1.6q0,.038,0,.076l-.039.571v.038a7.976,7.976,0,0,0,.349,3.238H7.75a8.036,8.036,0,0,0,.388-3.238L8.1,8.721a2.13,2.13,0,0,1,.737-1.6l.039-.038a2.175,2.175,0,0,1,1.783-.724.723.723,0,0,0,.078,0A2.175,2.175,0,0,1,12.519,7.083Z" fill="currentColor"/>
        <path id="Path_27372" data-name="Path 27372" d="M.178,1.923,1.976.588l2.66.218L5.7,2.707l.438,5.16H-.215Z" transform="translate(7.793 5.49)" fill="currentColor"/>
      </g>
    </g>
  </g>
</svg>
