<svg xmlns="http://www.w3.org/2000/svg" width="24" height="24" viewBox="0 0 24 24">
  <g id="Analysis_Cancelled" transform="translate(-500 -394.002)">
    <rect id="Shape" width="24" height="24" transform="translate(500 394.002)" opacity="0"/>
    <g id="Analysis_Cancelled-2"  transform="translate(498.559 388.898)">
      <path id="Close" d="M10.317,9.5l2.506-2.5A.585.585,0,0,0,12,6.167l-2.5,2.506-2.5-2.506a.585.585,0,0,0-.828.828L8.673,9.5,6.167,12a.585.585,0,1,0,.828.828l2.5-2.506L12,12.824A.585.585,0,1,0,12.823,12Z" transform="translate(9.607 2.107)"/>
      <g id="app_invastigate" data-name="app invastigate" transform="translate(4.442 13.499)">
        <g id="np_incognito_1560934_000000">
          <path id="Path_7139" data-name="Path 7139" d="M14.611,10.882H13.322l-1.59-4a1.472,1.472,0,0,0-1.946-.822,1.3,1.3,0,0,0-.329.192l-.877.658L7.7,6.248a1.489,1.489,0,0,0-2.084.3,2.033,2.033,0,0,0-.192.329l-1.59,4H2.548a.548.548,0,0,0,0,1.1H14.611a.548.548,0,1,0,0-1.1ZM6.441,7.29a.406.406,0,0,1,.521-.22c.027,0,.055.027.082.055l1.206.9a.578.578,0,0,0,.658,0l1.206-.9a.372.372,0,0,1,.548.082c.027.027.027.055.055.082l1.425,3.591H5.015Z" transform="translate(-2 -5.939)"/>
          <path id="Path_7140" data-name="Path 7140" d="M18.7,58a2.507,2.507,0,0,0-1.974.96,1.632,1.632,0,0,0-2.166,0,2.439,2.439,0,0,0-3.427-.411,2.46,2.46,0,0,0,3.043,3.865,2.5,2.5,0,0,0,.932-1.919v-.3a.548.548,0,0,1,1.1,0v.3A2.481,2.481,0,1,0,18.7,58Zm-6.059,3.838a1.371,1.371,0,1,1,1.371-1.371A1.357,1.357,0,0,1,12.644,61.838Zm6.031,0a1.371,1.371,0,1,1,1.371-1.371A1.357,1.357,0,0,1,18.676,61.838Z" transform="translate(-9.08 -50.864)" />
        </g>
      </g>
    </g>
  </g>
</svg>
