<svg xmlns="http://www.w3.org/2000/svg" width="24" height="24" viewBox="0 0 24 24">
  <g id="Analysis_Stopped" transform="translate(-501 -394.188)">
    <rect id="Shape" width="24" height="24" transform="translate(501 394.188)" opacity="0"/>
    <g id="Analysis_Stopped-2" transform="translate(500.502 386.002)">
      <g id="Group_26393" transform="translate(0.056 0.893)">
        <g id="app_invastigate" transform="translate(2.442 15.499)">
          <g id="np_incognito_1560934_000000">
            <path id="Path_7139" d="M15.228,11.123H13.876l-1.668-4.2a1.545,1.545,0,0,0-2.042-.863,1.366,1.366,0,0,0-.345.2l-.92.69-.92-.69A1.562,1.562,0,0,0,5.8,6.58a2.132,2.132,0,0,0-.2.345l-1.668,4.2H2.575a.575.575,0,0,0,0,1.15H15.228a.575.575,0,1,0,0-1.15ZM6.658,7.357a.426.426,0,0,1,.546-.23c.029,0,.057.029.086.057l1.265.949a.606.606,0,0,0,.69,0l1.265-.949a.391.391,0,0,1,.575.086c.029.029.029.057.057.086l1.5,3.767H5.163Z" transform="translate(-2 -5.939)"/>
            <path id="Path_7140" d="M19.119,58a2.63,2.63,0,0,0-2.07,1.006,1.711,1.711,0,0,0-2.272,0,2.559,2.559,0,0,0-3.595-.431,2.58,2.58,0,0,0,3.192,4.054,2.622,2.622,0,0,0,.978-2.013V60.3a.575.575,0,0,1,1.15,0v.316A2.6,2.6,0,1,0,19.119,58Zm-6.355,4.026A1.438,1.438,0,1,1,14.2,60.588,1.424,1.424,0,0,1,12.764,62.026Zm6.326,0a1.438,1.438,0,1,1,1.438-1.438A1.424,1.424,0,0,1,19.09,62.026Z" transform="translate(-9.025 -50.515)"/>
          </g>
        </g>
        <path id="Union_99" d="M20201,16438a4,4,0,1,1,4,4A4,4,0,0,1,20201,16438Zm.8,0a3.2,3.2,0,1,0,3.2-3.2A3.2,3.2,0,0,0,20201.8,16438Zm1.869,1.334v-2.668h2.666v2.668Z" transform="translate(-20187.559 -16423.711)"/>
      </g>
    </g>
  </g>
</svg>
