<svg id="Analysis_Queued"  xmlns="http://www.w3.org/2000/svg" width="24" height="24" viewBox="0 0 24 24">
  <rect id="Shape" width="24" height="24" opacity="0"/>
  <g id="Analysis_Queued-2"  transform="translate(3 6)">
    <path id="End_of_tour"  d="M12.429,12.252h-.562v-.938a2.813,2.813,0,0,0-.169-.944c-.006-.017-.013-.032-.02-.048a2.8,2.8,0,0,0-.374-.7l-.787-1.05a1.7,1.7,0,0,1-.338-1.013V7A1.7,1.7,0,0,1,10.673,5.8l.37-.37a2.782,2.782,0,0,0,.785-1.6c0-.008,0-.014,0-.022l0-.008a2.823,2.823,0,0,0,.035-.362V2.127h.562a.562.562,0,0,0,0-1.125H4.554a.562.562,0,1,0,0,1.125h.562V3.445a2.823,2.823,0,0,0,.035.362l0,.008c0,.008,0,.014,0,.022a2.782,2.782,0,0,0,.785,1.6l.37.37A1.7,1.7,0,0,1,6.8,7v.568a1.7,1.7,0,0,1-.337,1.013l-.788,1.05a2.8,2.8,0,0,0-.374.7c-.007.016-.014.031-.02.047a2.814,2.814,0,0,0-.169.944v.938H4.554a.562.562,0,1,0,0,1.125h7.875a.562.562,0,0,0,0-1.125Zm-6.187-9V2.127h4.5V3.252Zm.494,1.386a1.671,1.671,0,0,1-.212-.261H10.46a1.671,1.671,0,0,1-.212.261l-.37.37a2.79,2.79,0,0,0-.8,1.619H7.905a2.79,2.79,0,0,0-.8-1.619Zm.631,4.614a2.833,2.833,0,0,0,.556-1.5H9.06a2.831,2.831,0,0,0,.556,1.5l.563.75H6.8Zm3.375,3h-4.5v-.938a1.662,1.662,0,0,1,.015-.187h4.469a1.662,1.662,0,0,1,.015.187Z" transform="translate(-3.992 -1.002)"/>
    <g id="app_invastigate"  transform="translate(8 2.001)">
      <g id="np_incognito_1560934_000000" transform="translate(-2 -5.939)">
        <path id="Path_7139"  d="M11.4,9.624h-.961L9.256,6.64A1.1,1.1,0,0,0,7.8,6.027a.971.971,0,0,0-.246.143l-.654.491L6.251,6.17A1.11,1.11,0,0,0,4.7,6.394a1.515,1.515,0,0,0-.143.245L3.369,9.624H2.409a.409.409,0,0,0,0,.818H11.4a.409.409,0,1,0,0-.818ZM5.311,6.947A.3.3,0,0,1,5.7,6.783c.02,0,.041.02.061.041l.9.675a.431.431,0,0,0,.491,0l.9-.675a.278.278,0,0,1,.409.061c.02.02.02.041.041.061L9.563,9.624H4.248Z" transform="translate(0 0)"/>
        <path id="Path_7140"  d="M16.541,58a1.869,1.869,0,0,0-1.471.715,1.216,1.216,0,0,0-1.615,0,1.819,1.819,0,0,0-2.555-.307,1.834,1.834,0,1,0,2.269,2.882,1.863,1.863,0,0,0,.7-1.431v-.225a.409.409,0,0,1,.818,0v.225A1.85,1.85,0,1,0,16.541,58Zm-4.517,2.862a1.022,1.022,0,1,1,1.022-1.022A1.012,1.012,0,0,1,12.024,60.862Zm4.5,0a1.022,1.022,0,1,1,1.022-1.022A1.012,1.012,0,0,1,16.521,60.862Z" transform="translate(-7.367 -46.741)"/>
      </g>
    </g>
  </g>
</svg>
