<svg id="app_shield" data-name="app shield" xmlns="http://www.w3.org/2000/svg" width="24" height="24" viewBox="0 0 24 24">
  <rect id="Shape" width="24" height="24"   opacity="0"/>
  <path id="Security_Center" data-name="Security Center" d="M5.845,15.6,2.97,13.557A7.1,7.1,0,0,1,0,7.781V1.913A.8.8,0,0,1,.293,1.3a.784.784,0,0,1,.66-.157,6.3,6.3,0,0,0,4.9-1,.792.792,0,0,1,.9,0,6.3,6.3,0,0,0,4.9,1,.789.789,0,0,1,.954.772V7.781a7.1,7.1,0,0,1-2.97,5.776L6.761,15.6a.8.8,0,0,1-.457.146A.806.806,0,0,1,5.845,15.6ZM1.576,7.781a5.518,5.518,0,0,0,2.308,4.491L6.3,14,8.72,12.272A5.518,5.518,0,0,0,11.03,7.781V2.818A7.874,7.874,0,0,1,6.3,1.723,7.875,7.875,0,0,1,1.576,2.818Zm4.111,2.278-1.5-1.314a.743.743,0,0,1-.251-.559V6a.753.753,0,0,1,.751-.751h3A.752.752,0,0,1,8.434,6V8.183a.74.74,0,0,1-.248.562l-1.5,1.314a.746.746,0,0,1-.5.191A.738.738,0,0,1,5.688,10.059Z" transform="translate(6.001 4.5)"  />
</svg>
