<svg id="app_locations" data-name="app locations" xmlns="http://www.w3.org/2000/svg" width="24" height="24" viewBox="0 0 24 24">
  <rect id="Shape" width="24" height="24" fill="#021d3d" opacity="0"/>
  <g id="ABX_Location_edited" data-name="ABX Location_edited" transform="translate(5.8 4.5)">
    <path id="Path_7119" data-name="Path 7119" d="M18.2,10.75a5.9,5.9,0,0,0-1.85-4.4A5.926,5.926,0,0,0,12,4.55a5.985,5.985,0,0,0-4.4,1.8,5.9,5.9,0,0,0-1.85,4.4A5.847,5.847,0,0,0,7.6,15.1L12,19.55l4.35-4.45a5.847,5.847,0,0,0,1.85-4.35m-2.95-3.3a4.489,4.489,0,0,1,1.35,3.3A4.43,4.43,0,0,1,15.25,14L12,17.25,8.7,14a4.517,4.517,0,0,1-1.3-3.25,4.578,4.578,0,0,1,1.3-3.3A4.69,4.69,0,0,1,12,6.15,4.63,4.63,0,0,1,15.25,7.45Z" transform="translate(-5.75 -4.55)" fill="#021d3d"/>
    <path id="Path_7120" data-name="Path 7120" d="M12,8.7a1.975,1.975,0,0,0-1.45.6A1.9,1.9,0,0,0,10,10.7a2.07,2.07,0,0,0,.55,1.45A2.07,2.07,0,0,0,12,12.7a1.9,1.9,0,0,0,1.4-.55A1.975,1.975,0,0,0,14,10.7a1.919,1.919,0,0,0-.6-1.4A1.816,1.816,0,0,0,12,8.7Z" transform="translate(-5.75 -4.55)" fill="#021d3d"/>
  </g>
</svg>
