<svg id="app_access_control" data-name="app access control" xmlns="http://www.w3.org/2000/svg" width="24" height="24" viewBox="0 0 24 24">
  <rect id="Shape" width="24" height="24" fill="#021d3d" opacity="0"/>
  <path id="np_open-door_214874_000000" d="M24.066,23.454a.669.669,0,1,0-.669-.669A.669.669,0,0,0,24.066,23.454Zm-4.685-6.024H18.052A1.353,1.353,0,0,0,16.7,18.774V26.8a1.341,1.341,0,0,0,1.349,1.343h1.328a.669.669,0,0,0,0-1.338H18.052c-.011,0-.011,0-.011,0V18.774s.009,0,.011,0h1.328a.669.669,0,0,0,0-1.339Zm2.677-.475a.578.578,0,0,1,.658-.583l6.717.817a.764.764,0,0,1,.658.737v9.717a.775.775,0,0,1-.658.739l-6.717.84a.57.57,0,0,1-.658-.581Zm-1.339-.86a1.16,1.16,0,0,1,1.334-1.175l8.04,1a1.567,1.567,0,0,1,1.335,1.5V28.146a1.564,1.564,0,0,1-1.334,1.5l-8.04,1a1.16,1.16,0,0,1-1.335-1.175Z" transform="translate(-12.203 -10.41)" fill="#021d3d" fill-rule="evenodd"/>
</svg>
