<svg id="app_security_alerts" data-name="app security alerts" xmlns="http://www.w3.org/2000/svg" width="24" height="24" viewBox="0 0 24 24">
  <rect id="Shape" width="24" height="24" rx="8" opacity="0"/>
  <g id="Shield">
    <path id="Shield-2" data-name="Shield" d="M14.99,3.238a.67.67,0,0,0-.591-.15,5.343,5.343,0,0,1-4.373-.953.667.667,0,0,0-.8,0,5.343,5.343,0,0,1-4.373.953.67.67,0,0,0-.591.15A.771.771,0,0,0,4,3.823V9.413a6.9,6.9,0,0,0,2.651,5.5l2.566,1.951a.667.667,0,0,0,.816,0L12.6,14.912a6.9,6.9,0,0,0,2.651-5.5V3.823A.771.771,0,0,0,14.99,3.238ZM13.844,9.413a5.368,5.368,0,0,1-2.06,4.276L9.625,15.332,7.466,13.689a5.368,5.368,0,0,1-2.06-4.276V4.686A6.679,6.679,0,0,0,9.625,3.643a6.679,6.679,0,0,0,4.219,1.043Z" transform="translate(2.375 2.498)"/>
    <path id="Error" d="M7.4,6.35A.65.65,0,0,0,6.75,7V9.6a.65.65,0,1,0,1.3,0V7A.65.65,0,0,0,7.4,6.35ZM7.647,3.8a.672.672,0,0,0-.708.136.747.747,0,0,0-.136.214A.546.546,0,0,0,6.75,4.4a.65.65,0,0,0,.188.461A.747.747,0,0,0,7.153,5a.65.65,0,0,0,.9-.6.682.682,0,0,0-.188-.461A.65.65,0,0,0,7.647,3.8Z" transform="translate(19.35 19.049) rotate(180)"/>
  </g>
</svg>
