<svg id="app_radar_alt" data-name="app radar alt" xmlns="http://www.w3.org/2000/svg" width="24" height="24" viewBox="0 0 24 24">
  <rect id="Shape" width="24" height="24" fill="none" opacity="0.12"/>
  <g id="Path_7129" data-name="Path 7129" transform="translate(-30.458 1.657)" fill="none">
    <path d="M41.6,10.82a1.365,1.365,0,1,0,2.709-.237l5.525-.974a.71.71,0,0,0,.564-.887A7.71,7.71,0,0,0,45.064,3.4a.709.709,0,0,0-.887.556L43.2,9.476a1.358,1.358,0,0,0-1.6,1.344Z" stroke="none"/>
    <path d="M 45.43175888061523 8.354854583740234 L 47.89799499511719 7.920208930969238 C 47.65323638916016 7.504826545715332 47.35615539550781 7.120326042175293 47.0134391784668 6.778104305267334 C 46.66949844360352 6.434662818908691 46.28304290771484 6.137267112731934 45.86568450927734 5.892709732055664 L 45.43175888061523 8.354854583740234 M 42.9666633605957 12.18597030639648 C 42.62663269042969 12.18595504760742 42.29677963256836 12.05888366699219 42.04387664794922 11.82728481292725 C 41.76167678833008 11.5688648223877 41.60086822509766 11.20342445373535 41.60149765014648 10.82048416137695 L 41.60141754150391 10.82044410705566 C 41.59890747070312 10.41621398925781 41.77661895751953 10.03202438354492 42.08635711669922 9.772344589233398 C 42.33322906494141 9.565356254577637 42.64331436157227 9.45457935333252 42.96052169799805 9.45457935333252 C 43.04128646850586 9.45457935333252 43.12251663208008 9.461760520935059 43.20327758789062 9.476364135742188 L 44.17690658569336 3.95186448097229 C 44.21255874633789 3.756024360656738 44.3295783996582 3.583944320678711 44.49852752685547 3.47819447517395 C 44.61219787597656 3.407201290130615 44.74296569824219 3.370457887649536 44.87489318847656 3.370457887649536 C 44.93830871582031 3.370457887649536 45.00201797485352 3.37895655632019 45.06417846679688 3.396224498748779 C 47.64845657348633 4.122024536132812 49.66830825805664 6.139414310455322 50.3985481262207 8.722414016723633 C 50.45172882080078 8.915134429931641 50.42043685913086 9.121634483337402 50.31344985961914 9.290584564208984 C 50.20581817626953 9.46015453338623 50.03186798095703 9.57591438293457 49.83475875854492 9.60970401763916 L 44.31025695800781 10.58333396911621 C 44.3765869140625 10.96065425872803 44.28208923339844 11.34797477722168 44.04870986938477 11.65145397186279 C 43.81593704223633 11.95556449890137 43.46614837646484 12.14702415466309 43.08508682250977 12.18082427978516 C 43.04552459716797 12.1842679977417 43.00605392456055 12.1859712600708 42.9666633605957 12.18597030639648 Z" stroke="none" fill="#172336"/>
  </g>
  <path id="Path_7130" data-name="Path 7130" d="M10.76,18.2a7.507,7.507,0,0,0,7.479-6.744.694.694,0,0,0-.178-.545.706.706,0,0,0-1.228.419,6.113,6.113,0,1,1-6.716-6.718.706.706,0,0,0-.059-1.41H9.983a7.521,7.521,0,0,0,.778,15Z" transform="translate(1.748 1.801)" fill="#021d3d"/>
  <path id="Path_7131" data-name="Path 7131" d="M25.407,24.43a.694.694,0,0,0,.449-.538.707.707,0,0,0-.16-.58.7.7,0,0,0-.533-.253.689.689,0,0,0-.228.039,4.514,4.514,0,1,0,5.752,5.747.681.681,0,0,0-.089-.624.714.714,0,0,0-.578-.3.838.838,0,0,0-.125.011.694.694,0,0,0-.538.449,3.1,3.1,0,1,1-3.949-3.948Z" transform="translate(-13.921 -14.877)" fill="#021d3d"/>
</svg>
