<svg id="app_shield_user_list" data-name="app shield user list" xmlns="http://www.w3.org/2000/svg" width="24" height="24" viewBox="0 0 24 24">
  <path id="Shape" d="M0,0H24V24H0Z"  opacity="0.12"/>
  <path id="Union_72" data-name="Union 72" d="M13376.15,21521l-2.484-1.895a6.687,6.687,0,0,1-2.571-5.332v-5.416a.746.746,0,0,1,.254-.568.63.63,0,0,1,.572-.145,5.192,5.192,0,0,0,4.24-.924.645.645,0,0,1,.777,0,5.184,5.184,0,0,0,4.24.924.638.638,0,0,1,.572.145.758.758,0,0,1,.249.568v5.416a6.682,6.682,0,0,1-2.566,5.332l-2.489,1.895a.652.652,0,0,1-.794,0Zm-3.694-7.227a5.21,5.21,0,0,0,2,4.148l2.1,1.594,2.09-1.594a5.208,5.208,0,0,0,2-4.148v-4.58a8.793,8.793,0,0,0-8.183,0Zm-5.7,4.2a.751.751,0,0,1,0-1.5h2.841a.751.751,0,1,1,0,1.5Zm7.043-2.49a.581.581,0,0,1-.059-.611,3.01,3.01,0,0,1,1.2-1.4,1.922,1.922,0,0,1-.427-1.209,1.988,1.988,0,1,1,3.976,0,1.957,1.957,0,0,1-.427,1.209,3.033,3.033,0,0,1,1.21,1.4.6.6,0,0,1-.319.789.564.564,0,0,1-.232.049.6.6,0,0,1-.556-.367,1.8,1.8,0,0,0-3.322,0,.6.6,0,0,1-.48.383.621.621,0,0,1-.085.006A.6.6,0,0,1,13373.795,21515.486Zm2.155-3.781a.784.784,0,0,0,.551,1.334.782.782,0,0,0,.3-1.5.764.764,0,0,0-.3-.061A.794.794,0,0,0,13375.95,21511.705Zm-9.2,3.268a.751.751,0,0,1,0-1.5h2.091a.751.751,0,0,1,0,1.5Zm0-3.035a.751.751,0,0,1,0-1.5h2.091a.751.751,0,0,1,0,1.5Z" transform="translate(-13362.001 -21501.59)"/>
</svg>
