<svg id="app_devices" data-name="app devices" xmlns="http://www.w3.org/2000/svg" width="24" height="24" viewBox="0 0 24 24">
  <rect id="Shape" width="24" height="24"  opacity="0"/>
  <g id="shape-2" data-name="shape" transform="translate(3.75 4.749)">
    <path id="Path_7146" data-name="Path 7146" d="M11.157,5.5a.251.251,0,0,1,.181.045l.045.091a.229.229,0,0,1,.091.181V9.8a.677.677,0,0,0,.181.5.746.746,0,0,0,.544.227.78.78,0,0,0,.725-.725V5.817a1.624,1.624,0,0,0-.5-1.223q-.018,0-.045-.045h-.045a1.515,1.515,0,0,0-1.178-.5H4.813a1.884,1.884,0,0,0-1.314.5h.045A1.64,1.64,0,0,0,3,5.817V14.88a1.612,1.612,0,0,0,.544,1.314L3.5,16.149a1.8,1.8,0,0,0,1.314.544H5.4a.609.609,0,0,0,.5-.227.609.609,0,0,0,.227-.5.746.746,0,0,0-.227-.544.677.677,0,0,0-.5-.181H4.813a.38.38,0,0,1-.272-.136H4.5a.523.523,0,0,1-.045-.227V5.817A.251.251,0,0,1,4.5,5.636l.045-.045A.481.481,0,0,1,4.813,5.5Z" transform="translate(-3 -4.05)"  />
    <path id="Path_7147" data-name="Path 7147" d="M19.918,19.171a.641.641,0,0,0,.725-.725v-4.4a.641.641,0,0,0-.725-.725l-2.9,1.223v-.136a1.626,1.626,0,0,0-.5-1.269A1.8,1.8,0,0,0,15.25,12.6H9.813a1.963,1.963,0,0,0-1.314.544A1.868,1.868,0,0,0,8,14.413v3.67A1.779,1.779,0,0,0,9.813,19.85H15.25a1.582,1.582,0,0,0,1.269-.544,1.491,1.491,0,0,0,.5-1.223v-.136l2.9,1.223M9.359,14a.87.87,0,0,1,.453-.181H15.25a.651.651,0,0,1,.408.181.5.5,0,0,1,.136.408v3.67a.386.386,0,0,1-.136.363.444.444,0,0,1-.408.181H9.813a.559.559,0,0,1-.453-.181.62.62,0,0,1-.136-.363v-3.67A.882.882,0,0,1,9.359,14m10.014.952v2.628l-1.994-.861v-.952Z" transform="translate(-3.469 -4.851)"  />
  </g>
</svg>
