<svg id="app_invastigate" data-name="app invastigate" xmlns="http://www.w3.org/2000/svg" width="24" height="24" viewBox="0 0 24 24">
  <rect id="Shape" width="24" height="24"  opacity="0"/>
  <g id="np_incognito_1560934_000000" transform="translate(3.75 4.501)">
    <path id="Path_7139" data-name="Path 7139" d="M17.671,12.081h-1.6L14.094,7.107a1.83,1.83,0,0,0-2.419-1.022,1.619,1.619,0,0,0-.409.238l-1.09.818-1.09-.818A1.851,1.851,0,0,0,6.5,6.7a2.526,2.526,0,0,0-.238.409L4.282,12.081h-1.6a.681.681,0,1,0,0,1.363h14.99a.681.681,0,1,0,0-1.363ZM7.518,7.618a.5.5,0,0,1,.647-.273c.034,0,.068.034.1.068l1.5,1.124a.718.718,0,0,0,.818,0l1.5-1.124a.463.463,0,0,1,.681.1c.034.034.034.068.068.1L14.6,12.081H5.747Z" transform="translate(-2 -5.939)"  />
    <path id="Path_7140" data-name="Path 7140" d="M20.765,58a3.115,3.115,0,0,0-2.452,1.192,2.027,2.027,0,0,0-2.691,0,3.031,3.031,0,0,0-4.258-.511,3.057,3.057,0,0,0,3.781,4.8A3.106,3.106,0,0,0,16.3,61.1v-.375a.681.681,0,0,1,1.363,0V61.1a3.083,3.083,0,1,0,3.1-3.1Zm-7.529,4.769a1.7,1.7,0,1,1,1.7-1.7A1.686,1.686,0,0,1,13.236,62.769Zm7.495,0a1.7,1.7,0,1,1,1.7-1.7A1.686,1.686,0,0,1,20.731,62.769Z" transform="translate(-8.807 -49.132)"  />
  </g>
</svg>
