<svg id="app_settings" data-name="app settings" xmlns="http://www.w3.org/2000/svg" width="24" height="24" viewBox="0 0 24 24">
  <rect id="Shape" width="24" height="24" fill="#021d3d" opacity="0"/>
  <g id="cog_edited" transform="translate(4.85 4.45)">
    <path id="Path_2316" data-name="Path 2316" d="M14.476,6.008l-.047-.377A1.934,1.934,0,0,0,12.448,3.65L10.609,3.7a1.863,1.863,0,0,0-1.368.566,2.042,2.042,0,0,0-.613,1.368v.377L8.3,6.2l-.33-.141a1.663,1.663,0,0,0-.943-.283,1.824,1.824,0,0,0-1.7,1.037L4.385,8.46A1.986,1.986,0,0,0,4.2,9.922,1.905,1.905,0,0,0,5.045,11.1l.33.236v.424L5.045,12A1.905,1.905,0,0,0,4.2,13.175a1.986,1.986,0,0,0,.189,1.462l.943,1.65a1.824,1.824,0,0,0,1.7,1.037,1.663,1.663,0,0,0,.943-.283L8.3,16.9l.33.189v.377a2.042,2.042,0,0,0,.613,1.368,1.745,1.745,0,0,0,.66.424,1.763,1.763,0,0,0,.707.141h1.839a2.024,2.024,0,0,0,1.415-.566,1.863,1.863,0,0,0,.566-1.368l.047-.377.33-.189.283.141a1.663,1.663,0,0,0,.943.283,1.994,1.994,0,0,0,1.745-1.037l.943-1.65a1.947,1.947,0,0,0,.189-1.462,2.106,2.106,0,0,0-.9-1.179l-.283-.236v-.424l.283-.236a2.106,2.106,0,0,0,.9-1.179A1.947,1.947,0,0,0,18.72,8.46l-.943-1.65a1.994,1.994,0,0,0-1.745-1.037,1.663,1.663,0,0,0-.943.283l-.283.141-.33-.189m-4.338-.377q0-.424.472-.424l1.839-.047a.417.417,0,0,1,.472.472l.047.8a.676.676,0,0,0,.377.66l1.037.613a.642.642,0,0,0,.424.094.67.67,0,0,0,.377-.094l.849-.424a.453.453,0,0,1,.424.283l.943,1.6a.47.47,0,0,1-.189.66l-.613.424a.779.779,0,0,0-.377.707v1.179a.779.779,0,0,0,.377.707l.613.424a.47.47,0,0,1,.189.66l-.943,1.6a.453.453,0,0,1-.424.283l-.849-.424a.67.67,0,0,0-.377-.094.642.642,0,0,0-.424.094L13.344,16a.676.676,0,0,0-.377.66l-.047.8q0,.424-.472.424l-1.839.047a.417.417,0,0,1-.472-.472v-.8A.728.728,0,0,0,9.9,16.1,2.086,2.086,0,0,0,9.713,16l-.99-.613A.772.772,0,0,0,8.3,15.3a.546.546,0,0,0-.377.094l-.66.33-.236.094a.453.453,0,0,1-.424-.283l-.9-1.6a.445.445,0,0,1,.141-.66l.66-.424a.854.854,0,0,0,.377-.707V10.959a.854.854,0,0,0-.377-.707l-.66-.424a.445.445,0,0,1-.141-.66l.9-1.6a.453.453,0,0,1,.424-.283l.236.094.66.33A.546.546,0,0,0,8.3,7.8a.772.772,0,0,0,.424-.094l.99-.613a.668.668,0,0,0,.424-.66Z" transform="translate(-4.133 -3.65)" fill="#021d3d"/>
    <path id="Path_2317" data-name="Path 2317" d="M9.444,7.821A1.722,1.722,0,0,0,8.6,6.736a1.809,1.809,0,0,0-1.273-.189,1.752,1.752,0,0,0-1.037.8L6.237,7.4A1.843,1.843,0,0,0,6.9,9.8a1.532,1.532,0,0,0,1.273.189,1.588,1.588,0,0,0,1.037-.8l.047-.047A1.623,1.623,0,0,0,9.444,7.821Z" transform="translate(-0.327 -0.37)" fill="#021d3d"/>
  </g>
</svg>
