<svg id="app_radar_" data-name="app radar " xmlns="http://www.w3.org/2000/svg" width="24" height="24" viewBox="0 0 24 24">
  <rect id="Shape" width="24" height="24" fill="none"/>
  <g id="np_radar_1652525_000000" transform="translate(4.5 4.5)">
    <path id="Path_7335" data-name="Path 7335" d="M25.321,25.321a7.244,7.244,0,0,0,1.221-1.6.749.749,0,1,0-1.3-.741,6.006,6.006,0,1,1-2.263-8.186,7.64,7.64,0,0,1,.721.48l-1.081,1.081a4.507,4.507,0,1,0,1.061,6.284,4.4,4.4,0,0,0,.78-1.922.749.749,0,0,0-1.481-.22,3,3,0,1,1-2.5-3.423,2.818,2.818,0,0,1,1.061.38L20.4,18.594a1.5,1.5,0,1,0,1.061,1.841,1.708,1.708,0,0,0,0-.78l4.4-4.383a.756.756,0,0,0-.04-1.061.765.765,0,0,0-1.021,0H24.76a7.5,7.5,0,1,0,.561,11.108Z" transform="translate(-12.514 -12.514)"  />
    <path id="Path_7336" data-name="Path 7336" d="M78.171,44.715a1.121,1.121,0,1,1-1.585,0,1.121,1.121,0,0,1,1.585,0" transform="translate(-63.499 -38.007)"  />
  </g>
</svg>
