<svg id="app_analytics" data-name="app analytics" xmlns="http://www.w3.org/2000/svg" width="24" height="24" viewBox="0 0 24 24">
  <rect id="Base" width="24" height="24" rx="8" fill="none"/>
  <path id="Analytics" d="M3.6,14.4A3.6,3.6,0,0,1,0,10.8V3.6A3.6,3.6,0,0,1,3.6,0h7.2a3.6,3.6,0,0,1,3.6,3.6v7.2a3.6,3.6,0,0,1-3.6,3.6ZM1.44,3.6v7.2A2.16,2.16,0,0,0,3.6,12.96h7.2a2.16,2.16,0,0,0,2.16-2.16V3.6A2.161,2.161,0,0,0,10.8,1.44H3.6A2.161,2.161,0,0,0,1.44,3.6ZM9.6,9.9v-3a.9.9,0,1,1,1.8,0v3a.9.9,0,0,1-1.8,0ZM6,9.6V4.8a1.2,1.2,0,0,1,2.4,0V9.6A1.2,1.2,0,1,1,6,9.6ZM3,9.9V8.1a.9.9,0,1,1,1.8,0V9.9A.9.9,0,0,1,3,9.9Z" transform="translate(4.8 4.797)"  />
</svg>
