<svg id="app_security_level" data-name="app security level" xmlns="http://www.w3.org/2000/svg" width="24" height="24" viewBox="0 0 24 24">
  <rect id="Base" width="24" height="24"  opacity="0"/>
  <path id="Union_53" data-name="Union 53" d="M21993.566,4087.859l-2.738-1.951a6.752,6.752,0,0,1-2.828-5.5v-5.588a.747.747,0,0,1,.906-.737,5.994,5.994,0,0,0,4.666-.953.755.755,0,0,1,.857,0,5.993,5.993,0,0,0,4.664.953.765.765,0,0,1,.633.149.746.746,0,0,1,.273.588v5.588a6.748,6.748,0,0,1-2.824,5.5l-2.738,1.951a.742.742,0,0,1-.434.14A.753.753,0,0,1,21993.566,4087.859Zm-4.066-7.448a5.257,5.257,0,0,0,2.2,4.275l2.3,1.641,2.3-1.641a5.252,5.252,0,0,0,2.2-4.275v-4.727a10.225,10.225,0,0,0-9,0Zm3.754,2.34v-2.46a1.485,1.485,0,0,1-.75-1.289,1.5,1.5,0,1,1,2.248,1.289v2.46a.749.749,0,1,1-1.5,0Z" transform="translate(-21982 -4068)" />
</svg>
