<svg id="app_home" data-name="app home" xmlns="http://www.w3.org/2000/svg" width="24" height="24" viewBox="0 0 24 24">
  <rect id="Shape" width="24" height="24" fill="#021d3d" opacity="0"/>
  <path id="Home" d="M15.735,6.489h0L11.24,2.548a2.247,2.247,0,0,0-3,0L3.749,6.489A2.247,2.247,0,0,0,3,8.182v6.547a2.247,2.247,0,0,0,2.247,2.247h8.989a2.247,2.247,0,0,0,2.247-2.247V8.174a2.247,2.247,0,0,0-.749-1.685ZM11.24,15.478h-3V11.732a.749.749,0,0,1,.749-.749h1.5a.749.749,0,0,1,.749.749Zm3.746-.749a.749.749,0,0,1-.749.749h-1.5V11.732a2.247,2.247,0,0,0-2.247-2.247h-1.5a2.247,2.247,0,0,0-2.247,2.247v3.746h-1.5a.749.749,0,0,1-.749-.749V8.174a.749.749,0,0,1,.255-.562L9.247,3.679a.749.749,0,0,1,.989,0l4.495,3.933a.749.749,0,0,1,.255.562Z" transform="translate(2.25 2.524)" fill="#021d3d"/>
</svg>
