<svg id="arrows_circle_" data-name="arrows circle " xmlns="http://www.w3.org/2000/svg" width="24" height="24" viewBox="0 0 24 24">
  <rect id="Shape" width="24" height="24" opacity="0"/>
  <path id="sync" d="M18.119,14.159H14.042a.9.9,0,1,0,0,1.8H16.2A7.2,7.2,0,0,1,3.8,11,.9.9,0,1,0,2,11a9,9,0,0,0,15.192,6.507V19.1a.9.9,0,1,0,1.8,0V15.05A.9.9,0,0,0,18.119,14.159ZM11,2A9,9,0,0,0,4.808,4.493V2.9a.9.9,0,0,0-1.8,0V6.95a.9.9,0,0,0,.9.9h4.05a.9.9,0,1,0,0-1.8H5.8A7.2,7.2,0,0,1,18.2,11,.9.9,0,0,0,20,11,9,9,0,0,0,11,2Z" transform="translate(1 1)"/>
</svg>
