<svg id="at" xmlns="http://www.w3.org/2000/svg" width="24" height="24" viewBox="0 0 24 24">
  <rect id="Rectangle_3687" data-name="Rectangle 3687" width="24" height="24"   opacity="0"/>
  <path id="at-2" data-name="at" d="M10,2a8,8,0,1,0,4,14.928.8.8,0,1,0-.8-1.384A6.4,6.4,0,1,1,16.4,10v.6a1.4,1.4,0,1,1-2.8,0V7.2A.81.81,0,0,0,12,7.032,3.56,3.56,0,0,0,10,6.4a3.6,3.6,0,1,0,2.64,6A2.992,2.992,0,0,0,18,10.6V10A8,8,0,0,0,10,2Zm0,10a2,2,0,1,1,2-2A2,2,0,0,1,10,12Z" transform="translate(2.004 2)"  />
</svg>
