<svg id="Backpack" xmlns="http://www.w3.org/2000/svg" width="24" height="24" viewBox="0 0 24 24">
  <rect id="Shape" width="24" height="24" fill="#021d3d" opacity="0"/>
  <path id="Backpack-2" data-name="Backpack" d="M10.25,8H8.75a.75.75,0,0,0,0,1.5h1.5a.75.75,0,0,0,0-1.5ZM14,8a3,3,0,0,0-2.25-2.895V4.25a2.25,2.25,0,0,0-4.5,0v.855A3,3,0,0,0,5,8a3,3,0,0,0-3,3v2.25A2.25,2.25,0,0,0,4.25,15.5h.885A2.25,2.25,0,0,0,7.25,17h4.5a2.25,2.25,0,0,0,2.115-1.5h.885A2.25,2.25,0,0,0,17,13.25V11A3,3,0,0,0,14,8ZM5,14H4.25a.75.75,0,0,1-.75-.75V11A1.5,1.5,0,0,1,5,9.5ZM8.75,4.25a.75.75,0,0,1,1.5,0V5H8.75Zm3.75,10.5a.75.75,0,0,1-.75.75H7.25a.75.75,0,0,1-.75-.75V14A1.5,1.5,0,0,1,8,12.5h3A1.5,1.5,0,0,1,12.5,14Zm0-3.33A2.932,2.932,0,0,0,11,11H8a2.933,2.933,0,0,0-1.5.42V8A1.5,1.5,0,0,1,8,6.5h3A1.5,1.5,0,0,1,12.5,8Zm3,1.83a.75.75,0,0,1-.75.75H14V9.5A1.5,1.5,0,0,1,15.5,11Z" transform="translate(2.5 2.5)" fill="#021d3d"/>
</svg>
