<svg id="Ball" xmlns="http://www.w3.org/2000/svg" width="24" height="24" viewBox="0 0 24 24">
  <rect id="Shape" width="24" height="24"  opacity="0"/>
  <path id="Activity_with_qouta" data-name="Activity with qouta" d="M9.52,2A7.513,7.513,0,0,0,3.21,5.448h0a7.513,7.513,0,0,0,11.013,9.917h0A7.513,7.513,0,0,0,9.52,2Zm1.5,1.7A6.01,6.01,0,0,1,15.335,8.01a7.347,7.347,0,0,0-3.561,1.037,11.8,11.8,0,0,0-1.8-1.66A7.558,7.558,0,0,0,11.023,3.7Zm-1.5-.2A5.935,5.935,0,0,1,8.664,6.56c-.113-.06-.218-.128-.331-.18a11.66,11.66,0,0,0-3.073-1.1A6.01,6.01,0,0,1,9.52,3.5ZM4.262,6.628A10.33,10.33,0,0,1,7.635,7.71l.1.06A5.957,5.957,0,0,1,3.51,9.513a6.01,6.01,0,0,1,.751-2.885Zm3.756,8.7a6.01,6.01,0,0,1-4.312-4.312A7.438,7.438,0,0,0,9.025,8.6a10.518,10.518,0,0,1,1.5,1.352,7.513,7.513,0,0,0-2.509,5.372Zm1.5.2a6.01,6.01,0,0,1,1.923-4.395c.045.06.09.113.128.173a10.518,10.518,0,0,1,1.382,3.14A5.958,5.958,0,0,1,9.52,15.523Zm4.665-2.254a12.02,12.02,0,0,0-1.352-2.817l-.158-.188a5.958,5.958,0,0,1,2.855-.751A6.01,6.01,0,0,1,14.186,13.269Z" transform="translate(2.468 2.5)"  />
</svg>
