<svg id="Briefcase_" data-name="Briefcase " xmlns="http://www.w3.org/2000/svg" width="24" height="24" viewBox="0 0 24 24">
  <rect id="Shape" width="24" height="24" rx="8" fill="#021d3d" opacity="0"/>
  <path id="suitcase" d="M15.421,5.658H13.053V4.868A2.368,2.368,0,0,0,10.684,2.5H9.105A2.368,2.368,0,0,0,6.737,4.868v.789H4.368A2.368,2.368,0,0,0,2,8.026v7.105A2.368,2.368,0,0,0,4.368,17.5H15.421a2.368,2.368,0,0,0,2.368-2.368V8.026A2.368,2.368,0,0,0,15.421,5.658ZM8.316,4.868a.789.789,0,0,1,.789-.789h1.579a.789.789,0,0,1,.789.789v.789H8.316Zm7.895,10.263a.789.789,0,0,1-.789.789H4.368a.789.789,0,0,1-.789-.789V11.145H5.947v.829a.789.789,0,0,0,1.579,0v-.829h4.737v.829a.789.789,0,0,0,1.579,0v-.829h2.368Zm0-5.526H3.579V8.026a.789.789,0,0,1,.789-.789H15.421a.789.789,0,0,1,.789.789Z" transform="translate(2.1 2)" fill="#021d3d"/>
</svg>
