<svg id="Buildings_-_Double" data-name="Buildings - Double" xmlns="http://www.w3.org/2000/svg" width="24" height="24" viewBox="0 0 24 24">
  <rect id="Shape" width="24" height="24" fill="none" opacity="0.12"/>
  <path id="Union_74" data-name="Union 74" d="M21890.768,17692.355a.77.77,0,0,1,0-1.539h.768v-13.047a.764.764,0,0,1,.766-.768h10.748a.765.765,0,0,1,.768.768v1.525h3.113a.63.63,0,0,1,.6.65v10.773h.457a.817.817,0,0,1,0,1.631h-3.309c-.033,0-.066.006-.1.006Zm15.555-1.637V17680.6h-2.506v10.117Zm-4.041,0v-12.184h-9.213v12.184h2.307v-3.736a.77.77,0,0,1,.768-.773h3.064a.775.775,0,0,1,.773.773v3.736Zm-3.84,0v-2.971h-1.531v2.971Zm.766-6.045a.767.767,0,0,1,0-1.533h.773a.767.767,0,1,1,0,1.533Zm-3.832,0a.767.767,0,1,1,0-1.533h.768a.767.767,0,1,1,0,1.533Zm3.832-3.066a.77.77,0,0,1,0-1.539h.773a.77.77,0,0,1,0,1.539Zm-3.832,0a.77.77,0,1,1,0-1.539h.768a.77.77,0,0,1,0,1.539Z" transform="translate(-21887 -17673)" fill="#021d3d"/>
</svg>
