<svg id="Buildings_-_Double" data-name="Buildings - Double" xmlns="http://www.w3.org/2000/svg" width="24" height="24" viewBox="0 0 24 24">
  <rect id="Base" width="24" height="24"  opacity="0"/>
  <path id="Buildings" d="M20.55,18.5V7.9a.617.617,0,0,0-.6-.65H16.5V5.75a.678.678,0,0,0-.2-.5A.765.765,0,0,0,15.75,5H5.25a.663.663,0,0,0-.75.75V18.5H3.75a.75.75,0,0,0,0,1.5H21a.663.663,0,0,0,.75-.75.678.678,0,0,0-.2-.5A.765.765,0,0,0,21,18.5h-.45m-12.3,0H6V6.5h9v12H12.75V14.75a.678.678,0,0,0-.2-.5A.765.765,0,0,0,12,14H9a.663.663,0,0,0-.75.75V18.5m1.5,0v-3h1.5v3H9.75m7.8-8.7H16.5V8.55h2.85V18.5H16.5V13.65h1.05q.6-.1.6-.6.1-.6-.6-.7H16.5V11.1h1.05a.622.622,0,0,0,.45-.2.476.476,0,0,0,.15-.45.617.617,0,0,0-.6-.65M9,11H8.25a.663.663,0,0,0-.75.75.663.663,0,0,0,.75.75H9a.663.663,0,0,0,.75-.75.678.678,0,0,0-.2-.5A.765.765,0,0,0,9,11m.55-2.75A.765.765,0,0,0,9,8H8.25a.663.663,0,0,0-.75.75.663.663,0,0,0,.75.75H9a.663.663,0,0,0,.75-.75.678.678,0,0,0-.2-.5M12,11a.663.663,0,0,0-.75.75.663.663,0,0,0,.75.75h.75a.663.663,0,0,0,.75-.75.678.678,0,0,0-.2-.5.765.765,0,0,0-.55-.25H12m1.5-2.25a.678.678,0,0,0-.2-.5A.765.765,0,0,0,12.75,8H12a.663.663,0,0,0-.75.75A.663.663,0,0,0,12,9.5h.75A.663.663,0,0,0,13.5,8.75Z" transform="translate(0 -0.5)"  />
</svg>
