<svg id="Buildings_-_Triple" data-name="Buildings - Triple" xmlns="http://www.w3.org/2000/svg" width="24" height="24" viewBox="0 0 24 24">
  <rect id="Base" width="24" height="24" fill="#021d3d" opacity="0"/>
  <path id="ABX_Company_edited" data-name="ABX Company_edited" d="M21.6,18.45V7.9a.617.617,0,0,0-.6-.65H18V5.75a.678.678,0,0,0-.2-.5A.765.765,0,0,0,17.25,5H6.75A.663.663,0,0,0,6,5.75v1.5H2.95a.617.617,0,0,0-.6.65V18.4H1.9q-.8.1-.7.8a.555.555,0,0,0,.2.55.616.616,0,0,0,.5.25H22.05a.7.7,0,0,0,.75-.7q0-.85-.75-.85H21.6m-1.2-9.9v9.9H18V8.55h2.4m-16.85,0H6v9.9H3.55V8.55m6.2,9.9H7.5V6.5h9V18.45H14.25v-3.7a.678.678,0,0,0-.2-.5A.765.765,0,0,0,13.5,14h-3a.663.663,0,0,0-.75.75v3.7m1.5,0V15.5h1.5v2.95h-1.5m3-7.45H13.5a.663.663,0,0,0-.75.75.663.663,0,0,0,.75.75h.75a.663.663,0,0,0,.75-.75.678.678,0,0,0-.2-.5.765.765,0,0,0-.55-.25m-3.2.25A.765.765,0,0,0,10.5,11H9.75a.663.663,0,0,0-.75.75.663.663,0,0,0,.75.75h.75a.663.663,0,0,0,.75-.75.678.678,0,0,0-.2-.5m.2-2.5a.678.678,0,0,0-.2-.5A.765.765,0,0,0,10.5,8H9.75A.663.663,0,0,0,9,8.75a.663.663,0,0,0,.75.75h.75a.663.663,0,0,0,.75-.75m3.75,0a.678.678,0,0,0-.2-.5A.765.765,0,0,0,14.25,8H13.5a.663.663,0,0,0-.75.75.663.663,0,0,0,.75.75h.75A.663.663,0,0,0,15,8.75Z" transform="translate(0.011 -0.5)" fill="#021d3d"/>
</svg>
