<svg id="Building" xmlns="http://www.w3.org/2000/svg" width="24" height="24" viewBox="0 0 24 24">
  <rect id="Shape" width="24" height="24" fill="#021d3d" opacity="0"/>
  <path id="Hotels" d="M11,6.5h.75a.75.75,0,1,0,0-1.5H11a.75.75,0,0,0,0,1.5Zm0,3h.75a.75.75,0,0,0,0-1.5H11a.75.75,0,0,0,0,1.5Zm-3.75-3H8A.75.75,0,1,0,8,5H7.25a.75.75,0,1,0,0,1.5Zm0,3H8A.75.75,0,0,0,8,8H7.25a.75.75,0,0,0,0,1.5Zm9,6H15.5V2.75A.75.75,0,0,0,14.75,2H4.25a.75.75,0,0,0-.75.75V15.5H2.75a.75.75,0,1,0,0,1.5h13.5a.75.75,0,0,0,0-1.5Zm-6,0H8.75v-3h1.5Zm3.75,0H11.75V11.75A.75.75,0,0,0,11,11H8a.75.75,0,0,0-.75.75V15.5H5V3.5h9Z" transform="translate(2.5 2.5)" fill="#021d3d"/>
</svg>
