<svg id="Bullet_List" data-name="Bullet List" xmlns="http://www.w3.org/2000/svg" width="24" height="24" viewBox="0 0 24 24">
  <rect id="Shape" width="24" height="24"  opacity="0"/>
  <path id="list-ul" d="M6,7.6H17.2a.756.756,0,0,0,.8-.8.756.756,0,0,0-.8-.8H6a.756.756,0,0,0-.8.8A.756.756,0,0,0,6,7.6ZM17.2,10H6a.8.8,0,1,0,0,1.6H17.2a.8.8,0,0,0,0-1.6Zm0,4H6a.8.8,0,1,0,0,1.6H17.2a.8.8,0,0,0,0-1.6ZM3.359,6.239c-.08-.08-.16-.16-.24-.16a.73.73,0,0,0-.88.16c-.08.08-.16.16-.16.24a.883.883,0,0,0,0,.64c.08.08.08.16.16.24s.16.16.24.16a.481.481,0,0,0,.32.08.726.726,0,0,0,.56-.24c.08-.08.16-.16.16-.24a.883.883,0,0,0,0-.64C3.519,6.4,3.439,6.319,3.359,6.239Zm0,4a.73.73,0,0,0-.88-.16c-.08.08-.16.08-.24.16s-.16.16-.16.24a.876.876,0,0,0,0,.64c.08.08.08.16.16.24s.16.16.24.16a.481.481,0,0,0,.32.08.481.481,0,0,0,.32-.08c.08-.08.16-.08.24-.16s.16-.16.16-.24a.876.876,0,0,0,0-.64C3.519,10.4,3.439,10.318,3.359,10.238Zm0,4c-.08-.08-.16-.16-.24-.16a.876.876,0,0,0-.64,0c-.08,0-.16.08-.24.16s-.16.16-.16.24a.73.73,0,0,0,.16.88c.08.08.16.16.24.16a.481.481,0,0,0,.32.08.481.481,0,0,0,.32-.08c.08-.08.16-.08.24-.16a.73.73,0,0,0,.16-.88C3.519,14.4,3.439,14.318,3.359,14.238Z" transform="translate(2.004 1.004)"  />
</svg>
