<svg id="Bus" xmlns="http://www.w3.org/2000/svg" width="24" height="24" viewBox="0 0 24 24">
  <rect id="Shape" width="24" height="24" fill="#021d3d" opacity="0"/>
  <path id="Bus-2" data-name="Bus" d="M7.25,13.25A.75.75,0,0,0,8,12.5a1.02,1.02,0,0,0,0-.15.48.48,0,0,0-.045-.135.57.57,0,0,0-.068-.135l-.09-.112a.868.868,0,0,0-.7-.217l-.135.045-.135.068a1.185,1.185,0,0,0-.112.09l-.09.112a.57.57,0,0,0-.068.135.48.48,0,0,0-.045.135,1.02,1.02,0,0,0,0,.15.75.75,0,0,0,.75.75Zm6,0A.75.75,0,0,0,14,12.5a1.02,1.02,0,0,0,0-.15.48.48,0,0,0-.045-.135.57.57,0,0,0-.068-.135l-.09-.113a.862.862,0,0,0-.248-.158.75.75,0,0,0-.57,0,.863.863,0,0,0-.247.158l-.09.113a.57.57,0,0,0-.067.135.48.48,0,0,0-.045.135,1.02,1.02,0,0,0,0,.15.757.757,0,0,0,.72.75ZM11,4.25H9.5a.75.75,0,0,0,0,1.5H11a.75.75,0,1,0,0-1.5ZM14.75,2h-9A2.25,2.25,0,0,0,3.5,4.25v9A2.25,2.25,0,0,0,5,15.365v.885a.75.75,0,1,0,1.5,0V15.5H14v.75a.75.75,0,0,0,1.5,0v-.885A2.25,2.25,0,0,0,17,13.25v-9A2.25,2.25,0,0,0,14.75,2Zm.75,11.25a.75.75,0,0,1-.75.75h-9A.75.75,0,0,1,5,13.25V11H15.5Zm0-3.75H5V4.25a.75.75,0,0,1,.75-.75h9a.75.75,0,0,1,.75.75Z" transform="translate(1.749 2.5)" fill="#021d3d"/>
</svg>
