<svg id="calendar_clock" data-name="calendar clock" xmlns="http://www.w3.org/2000/svg" width="24" height="24" viewBox="0 0 24 24">
  <rect id="Base" width="24" height="24" fill="#021d3d" opacity="0"/>
  <path id="Union_52" data-name="Union 52" d="M21990.4,4089a2.4,2.4,0,0,1-2.4-2.4V4077a2.4,2.4,0,0,1,2.4-2.4h1.6v-.8a.8.8,0,0,1,1.6,0v.8h4.8v-.8a.8.8,0,1,1,1.6,0v.8h1.6a2.4,2.4,0,0,1,2.4,2.4v9.6a2.4,2.4,0,0,1-2.4,2.4Zm-.8-2.4a.8.8,0,0,0,.8.8h11.2a.8.8,0,0,0,.8-.8V4077a.8.8,0,0,0-.8-.8h-1.6v.8a.8.8,0,1,1-1.6,0v-.8h-4.8v.8a.8.8,0,0,1-1.6,0v-.8h-1.6a.8.8,0,0,0-.8.8v9.6Zm3.2-4.633a3.363,3.363,0,0,1,1.189-2.568h0a3.365,3.365,0,0,1,4.357,0h0a3.368,3.368,0,1,1-5.547,2.568Zm2.771-1.463.006,1.894.486.375.723.723a.524.524,0,0,0,.369.155.5.5,0,0,0,.365-.155.515.515,0,0,0,0-.735l-.906-.911v-1.347a.521.521,0,0,0-1.043,0Z" transform="translate(-21984 -4069.001)" fill="#021d3d"/>
</svg>
