<svg id="Calendar" xmlns="http://www.w3.org/2000/svg" width="24" height="24" viewBox="0 0 24 24">
  <rect id="Shape" width="24" height="24" fill="#021d3d" opacity="0"/>
  <path id="Mifgashim" d="M14.75,3.5h-1.5V2.75a.75.75,0,1,0-1.5,0V3.5H7.25V2.75a.75.75,0,1,0-1.5,0V3.5H4.25A2.25,2.25,0,0,0,2,5.75v9A2.25,2.25,0,0,0,4.25,17h10.5A2.25,2.25,0,0,0,17,14.75v-9A2.25,2.25,0,0,0,14.75,3.5Zm.75,11.25a.75.75,0,0,1-.75.75H4.25a.75.75,0,0,1-.75-.75V9.5h12ZM15.5,8H3.5V5.75A.75.75,0,0,1,4.25,5h1.5v.75a.75.75,0,0,0,1.5,0V5h4.5v.75a.75.75,0,0,0,1.5,0V5h1.5a.75.75,0,0,1,.75.75Z" transform="translate(2.5 2.5)" fill="#021d3d"/>
</svg>
