<svg id="Camera_stills_slash" data-name="Camera stills slash" xmlns="http://www.w3.org/2000/svg" width="24" height="24" viewBox="0 0 24 24">
  <rect id="Shape" width="24" height="24" fill="none" opacity="0.12"/>
  <path id="camera-slash" d="M3.367,2.231A.8.8,0,0,0,2.231,3.367L4.47,5.6H4.4A2.4,2.4,0,0,0,2,8v6.4a2.4,2.4,0,0,0,2.4,2.4H15.656l.968.976a.8.8,0,1,0,1.135-1.135Zm5.189,7.46L10.7,11.834A1.6,1.6,0,0,1,8.556,9.691ZM4.4,15.193a.8.8,0,0,1-.8-.8V8a.8.8,0,0,1,.8-.8H6.053L7.413,8.548A3.134,3.134,0,0,0,6.8,10.4a3.2,3.2,0,0,0,3.2,3.2,3.134,3.134,0,0,0,1.855-.616l2.215,2.215ZM15.592,5.6H14.569l-.248-.8a2.4,2.4,0,0,0-2.279-1.6H8.524a.8.8,0,1,0,0,1.6h3.518a.8.8,0,0,1,.76.544l.432,1.3a.8.8,0,0,0,.76.552h1.6a.8.8,0,0,1,.8.8v4.67a.8.8,0,1,0,1.6,0V8A2.4,2.4,0,0,0,15.592,5.6Z" transform="translate(2.004 2.004)" fill="#021d3d"/>
</svg>
