<svg id="Camera_stills_plus" data-name="Camera stills plus" xmlns="http://www.w3.org/2000/svg" width="24" height="24" viewBox="0 0 24 24">
  <rect id="Shape" width="24" height="24" fill="none" opacity="0.12"/>
  <path id="camera-plus" d="M14.818,8.318a.727.727,0,0,0-.727.727v5.091a.727.727,0,0,1-.727.727H3.182a.727.727,0,0,1-.727-.727V8.318a.727.727,0,0,1,.727-.727H4.636A.727.727,0,0,0,5.364,7.1L5.756,5.9a.727.727,0,0,1,.691-.495h4.007a.727.727,0,1,0,0-1.455H6.411A2.182,2.182,0,0,0,4.345,5.445l-.233.727H3.182A2.182,2.182,0,0,0,1,8.355v5.818a2.182,2.182,0,0,0,2.182,2.182H13.364a2.182,2.182,0,0,0,2.182-2.182V9.082a.727.727,0,0,0-.727-.764ZM8.273,7.591A2.909,2.909,0,1,0,11.182,10.5,2.909,2.909,0,0,0,8.273,7.591Zm0,4.364A1.455,1.455,0,1,1,9.727,10.5,1.455,1.455,0,0,1,8.273,11.955Zm8-8h-.727V3.227a.727.727,0,0,0-1.455,0v.727h-.727a.727.727,0,1,0,0,1.455h.727v.727a.727.727,0,1,0,1.455,0V5.409h.727a.727.727,0,1,0,0-1.455Z" transform="translate(3 2.5)" fill="#021d3d"/>
</svg>
