<svg id="Camera_-_Stills" data-name="Camera - Stills" xmlns="http://www.w3.org/2000/svg" width="24" height="24" viewBox="0 0 24 24">
  <rect id="Shape" width="24" height="24"  opacity="0"/>
  <path id="Camera" d="M14.75,5.75h-.96L13.55,5a2.25,2.25,0,0,0-2.13-1.5H7.58A2.25,2.25,0,0,0,5.45,5.037l-.24.75H4.25A2.25,2.25,0,0,0,2,8.037v6a2.25,2.25,0,0,0,2.25,2.25h10.5A2.25,2.25,0,0,0,17,14.037v-6A2.25,2.25,0,0,0,14.75,5.75ZM15.5,14a.75.75,0,0,1-.75.75H4.25A.75.75,0,0,1,3.5,14V8a.75.75,0,0,1,.75-.75h1.5a.75.75,0,0,0,.75-.51l.4-1.23A.75.75,0,0,1,7.617,5h3.84a.75.75,0,0,1,.712.51l.4,1.23a.75.75,0,0,0,.675.51h1.5A.75.75,0,0,1,15.5,8Zm-6-6.75a3,3,0,1,0,3,3A3,3,0,0,0,9.5,7.25Zm0,4.5a1.5,1.5,0,1,1,1.5-1.5A1.5,1.5,0,0,1,9.5,11.75Z" transform="translate(2.5 2.125)"  />
</svg>
