<svg id="Camera_stills_change" data-name="Camera stills change" xmlns="http://www.w3.org/2000/svg" width="24" height="24" viewBox="0 0 24 24">
  <rect id="Shape" width="24" height="24"   opacity="0"/>
  <path id="camera-change" d="M9.213,4.333,10.3,5.425a.719.719,0,0,0,1.128-.88h2.662a.727.727,0,1,0,0-1.455H11.431a.72.72,0,0,0-1.128-.88L9.213,3.3a.752.752,0,0,0,0,1.033Zm7.733,2.844a.727.727,0,0,0-.153-.24L15.7,5.847a.719.719,0,0,0-1.128.88H11.912a.727.727,0,1,0,0,1.455h2.662a.72.72,0,0,0,1.128.88l1.091-1.091a.752.752,0,0,0,.153-.793Zm-8.671.64a2.91,2.91,0,1,0,2.91,2.91A2.91,2.91,0,0,0,8.274,7.818Zm0,4.365a1.455,1.455,0,1,1,1.455-1.455A1.455,1.455,0,0,1,8.274,12.183ZM14.821,10a.727.727,0,0,0-.727.727v3.637a.727.727,0,0,1-.727.727H3.182a.727.727,0,0,1-.727-.727V8.545a.727.727,0,0,1,.727-.727H4.637a.727.727,0,0,0,.727-.5l.393-1.178a.727.727,0,0,1,.655-.5H7.547a.727.727,0,0,0,0-1.455H6.412a2.182,2.182,0,0,0-2.073,1.5l-.226.684H3.182A2.182,2.182,0,0,0,1,8.545v5.82a2.182,2.182,0,0,0,2.182,2.182H13.366a2.182,2.182,0,0,0,2.182-2.182V10.728A.727.727,0,0,0,14.821,10Z" transform="translate(3 3.004)" />
</svg>
