<svg id="Chat_Bubble_-_Download" data-name="Chat Bubble - Download" xmlns="http://www.w3.org/2000/svg" width="24" height="24" viewBox="0 0 24 24">
  <rect id="Shape" width="24" height="24" fill="#021d3d" opacity="0"/>
  <path id="Reply_comment" data-name="Reply comment" d="M14.748,11a.75.75,0,0,0-.915.54A5.249,5.249,0,0,1,8.749,15.5H4.557l.48-.472a.75.75,0,0,0,0-1.057A5.249,5.249,0,0,1,8.749,5a6.366,6.366,0,0,1,.66,0,.755.755,0,0,0,.18-1.5,6.239,6.239,0,0,0-.84,0A6.749,6.749,0,0,0,3.5,14.462L2.218,15.715A.755.755,0,0,0,2.75,17h6a6.749,6.749,0,0,0,6.539-5.061.75.75,0,0,0-.54-.937ZM16.78,5.944a.75.75,0,0,0-1.065,0l-.967,1V2.75a.75.75,0,0,0-1.5,0V6.942l-.967-.975a.753.753,0,0,0-1.065,1.065l2.25,2.25a.75.75,0,0,0,.247.157.7.7,0,0,0,.57,0,.75.75,0,0,0,.247-.157l2.25-2.25a.75.75,0,0,0,0-1.065Z" transform="translate(2.498 2.5)" fill="#021d3d"/>
</svg>
