<svg id="Chat_Bubble_-_Edit" data-name="Chat Bubble - Edit" xmlns="http://www.w3.org/2000/svg" width="24" height="24" viewBox="0 0 24 24">
  <rect id="Shape" width="24" height="24"  opacity="0"/>
  <path id="Comment_edit" data-name="Comment edit" d="M16.784,4.04,14.961,2.217a.75.75,0,0,0-1.058,0L9.718,6.4a.75.75,0,0,0-.218.533V8.75a.75.75,0,0,0,.75.75h1.815a.75.75,0,0,0,.533-.218L16.784,5.1A.75.75,0,0,0,16.784,4.04ZM11.751,8H11V7.25l3.435-3.435.75.75Zm3,1.5h0a.75.75,0,0,0-.75.75,5.25,5.25,0,0,1-5.25,5.25H4.558l.48-.473a.75.75,0,0,0,0-1.065A5.25,5.25,0,0,1,8.751,5a.75.75,0,1,0,0-1.5h0A6.75,6.75,0,0,0,3.5,14.465L2.218,15.718A.755.755,0,0,0,2.75,17h6a6.75,6.75,0,0,0,6.75-6.75A.75.75,0,0,0,14.751,9.5Z" transform="translate(2.498 2.5)"  />
</svg>
