<svg id="check_circle_filled" data-name="check circle filled" xmlns="http://www.w3.org/2000/svg" width="24" height="24" viewBox="0 0 24 24">
  <rect id="Shape" width="24" height="24" fill="#021d3d" opacity="0"/>
  <path id="Subtraction_28" data-name="Subtraction 28" d="M21897.5,17692a7.5,7.5,0,1,1,7.5-7.5A7.51,7.51,0,0,1,21897.5,17692Zm-2.99-8.182a.908.908,0,0,0-.17.018.752.752,0,0,0-.314,1.3l1.76,1.771a.753.753,0,0,0,.512.213h.021a.76.76,0,0,0,.527-.213l3.75-3.75a.76.76,0,0,0,.225-.533.753.753,0,0,0-1.281-.533l-3.221,3.227-1.236-1.242A.746.746,0,0,0,21894.512,17683.818Z" transform="translate(-21885.5 -17672.5)" fill="#021d3d"/>
</svg>
