<svg id="Clipboard" xmlns="http://www.w3.org/2000/svg" width="24" height="24" viewBox="0 0 24 24">
  <g id="Shape" opacity="0">
    <rect id="Shape-2" data-name="Shape" width="24" height="24"  opacity="0"/>
  </g>
  <path id="Report" d="M12.25,11H7.75a.75.75,0,0,0,0,1.5h4.5a.75.75,0,0,0,0-1.5Zm0-3h-3a.75.75,0,1,0,0,1.5h3a.75.75,0,0,0,0-1.5Zm1.5-4.5h-.885A2.25,2.25,0,0,0,10.75,2H9.25A2.25,2.25,0,0,0,7.135,3.5H6.25A2.25,2.25,0,0,0,4,5.75v9A2.25,2.25,0,0,0,6.25,17h7.5A2.25,2.25,0,0,0,16,14.75v-9A2.25,2.25,0,0,0,13.75,3.5ZM8.5,4.25a.75.75,0,0,1,.75-.75h1.5a.75.75,0,0,1,.75.75V5h-3Zm6,10.5a.75.75,0,0,1-.75.75H6.25a.75.75,0,0,1-.75-.75v-9A.75.75,0,0,1,6.25,5H7v.75a.75.75,0,0,0,.75.75h4.5A.75.75,0,0,0,13,5.75V5h.75a.75.75,0,0,1,.75.75Z" transform="translate(2 2.5)"  />
</svg>
