<svg id="clock_running" data-name="clock running" xmlns="http://www.w3.org/2000/svg" width="24" height="24" viewBox="0 0 24 24">
  <rect id="Shape" width="24" height="24"  opacity="0"/>
  <path id="clock" d="M11.48,10.5,9.8,9.536V6.5a.8.8,0,1,0-1.6,0v3.6a.52.52,0,0,0,.04.16.712.712,0,0,0,.064.136.688.688,0,0,0,.08.128l.128.1.072.072,2.08,1.2a.8.8,0,1,0,.8-1.392Z" transform="translate(3 2)"  />
  <path id="circle" d="M16.35,7.6A6,6,0,0,1,18.2,12a5.629,5.629,0,0,1-1.85,4.35q-.026.05-.05.05A5.245,5.245,0,0,1,12,18.2a.365.365,0,0,0-.05,0,5.117,5.117,0,0,1-1.75-.25.849.849,0,0,0-.6.1.863.863,0,0,0-.4.45.957.957,0,0,0,.1.65.665.665,0,0,0,.45.35,6.586,6.586,0,0,0,2.2.3h.1a6.792,6.792,0,0,0,5.45-2.3h-.05A7.138,7.138,0,0,0,19.8,12a7.569,7.569,0,0,0-2.3-5.55A7.487,7.487,0,0,0,12,4.2a7.684,7.684,0,0,0-7.8,7.7,6.974,6.974,0,0,0,.15,1.8.786.786,0,0,0,.35.5.648.648,0,0,0,.6.1.629.629,0,0,0,.5-.3.649.649,0,0,0,.1-.6,5.955,5.955,0,0,1-.1-1.35.38.38,0,0,0,0-.05A6.146,6.146,0,0,1,12,5.8,5.92,5.92,0,0,1,16.35,7.6Z"  />
</svg>
