<svg id="ClockHands" xmlns="http://www.w3.org/2000/svg" width="32" height="32" viewBox="0 0 32 32">
  <rect id="Shape" width="24" height="24"  opacity="0"/>
  <path d="M19.307 17.333l-2.24-1.285v-4.048c0-0.589-0.478-1.067-1.067-1.067s-1.067 0.478-1.067 1.067v0 4.8c0.007 0.079 0.026 0.151 0.055 0.218l-0.002-0.004c0.024 0.070 0.053 0.129 0.088 0.185l-0.002-0.004c0.032 0.065 0.067 0.121 0.108 0.173l-0.001-0.002 0.171 0.133 0.096 0.096 2.773 1.6c0.153 0.090 0.337 0.142 0.533 0.142 0.591 0 1.070-0.479 1.070-1.070 0-0.395-0.214-0.74-0.532-0.925l-0.005-0.003z"></path>
</svg>
