<svg id="cloud_user" data-name="cloud user" xmlns="http://www.w3.org/2000/svg" width="24" height="24" viewBox="0 0 24 24">
  <rect id="Shape" width="24" height="24" fill="none" opacity="0.12"/>
  <path id="Union_93" data-name="Union 93" d="M4.617,11.042a.642.642,0,0,1-.063-.653A3.194,3.194,0,0,1,5.838,8.906,2.087,2.087,0,0,1,5.381,7.62a2.113,2.113,0,0,1,4.225,0,2.075,2.075,0,0,1-.455,1.285,3.224,3.224,0,0,1,1.291,1.483.643.643,0,0,1-.34.841.676.676,0,0,1-.252.051.643.643,0,0,1-.591-.391,1.913,1.913,0,0,0-3.524,0,.65.65,0,0,1-.513.409.571.571,0,0,1-.086.006A.642.642,0,0,1,4.617,11.042ZM6.91,7.021a.837.837,0,1,0,.587-.24A.828.828,0,0,0,6.91,7.021Zm4.257,2.761a.756.756,0,0,1,.658-.846,2.256,2.256,0,0,0-.18-4.392.754.754,0,0,1-.589-.5,3.759,3.759,0,0,0-7.315,1.2A.752.752,0,0,1,2.99,6a1.513,1.513,0,0,0-.512,2.933A.752.752,0,1,1,2,10.343,3.008,3.008,0,0,1,2.283,4.59,5.264,5.264,0,0,1,12.329,3.161v.045A3.76,3.76,0,0,1,12.2,10.44h-.187a.678.678,0,0,1-.094.006A.76.76,0,0,1,11.167,9.782Z" transform="translate(5 5.998)" fill="#021d3d"/>
</svg>
