<svg id="cloud_unlock" data-name="cloud unlock" xmlns="http://www.w3.org/2000/svg" width="24" height="24" viewBox="0 0 24 24">
  <rect id="Shape" width="24" height="24" fill="none" opacity="0.12"/>
  <path id="cloud-unlock" d="M11,12.256H8.754v-.75a.75.75,0,0,1,1.41-.375.743.743,0,0,0,1.283-.75,2.311,2.311,0,0,0-.345-.443,2.239,2.239,0,0,0-3.849,1.568v.885A2.251,2.251,0,0,0,8,16.758h3a2.251,2.251,0,1,0,0-4.5Zm0,3H8a.75.75,0,1,1,0-1.5h3a.75.75,0,0,1,0,1.5Zm3.316-9.588A5.252,5.252,0,0,0,4.3,7.087a3,3,0,0,0-.285,5.747.848.848,0,0,0,.24.038.76.76,0,1,0,.24-1.5A1.474,1.474,0,0,1,5,8.505a.75.75,0,0,0,.75-.75,3.751,3.751,0,0,1,7.3-1.208.75.75,0,0,0,.585.5,2.251,2.251,0,0,1,.75,4.149.753.753,0,0,0,.75,1.305,3.746,3.746,0,0,0-.818-6.835Z" transform="translate(2.994 2.488)" fill="#021d3d"/>
</svg>
