<svg id="Cloud_-_Upload" data-name="Cloud - Upload" xmlns="http://www.w3.org/2000/svg" width="24" height="24" viewBox="0 0 24 24">
  <rect id="Shape" width="24" height="24"  opacity="0"/>
  <path id="Upload" d="M14.324,7.171A5.255,5.255,0,0,0,4.295,8.59,3,3,0,0,0,5,14.513a.751.751,0,1,0,0-1.5,1.5,1.5,0,1,1,0-3,.751.751,0,0,0,.751-.751,3.754,3.754,0,0,1,7.3-1.209.751.751,0,0,0,.586.5,2.252,2.252,0,0,1,.18,4.384.752.752,0,1,0,.375,1.456,3.754,3.754,0,0,0,.128-7.222ZM10.038,8.725a.776.776,0,0,0-1.066,0L6.72,10.977a.754.754,0,1,0,1.066,1.066l.968-.976v4.2a.751.751,0,1,0,1.5,0v-4.2l.968.976a.754.754,0,1,0,1.066-1.066Z" transform="translate(2.134 1.987)"  />
</svg>
