<svg id="cloud_redo" data-name="cloud redo" xmlns="http://www.w3.org/2000/svg" width="24" height="24" viewBox="0 0 24 24">
  <rect id="Shape" width="24" height="24"   opacity="0"/>
  <path id="cloud-redo" d="M11.755,10.255a.75.75,0,0,0-.683.45,3,3,0,1,0,.413,4.8.75.75,0,1,0-.99-1.125,1.492,1.492,0,1,1-.24-2.438h-.165a.75.75,0,1,0,0,1.5h1.666a.75.75,0,0,0,.75-.75V11.006A.75.75,0,0,0,11.755,10.255Zm2.566-3.586A5.252,5.252,0,0,0,4.3,8.087a3,3,0,0,0-.285,5.747.848.848,0,0,0,.24.038.76.76,0,1,0,.24-1.5A1.474,1.474,0,0,1,5,9.505a.75.75,0,0,0,.75-.75,3.751,3.751,0,0,1,7.3-1.208.75.75,0,0,0,.585.5,2.251,2.251,0,0,1,.75,4.149.753.753,0,0,0,.75,1.305,3.746,3.746,0,0,0-.818-6.835Z" transform="translate(2.994 2.486)"  />
</svg>
