<svg id="cloud_wifi" data-name="cloud wifi" xmlns="http://www.w3.org/2000/svg" width="24" height="24" viewBox="0 0 24 24">
  <rect id="Shape" width="24" height="24" fill="none"  opacity="0"/>
  <path id="cloud-wifi" d="M6.866,5.21a5.322,5.322,0,0,1,5.247,0,.749.749,0,1,0,.75-1.3,6.851,6.851,0,0,0-6.746,0,.749.749,0,1,0,.75,1.3ZM14.3,9.16a4.43,4.43,0,0,0-.27-.532.75.75,0,0,0-1.282.78,3.433,3.433,0,0,1,.285.63.75.75,0,0,0,.585.5A2.246,2.246,0,0,1,13.237,15h-8.5a1.508,1.508,0,0,1,.255-3,.75.75,0,0,0,.75-.75,3.688,3.688,0,0,1,.5-1.866.749.749,0,1,0-1.3-.75,5.06,5.06,0,0,0-.66,1.949,3.011,3.011,0,0,0,.3,5.914h8.65A3.748,3.748,0,0,0,14.3,9.16ZM11.641,7.5V7.459a.69.69,0,0,0,.1-.15.75.75,0,0,0-.427-.967,4.767,4.767,0,0,0-1.3-.285H9.782a4.1,4.1,0,0,0-.607,0,2.249,2.249,0,0,0-.232,0,4.767,4.767,0,0,0-1.3.285.75.75,0,0,0-.4.967.914.914,0,0,0,.09.142.457.457,0,0,0,0,.082.75.75,0,0,0,1.027.27,2.309,2.309,0,0,1,2.249,0,.75.75,0,0,0,1.034-.3ZM8.74,9.753A.75.75,0,1,0,9.49,9,.75.75,0,0,0,8.74,9.753Z" transform="translate(3.025 1.975)" fill="#021d3d"/>
</svg>
