<svg id="cloud_info" data-name="cloud info" xmlns="http://www.w3.org/2000/svg" width="24" height="24" viewBox="0 0 24 24">
  <rect id="Shape" width="24" height="24" fill="none"  opacity="0"/>
  <path id="cloud-info" d="M8.978,10.232a.751.751,0,0,0,.533,1.285h.143a.451.451,0,0,0,.143-.045.421.421,0,0,0,.128-.068l.113-.09a.757.757,0,0,0-1.059-1.082Zm.533,2.036a.751.751,0,0,0-.751.751v2.254a.751.751,0,1,0,1.5,0V13.02A.751.751,0,0,0,9.512,12.269Zm4.824-5.094A5.26,5.26,0,0,0,4.3,8.594,3.006,3.006,0,0,0,5,14.523h1.5a.751.751,0,1,0,0-1.5H5a1.5,1.5,0,0,1,0-3.006.751.751,0,0,0,.751-.751,3.757,3.757,0,0,1,7.311-1.21.751.751,0,0,0,.586.5,2.248,2.248,0,0,1-.383,4.463h-.751a.751.751,0,1,0,0,1.5h.751a3.757,3.757,0,0,0,1.067-7.349Z" transform="translate(3.008 1.986)" fill="#021d3d"/>
</svg>
