<svg id="cloud_bookmark" data-name="cloud bookmark" xmlns="http://www.w3.org/2000/svg" width="24" height="24" viewBox="0 0 24 24">
  <rect id="Shape" width="24" height="24" fill="none" opacity="0.12"/>
  <path id="cloud-bookmark" d="M11.744,9H8a.75.75,0,0,0-.75.75v6a.75.75,0,0,0,1.169.622L9.869,15.4l1.417.945a.747.747,0,0,0,1.207-.592v-6A.75.75,0,0,0,11.744,9Zm-.75,5.338-.7-.472a.75.75,0,0,0-.84,0l-.7.48V10.5h2.249Zm3.314-8.171A5.248,5.248,0,0,0,4.292,7.584,3,3,0,0,0,5,13.5.75.75,0,0,0,5,12,1.5,1.5,0,1,1,5,9a.75.75,0,0,0,.75-.75,3.748,3.748,0,0,1,7.294-1.207.75.75,0,0,0,.585.5,2.249,2.249,0,0,1,.75,4.146.752.752,0,0,0,.75,1.3,3.744,3.744,0,0,0-.817-6.83Z" transform="translate(3.008 1.986)" fill="#021d3d"/>
</svg>
