<svg id="cloud_slash" data-name="cloud slash" xmlns="http://www.w3.org/2000/svg" width="24" height="24" viewBox="0 0 24 24">
  <rect id="Shape" width="24" height="24" fill="none"  opacity="0"/>
  <path id="cloud-slash" d="M12.771,12.81h0l-9.6-9.6A.741.741,0,0,0,2.126,4.261l2.48,2.473a5.168,5.168,0,0,0-.436,1.476,2.953,2.953,0,0,0,.694,5.862h7.08l1.993,2a.741.741,0,1,0,1.048-1.048ZM4.865,12.6a1.476,1.476,0,0,1,0-2.953A.738.738,0,0,0,5.6,8.9a3.691,3.691,0,0,1,.148-1.026L10.468,12.6Zm9.169-5.743A5.168,5.168,0,0,0,9.294,3.737a4.976,4.976,0,0,0-1.713.3A.738.738,0,0,0,8.069,5.42a3.625,3.625,0,0,1,1.225-.207,3.691,3.691,0,0,1,3.492,2.5.738.738,0,0,0,.576.495,2.215,2.215,0,0,1,1.366,3.536.736.736,0,1,0,1.152.915,3.691,3.691,0,0,0-1.846-5.81Z" transform="translate(3.336 2.004)" fill="#021d3d"/>
</svg>
