<svg id="cloud_download" data-name="cloud download" xmlns="http://www.w3.org/2000/svg" width="24" height="24" viewBox="0 0 24 24">
  <rect id="Shape" width="24" height="24"   opacity="0"/>
  <path id="cloud-download" d="M11.224,13.481l-.968.976v-4.2a.751.751,0,0,0-1.5,0v4.2l-.968-.976A.754.754,0,1,0,6.72,14.547L8.972,16.8a.751.751,0,0,0,.248.158.706.706,0,0,0,.571,0,.751.751,0,0,0,.248-.158l2.252-2.252a.754.754,0,0,0-1.066-1.066Zm3.1-8.31A5.255,5.255,0,0,0,4.295,6.59,3,3,0,0,0,5,12.513a.751.751,0,1,0,0-1.5,1.5,1.5,0,0,1,0-3,.751.751,0,0,0,.751-.751,3.754,3.754,0,0,1,7.3-1.209.751.751,0,0,0,.586.5,2.252,2.252,0,0,1,.18,4.384.752.752,0,0,0,.375,1.456,3.754,3.754,0,0,0,.128-7.222Z" transform="translate(3.008 1.986)" />
</svg>
