<svg id="cloud_check" data-name="cloud check" xmlns="http://www.w3.org/2000/svg" width="24" height="24" viewBox="0 0 24 24">
  <rect id="Shape" width="24" height="24" fill="none" opacity="0.12"/>
  <path id="cloud-check" d="M11.247,11.69,8.773,14.164l-.97-.97a.752.752,0,1,0-1.068,1.06l1.5,1.5a.752.752,0,0,0,1.068,0l3.008-3.008a.752.752,0,1,0-1.068-1.06Zm3.105-4.414A5.263,5.263,0,0,0,4.307,8.705a3.008,3.008,0,0,0-.286,5.752A.752.752,0,1,0,4.5,13.051a1.512,1.512,0,0,1,.511-2.932.752.752,0,0,0,.752-.752,3.76,3.76,0,0,1,7.316-1.2.752.752,0,0,0,.586.5,2.256,2.256,0,0,1,.18,4.391.758.758,0,1,0,.188,1.5h.188a3.76,3.76,0,0,0,.128-7.233Z" transform="translate(2.977 1.883)" fill="#021d3d"/>
</svg>
