<svg id="cloud_shiled" data-name="cloud shiled" xmlns="http://www.w3.org/2000/svg" width="24" height="24" viewBox="0 0 24 24">
  <rect id="Shape" width="24" height="24" fill="none" opacity="0.12"/>
  <path id="cloud-shield" d="M14.321,6.169A5.252,5.252,0,0,0,4.3,7.587a3,3,0,0,0-.285,5.747.848.848,0,0,0,.24.038.76.76,0,1,0,.24-1.5A1.474,1.474,0,0,1,5,9.005a.75.75,0,0,0,.75-.75,3.751,3.751,0,0,1,7.3-1.208.75.75,0,0,0,.585.5,2.251,2.251,0,0,1,.75,4.149A.753.753,0,1,0,15.138,13a3.746,3.746,0,0,0-.818-6.835ZM11.6,9.5a2.048,2.048,0,0,1-1.651-.353.75.75,0,0,0-.885,0A2.041,2.041,0,0,1,7.411,9.5a.749.749,0,0,0-.908.728v2.528a3.474,3.474,0,0,0,1.38,2.776l1.178.863a.75.75,0,0,0,.885,0l1.178-.87a3.451,3.451,0,0,0,1.38-2.768V10.228A.749.749,0,0,0,11.6,9.5ZM11,12.756a1.966,1.966,0,0,1-.75,1.5l-.75.54-.75-.54a1.966,1.966,0,0,1-.75-1.5V11.046a3.511,3.511,0,0,0,1.5-.413,3.511,3.511,0,0,0,1.5.413Z" transform="translate(2.994 1.988)" fill="#021d3d"/>
</svg>
