<svg id="cloud_database_tree" data-name="cloud database tree" xmlns="http://www.w3.org/2000/svg" width="24" height="24" viewBox="0 0 24 24">
  <rect id="Shape" width="24" height="24" fill="none" opacity="0.12"/>
  <path id="cloud-database-tree" d="M16.506,10.8a1.429,1.429,0,0,0-1.429-1.429H10.79A1.429,1.429,0,0,0,9.361,10.8H7.218V8.654H8.883A2.615,2.615,0,0,0,9.719,3.56a3.573,3.573,0,0,0-6.738.915,2.144,2.144,0,0,0,.664,4.18H5.789V14.37a.715.715,0,0,0,.715.715H9.361a1.429,1.429,0,0,0,1.429,1.429h4.287a1.429,1.429,0,0,0,1.429-1.429V13.656a1.429,1.429,0,0,0-.2-.715,1.429,1.429,0,0,0,.2-.715ZM3.645,7.225a.715.715,0,0,1,0-1.429.715.715,0,0,0,.715-.715,2.144,2.144,0,0,1,4.173-.715.715.715,0,0,0,.557.472,1.179,1.179,0,0,1,.986,1.193A1.193,1.193,0,0,1,8.883,7.225Zm5.716,6.431H7.218V12.227H9.361a1.429,1.429,0,0,0,.2.715,1.429,1.429,0,0,0-.2.715Zm1.429,1.429V13.656h4.287v1.429Zm0-2.858V10.8h4.287v1.429Z" transform="translate(3.494 3.469)" fill="#021d3d"/>
</svg>
