<svg id="cloud_times" data-name="cloud times" xmlns="http://www.w3.org/2000/svg" width="24" height="24" viewBox="0 0 24 24">
  <rect id="Shape" width="24" height="24" fill="none"  opacity="0"/>
  <path id="cloud-times" d="M14.324,7.171A5.255,5.255,0,0,0,4.295,8.59,3,3,0,0,0,5,14.513a.751.751,0,1,0,0-1.5,1.5,1.5,0,0,1,0-3,.751.751,0,0,0,.751-.751,3.754,3.754,0,0,1,7.3-1.209.751.751,0,0,0,.586.5,2.252,2.252,0,0,1,.18,4.384.752.752,0,1,0,.375,1.456,3.754,3.754,0,0,0,.128-7.222Zm-2.785,4.557a.751.751,0,0,0-1.066,0L9.5,12.7l-.968-.976A.754.754,0,0,0,7.47,12.794l.976.968-.976.968A.754.754,0,1,0,8.536,15.8l.968-.976.968.976a.754.754,0,1,0,1.066-1.066l-.976-.968.976-.968a.751.751,0,0,0,0-1.066Z" transform="translate(3.008 1.984)" fill="#021d3d"/>
</svg>
