<svg id="cloud_key" width="24" height="24" viewBox="0 0 24 24" fill="none" xmlns="http://www.w3.org/2000/svg">
  <path d="M17.314 8.155C16.8548 7.1029 16.0636 6.2302 15.0614 5.67045C14.0592 5.11069 12.9012 4.89471 11.7646 5.05554C10.628 5.21637 9.57537 5.74517 8.76781 6.56101C7.96025 7.37685 7.44223 8.43481 7.293 9.573C6.6639 9.72546 6.10099 10.0773 5.68831 10.576C5.27562 11.0747 5.03531 11.6935 5.00325 12.34C4.97119 12.9865 5.1491 13.6261 5.51041 14.1632C5.87173 14.7002 6.39707 15.106 7.008 15.32C7.08576 15.3441 7.16659 15.3569 7.248 15.358C7.34813 15.3776 7.45118 15.3769 7.55101 15.3558C7.65085 15.3347 7.74542 15.2938 7.82909 15.2354C7.91276 15.177 7.98381 15.1024 8.03801 15.0159C8.09222 14.9295 8.12846 14.833 8.14458 14.7323C8.1607 14.6315 8.15637 14.5285 8.13184 14.4295C8.10732 14.3305 8.0631 14.2374 8.00183 14.1558C7.94056 14.0742 7.86348 14.0058 7.7752 13.9546C7.68693 13.9035 7.58925 13.8706 7.488 13.858C7.15657 13.7435 6.87682 13.5146 6.69898 13.2124C6.52115 12.9102 6.45687 12.5544 6.5177 12.2091C6.57853 11.8638 6.76047 11.5514 7.03087 11.3282C7.30126 11.1049 7.64239 10.9854 7.993 10.991C8.19191 10.991 8.38268 10.912 8.52333 10.7713C8.66398 10.6307 8.743 10.4399 8.743 10.241C8.74449 9.35342 9.06068 8.49513 9.63535 7.8187C10.21 7.14228 11.0059 6.69155 11.8816 6.54664C12.7573 6.40174 13.656 6.57204 14.4179 7.02729C15.1798 7.48253 15.7557 8.19322 16.043 9.033C16.0862 9.16141 16.1635 9.27571 16.2665 9.36375C16.3695 9.45179 16.4944 9.51028 16.628 9.533C17.0791 9.61479 17.4944 9.83236 17.8185 10.1566C18.1426 10.4809 18.3599 10.8963 18.4415 11.3475C18.523 11.7986 18.4649 12.2639 18.2749 12.6811C18.0848 13.0982 17.7719 13.4475 17.378 13.682C17.2119 13.7849 17.0924 13.9484 17.0446 14.1378C16.9968 14.3272 17.0245 14.5278 17.1219 14.6972C17.2192 14.8666 17.3786 14.9915 17.5663 15.0456C17.7541 15.0997 17.9555 15.0787 18.128 14.987C18.762 14.6199 19.2744 14.075 19.6019 13.4197C19.9294 12.7644 20.0575 12.0274 19.9704 11.3001C19.8834 10.5727 19.585 9.88676 19.1121 9.32723C18.6392 8.7677 18.0127 8.3591 17.31 8.152L17.314 8.155Z" fill="currentColor" />
  <path d="M13.719 18.976V15.091C14.3393 14.8717 14.8621 14.4402 15.1951 13.8727C15.528 13.3053 15.6496 12.6384 15.5383 11.9899C15.4271 11.3415 15.0902 10.7532 14.5872 10.3291C14.0842 9.90504 13.4474 9.67245 12.7895 9.67245C12.1316 9.67245 11.4948 9.90504 10.9918 10.3291C10.4888 10.7532 10.1519 11.3415 10.0406 11.9899C9.92941 12.6384 10.051 13.3053 10.3839 13.8727C10.7169 14.4402 11.2397 14.8717 11.86 15.091V15.254L10.93 16.184L11.86 17.114L10.93 18.044L12.808 19.902L13.719 18.976ZM11.395 12.465C11.395 12.1893 11.4768 11.9198 11.6299 11.6905C11.7831 11.4613 12.0008 11.2826 12.2555 11.1771C12.5103 11.0716 12.7905 11.044 13.061 11.0978C13.3314 11.1516 13.5798 11.2843 13.7747 11.4793C13.9697 11.6742 14.1024 11.9226 14.1562 12.193C14.21 12.4635 14.1824 12.7437 14.0769 12.9985C13.9714 13.2532 13.7927 13.4709 13.5635 13.6241C13.3342 13.7772 13.0647 13.859 12.789 13.859C12.4198 13.8574 12.0661 13.71 11.805 13.449C11.544 13.1879 11.3966 12.8342 11.395 12.465Z" fill="currentColor" />
</svg>
  