<svg id="Comments" xmlns="http://www.w3.org/2000/svg" width="24" height="24" viewBox="0 0 24 24">
  <rect id="Shape" width="24" height="24"  opacity="0"/>
  <path id="Comments-2" data-name="Comments" d="M15.947,14.883A5.247,5.247,0,0,0,13.893,6.96,6,6,0,1,0,3.256,11.675L2.214,12.709a.754.754,0,0,0,.532,1.282H7.012a5.247,5.247,0,0,0,4.73,3h4.5a.754.754,0,0,0,.532-1.282ZM6.495,11.742a4.97,4.97,0,0,0,.06.75h-2l.262-.255a.75.75,0,0,0,0-1.064A4.445,4.445,0,0,1,3.5,7.994a4.5,4.5,0,0,1,4.5-4.5,4.453,4.453,0,0,1,4.235,3h-.487a5.247,5.247,0,0,0-5.247,5.247Zm7.9,3.748.037.037H11.742A3.748,3.748,0,1,1,14.4,14.433a.733.733,0,0,0,0,1.057Z" transform="translate(2.512 2.509)"  />
</svg>
