<svg id="Copy" xmlns="http://www.w3.org/2000/svg" width="24" height="24" viewBox="0 0 24 24">
  <rect id="Shape" width="24" height="24"  opacity="0"/>
  <path id="Copy-2" data-name="Copy" d="M16.5,7.205a.982.982,0,0,0-.045-.2V6.935a.8.8,0,0,0-.142-.21h0l-4.5-4.5h0a.8.8,0,0,0-.21-.143.24.24,0,0,0-.067,0A.66.66,0,0,0,11.288,2H8.25A2.25,2.25,0,0,0,6,4.25V5H5.25A2.25,2.25,0,0,0,3,7.25v7.5A2.25,2.25,0,0,0,5.25,17h6a2.25,2.25,0,0,0,2.25-2.25V14h.75a2.25,2.25,0,0,0,2.25-2.25V7.205ZM12,4.558,13.943,6.5H12.75A.75.75,0,0,1,12,5.75ZM12,14.75a.75.75,0,0,1-.75.75h-6a.75.75,0,0,1-.75-.75V7.25a.75.75,0,0,1,.75-.75H6v5.25A2.25,2.25,0,0,0,8.25,14H12Zm3-3a.75.75,0,0,1-.75.75h-6a.75.75,0,0,1-.75-.75V4.25a.75.75,0,0,1,.75-.75H10.5V5.75A2.25,2.25,0,0,0,12.75,8H15Z" transform="translate(2.249 2.5)"  />
</svg>
