<svg id="Deselect" xmlns="http://www.w3.org/2000/svg" width="24" height="24" viewBox="0 0 24 24">
  <rect id="Shape" width="24" height="24" fill="#021d3d" opacity="0"/>
  <path id="Bulkedit_select_all" data-name="Bulkedit select all" d="M14.75,2H4.25A2.25,2.25,0,0,0,2,4.25v10.5A2.25,2.25,0,0,0,4.25,17h10.5A2.25,2.25,0,0,0,17,14.75V4.25A2.25,2.25,0,0,0,14.75,2Zm.75,12.75a.75.75,0,0,1-.75.75H4.25a.75.75,0,0,1-.75-.75V4.25a.75.75,0,0,1,.75-.75h10.5a.75.75,0,0,1,.75.75Zm-3-6h-6a.75.75,0,0,0,0,1.5h6a.75.75,0,0,0,0-1.5Z" transform="translate(2.5 2.5)" fill="#021d3d"/>
</svg>
