<svg id="Doc_edit" data-name="Doc edit" xmlns="http://www.w3.org/2000/svg" width="24" height="24" viewBox="0 0 24 24">
  <rect id="Shape" width="24" height="24" fill="none"  opacity="0"/>
  <path id="file-edit-alt" d="M16.282,13.032l-1.815-1.815a.75.75,0,0,0-1.065,0L10.717,13.9a.75.75,0,0,0-.217.532V16.25a.75.75,0,0,0,.75.75h1.815a.75.75,0,0,0,.532-.217L16.282,14.1a.75.75,0,0,0,0-1.065ZM12.75,15.5H12v-.75l1.935-1.935.75.75Zm-4.5,0h-3a.75.75,0,0,1-.75-.75V4.25a.75.75,0,0,1,.75-.75H9V5.75A2.25,2.25,0,0,0,11.25,8H13.5v.75a.75.75,0,1,0,1.5,0V7.2a.983.983,0,0,0-.045-.2V6.935a.8.8,0,0,0-.142-.21h0l-4.5-4.5h0a.8.8,0,0,0-.21-.142.24.24,0,0,0-.068,0L9.795,2H5.25A2.25,2.25,0,0,0,3,4.25v10.5A2.25,2.25,0,0,0,5.25,17h3a.75.75,0,0,0,0-1.5ZM10.5,4.557,12.442,6.5H11.25a.75.75,0,0,1-.75-.75ZM6.75,11h4.5a.75.75,0,1,0,0-1.5H6.75a.75.75,0,1,0,0,1.5Zm0-3H7.5a.75.75,0,0,0,0-1.5H6.75a.75.75,0,1,0,0,1.5Zm1.5,4.5H6.75a.75.75,0,1,0,0,1.5h1.5a.75.75,0,0,0,0-1.5Z" transform="translate(2 3)" fill="#021d3d"/>
</svg>
