<svg id="Doc_check" data-name="Doc check" xmlns="http://www.w3.org/2000/svg" width="24" height="24" viewBox="0 0 24 24">
  <rect id="Shape" width="24" height="24" fill="none" opacity="0.12"/>
  <path id="file-check-alt" d="M9.248,15.5h-4.5a.75.75,0,0,1-.75-.75V4.249a.75.75,0,0,1,.75-.75H8.5V5.749A2.249,2.249,0,0,0,10.748,8H13v3.749a.75.75,0,0,0,1.5,0V7.2a.982.982,0,0,0-.045-.2V6.934a.8.8,0,0,0-.142-.21h0l-4.5-4.5h0a.8.8,0,0,0-.21-.142.217.217,0,0,0-.075,0A.825.825,0,0,0,9.293,2H4.749A2.249,2.249,0,0,0,2.5,4.249v10.5A2.249,2.249,0,0,0,4.749,17h4.5a.75.75,0,0,0,0-1.5ZM10,4.557,11.94,6.5H10.748a.75.75,0,0,1-.75-.75ZM6.249,11h4.5a.75.75,0,0,0,0-1.5h-4.5a.75.75,0,1,0,0,1.5Zm3,1.5h-3a.75.75,0,0,0,0,1.5h3a.75.75,0,1,0,0-1.5Zm-3-4.5H7A.75.75,0,1,0,7,6.5h-.75a.75.75,0,0,0,0,1.5Zm10.28,4.716a.75.75,0,0,0-1.065,0L13,15.189l-.967-.975a.753.753,0,1,0-1.065,1.065l1.5,1.5a.75.75,0,0,0,1.065,0l3-3a.75.75,0,0,0,0-1.065Z" transform="translate(2.5 3)" fill="#021d3d"/>
</svg>
