<svg id="Doc_error" data-name="Doc error" xmlns="http://www.w3.org/2000/svg" width="24" height="24" viewBox="0 0 24 24">
  <rect id="Shape" width="24" height="24" fill="none" opacity="0.12"/>
  <path id="file-exclamation-alt" d="M7.748,8H8.5a.75.75,0,1,0,0-1.5h-.75a.75.75,0,1,0,0,1.5Zm4.5,1.5h-4.5a.75.75,0,1,0,0,1.5h4.5a.75.75,0,1,0,0-1.5Zm0,3h-4.5a.75.75,0,0,0,0,1.5h4.5a.75.75,0,1,0,0-1.5Zm3.53,3.216a1.184,1.184,0,0,0-.112-.09.57.57,0,0,0-.135-.067l-.135-.06a.75.75,0,0,0-.435.045.675.675,0,0,0-.4.4.63.63,0,0,0-.06.3.75.75,0,1,0,1.439-.285.862.862,0,0,0-.157-.247ZM15.993,7.2a.982.982,0,0,0-.045-.2V6.932a.8.8,0,0,0-.142-.21h0l-4.5-4.5h0a.8.8,0,0,0-.21-.142.24.24,0,0,0-.067,0A.66.66,0,0,0,10.784,2H6.249A2.249,2.249,0,0,0,4,4.249V14.742a2.249,2.249,0,0,0,2.249,2.249h6a.75.75,0,1,0,0-1.5h-6a.75.75,0,0,1-.75-.75V4.249a.75.75,0,0,1,.75-.75H10V5.748A2.249,2.249,0,0,0,12.245,8h2.249V9.5a.75.75,0,1,0,1.5,0V7.2Zm-3.748-.7a.75.75,0,0,1-.75-.75V4.556L13.437,6.5Zm3,5.247a.75.75,0,0,0-.75.75v1.5a.75.75,0,0,0,1.5,0v-1.5A.75.75,0,0,0,15.243,11.744Z" transform="translate(2 3)" fill="#021d3d"/>
</svg>
