<svg id="Doc_download" data-name="Doc download" xmlns="http://www.w3.org/2000/svg" width="24" height="24" viewBox="0 0 24 24">
  <rect id="Shape" width="24" height="24" fill="none"  opacity="0"/>
  <path id="file-download-alt" d="M6.75,6.5a.75.75,0,0,0,0,1.5H7.5a.75.75,0,0,0,0-1.5Zm3.75,9H5.25a.75.75,0,0,1-.75-.75V4.25a.75.75,0,0,1,.75-.75H9V5.75A2.25,2.25,0,0,0,11.25,8H13.5V9.5a.75.75,0,0,0,1.5,0V7.2a.983.983,0,0,0-.045-.2V6.935a.8.8,0,0,0-.142-.21h0l-4.5-4.5h0a.8.8,0,0,0-.21-.142.217.217,0,0,0-.075,0A.825.825,0,0,0,9.795,2H5.25A2.25,2.25,0,0,0,3,4.25v10.5A2.25,2.25,0,0,0,5.25,17H10.5a.75.75,0,1,0,0-1.5Zm0-10.942L12.442,6.5H11.25a.75.75,0,0,1-.75-.75ZM11.25,9.5H6.75a.75.75,0,0,0,0,1.5h4.5a.75.75,0,0,0,0-1.5Zm5.032,4.717a.75.75,0,0,0-1.065,0L15,14.442V12.5a.75.75,0,1,0-1.5,0v1.942l-.217-.225a.753.753,0,1,0-1.065,1.065l1.5,1.5a.75.75,0,0,0,.247.157.7.7,0,0,0,.57,0,.75.75,0,0,0,.247-.157l1.5-1.5a.75.75,0,0,0,0-1.065ZM9.75,14a.75.75,0,0,0,0-1.5h-3a.75.75,0,1,0,0,1.5Z" transform="translate(2 3)" fill="#021d3d"/>
</svg>
