<svg id="Doc_blocked" data-name="Doc blocked" xmlns="http://www.w3.org/2000/svg" width="24" height="24" viewBox="0 0 24 24">
  <rect id="Shape" width="24" height="24"   opacity="0"/>
  <path id="file-block-alt" d="M5.75,6.5a.75.75,0,0,0,0,1.5H6.5a.75.75,0,0,0,0-1.5Zm3.75,9H4.25a.75.75,0,0,1-.75-.75V4.25a.75.75,0,0,1,.75-.75H8V5.75A2.25,2.25,0,0,0,10.25,8H12.5v.75a.75.75,0,0,0,1.5,0V7.2a.983.983,0,0,0-.045-.2V6.935a.8.8,0,0,0-.142-.21h0l-4.5-4.5h0a.8.8,0,0,0-.21-.142.24.24,0,0,0-.067,0L8.8,2H4.25A2.25,2.25,0,0,0,2,4.25v10.5A2.25,2.25,0,0,0,4.25,17H9.5a.75.75,0,0,0,0-1.5Zm0-10.943L11.443,6.5H10.25a.75.75,0,0,1-.75-.75Zm6.622,7.32a3.075,3.075,0,0,0-4.245,0,3,3,0,1,0,4.245,0ZM12.5,14A1.5,1.5,0,0,1,14,12.5a1.567,1.567,0,0,1,.382.052l-1.83,1.83A1.567,1.567,0,0,1,12.5,14Zm2.557,1.057a1.5,1.5,0,0,1-1.432.375l1.823-1.815A1.567,1.567,0,0,1,15.5,14,1.5,1.5,0,0,1,15.057,15.057ZM8.75,14a.75.75,0,0,0,0-1.5h-3a.75.75,0,0,0,0,1.5Zm1.5-4.5H5.75a.75.75,0,0,0,0,1.5h4.5a.75.75,0,0,0,0-1.5Z" transform="translate(3 3)"  />
</svg>
