<svg id="Doc" xmlns="http://www.w3.org/2000/svg" width="24" height="24" viewBox="0 0 24 24">
  <rect id="Shape" width="24" height="24" fill="none" opacity="0.12"/>
  <path id="file-alt" d="M7.75,8H8.5a.75.75,0,0,0,0-1.5H7.75a.75.75,0,0,0,0,1.5Zm0,1.5a.75.75,0,0,0,0,1.5h4.5a.75.75,0,0,0,0-1.5ZM16,7.2a.983.983,0,0,0-.045-.2V6.935a.8.8,0,0,0-.142-.21h0l-4.5-4.5h0a.8.8,0,0,0-.21-.142.24.24,0,0,0-.067,0A.66.66,0,0,0,10.788,2H6.25A2.25,2.25,0,0,0,4,4.25v10.5A2.25,2.25,0,0,0,6.25,17h7.5A2.25,2.25,0,0,0,16,14.75V7.2ZM11.5,4.557,13.443,6.5H12.25a.75.75,0,0,1-.75-.75Zm3,10.193a.75.75,0,0,1-.75.75H6.25a.75.75,0,0,1-.75-.75V4.25a.75.75,0,0,1,.75-.75H10V5.75A2.25,2.25,0,0,0,12.25,8H14.5ZM12.25,12.5H7.75a.75.75,0,0,0,0,1.5h4.5a.75.75,0,0,0,0-1.5Z" transform="translate(2 3)" fill="#021d3d"/>
</svg>
