<svg id="download_circle_filled" data-name="download circle filled" xmlns="http://www.w3.org/2000/svg" width="24" height="24" viewBox="0 0 24 24">
  <g id="Shape" opacity="0">
    <rect id="Shape-2" data-name="Shape" width="24" height="24" fill="#021d3d" opacity="0"/>
  </g>
  <path id="Subtraction_29" data-name="Subtraction 29" d="M21897.5,17692a7.5,7.5,0,1,1,7.5-7.5A7.51,7.51,0,0,1,21897.5,17692Zm-2.252-8.254a.747.747,0,0,0-.535.223.76.76,0,0,0,0,1.066l2.254,2.248a.713.713,0,0,0,.248.154.727.727,0,0,0,.285.055.758.758,0,0,0,.281-.055.82.82,0,0,0,.252-.154l2.248-2.248a.778.778,0,0,0,.221-.533.762.762,0,0,0-.221-.533.754.754,0,0,0-1.066,0l-.967.973v-2.693a.751.751,0,0,0-1.5,0v2.693l-.967-.973A.729.729,0,0,0,21895.25,17683.746Z" transform="translate(-21885.5 -17672.5)" fill="#021d3d"/>
</svg>
