<svg id="Download" xmlns="http://www.w3.org/2000/svg" width="24" height="24" viewBox="0 0 24 24">
  <rect id="Shape" width="24" height="24"  opacity="0"/>
  <path id="Download-2" data-name="Download" d="M6.967,10.467a.75.75,0,0,0,0,1.065l2.25,2.25a.75.75,0,0,0,1.065,0l2.25-2.25a.753.753,0,1,0-1.065-1.065l-.968.975V2.75a.75.75,0,1,0-1.5,0v8.692l-.968-.975a.75.75,0,0,0-1.065,0ZM14.25,7.25h-1.5a.75.75,0,1,0,0,1.5h1.5A.75.75,0,0,1,15,9.5v5.25a.75.75,0,0,1-.75.75h-9a.75.75,0,0,1-.75-.75V9.5a.75.75,0,0,1,.75-.75h1.5a.75.75,0,1,0,0-1.5H5.25A2.25,2.25,0,0,0,3,9.5v5.25A2.25,2.25,0,0,0,5.25,17h9a2.25,2.25,0,0,0,2.25-2.25V9.5A2.25,2.25,0,0,0,14.25,7.25Z" transform="translate(2.25 2.5)"  />
</svg>
