<svg id="EditIp" width="24" height="24" viewBox="0 0 24 24" fill="none" xmlns="http://www.w3.org/2000/svg">
  <path d="M13.084 13.8H9.06199V9.84L13.62 5.352C12.9367 5.12187 12.2209 5.00302 11.5 5C10.638 4.98808 9.78249 5.15007 8.98453 5.47628C8.18658 5.80249 7.46259 6.28623 6.85583 6.89859C6.24907 7.51095 5.772 8.23936 5.45313 9.04028C5.13427 9.84119 4.98015 10.6982 4.99999 11.56C4.99999 14.216 7.16666 17.3627 11.5 21C15.8333 17.36 18 14.2133 18 11.56C18.0032 10.7982 17.8795 10.0412 17.634 9.32L13.084 13.8Z"/>
  <path d="M8.99899 14H11.119L17.279 7.84L15.159 5.72L8.99899 11.88V14Z"/>
  <path d="M18.709 5L17.999 4.29C17.8088 4.10501 17.5543 4.00104 17.289 4C17.0266 4.01491 16.7768 4.11697 16.579 4.29L15.859 5.01L17.979 7.13L18.699 6.41C18.7934 6.31877 18.8687 6.20961 18.9204 6.08891C18.9722 5.96822 18.9993 5.83841 19.0002 5.7071C19.0012 5.57579 18.9759 5.44561 18.9259 5.3242C18.8759 5.20278 18.8021 5.09256 18.709 5V5Z"/>
</svg>