<svg id="Email" xmlns="http://www.w3.org/2000/svg" width="24" height="24" viewBox="0 0 24 24">
  <rect id="Shape" width="24" height="24"  opacity="0"/>
  <path id="Submitted" d="M14.75,4H4.25A2.25,2.25,0,0,0,2,6.25v7.5A2.25,2.25,0,0,0,4.25,16h10.5A2.25,2.25,0,0,0,17,13.75V6.25A2.25,2.25,0,0,0,14.75,4Zm-.307,1.5-4.41,4.41a.75.75,0,0,1-1.065,0L4.558,5.5ZM15.5,13.75a.75.75,0,0,1-.75.75H4.25a.75.75,0,0,1-.75-.75V6.558l4.41,4.41a2.25,2.25,0,0,0,3.18,0l4.41-4.41Z" transform="translate(2.5 2)"  />
</svg>
