<svg id="Email_confirmd" data-name="Email confirmd" xmlns="http://www.w3.org/2000/svg" width="24" height="24" viewBox="0 0 24 24">
  <rect id="Shape" width="24" height="24" fill="#021d3d" opacity="0"/>
  <path id="Confirmed" d="M12.715,7.281a.75.75,0,0,0,1.065,0l3-3a.753.753,0,1,0-1.065-1.065L13.248,5.691l-.967-.975a.753.753,0,0,0-1.065,1.065Zm3.532-.532a.75.75,0,0,0-.75.75v6.749a.75.75,0,0,1-.75.75H4.25a.75.75,0,0,1-.75-.75V7.056l4.409,4.417a2.25,2.25,0,0,0,1.582.652,2.31,2.31,0,0,0,1.62-.675l1.29-1.29A.753.753,0,0,0,11.336,9.1l-1.312,1.312a.75.75,0,0,1-1.05,0L4.557,6H8.749a.75.75,0,1,0,0-1.5H4.25A2.25,2.25,0,0,0,2,6.748v7.5A2.25,2.25,0,0,0,4.25,16.5h10.5A2.25,2.25,0,0,0,17,14.247V7.5A.75.75,0,0,0,16.247,6.748Z" transform="translate(2.5 1.503)" fill="#021d3d"/>
</svg>
