<svg id="error_circle_filled" data-name="error circle filled" xmlns="http://www.w3.org/2000/svg" width="24" height="24" viewBox="0 0 24 24">
  <rect id="Shape" width="24" height="24" fill="#021d3d" opacity="0"/>
  <path id="Subtraction_25" data-name="Subtraction 25" d="M21897.5,17692a7.5,7.5,0,1,1,7.5-7.5A7.51,7.51,0,0,1,21897.5,17692Zm0-5.244a.742.742,0,0,0-.754.742.8.8,0,0,0,.221.533.737.737,0,0,0,.248.158.7.7,0,0,0,.285.061.723.723,0,0,0,.281-.061.849.849,0,0,0,.252-.158.838.838,0,0,0,.154-.248.652.652,0,0,0,.061-.285.774.774,0,0,0-.215-.533.927.927,0,0,0-.252-.154A.729.729,0,0,0,21897.5,17686.756Zm0-6a.752.752,0,0,0-.754.748v3a.751.751,0,0,0,1.5,0v-3A.749.749,0,0,0,21897.5,17680.752Z" transform="translate(-21885.5 -17672.5)" fill="#021d3d"/>
</svg>
