<svg id="error_circle_outlined" data-name="error circle outlined" xmlns="http://www.w3.org/2000/svg" width="24" height="24" viewBox="0 0 24 24">
  <rect id="Shape" width="24" height="24" fill="#021d3d" opacity="0"/>
  <path id="Error" d="M7.5,6.75a.75.75,0,0,0-.75.75v3a.75.75,0,0,0,1.5,0v-3A.75.75,0,0,0,7.5,6.75Zm.285-2.94a.775.775,0,0,0-.818.158.863.863,0,0,0-.158.248.63.63,0,0,0-.06.285.75.75,0,0,0,.218.532.862.862,0,0,0,.248.158A.75.75,0,0,0,8.25,4.5a.788.788,0,0,0-.217-.532A.75.75,0,0,0,7.785,3.81ZM7.5,0A7.5,7.5,0,1,0,15,7.5,7.5,7.5,0,0,0,7.5,0Zm0,13.5a6,6,0,1,1,6-6A6,6,0,0,1,7.5,13.5Z" transform="translate(19.5 19.5) rotate(180)" fill="#021d3d"/>
</svg>
