<svg id="expand_alt" data-name="expand alt" xmlns="http://www.w3.org/2000/svg" width="24" height="24" viewBox="0 0 24 24">
  <rect id="Shape" width="24" height="24" fill="none" opacity="0.12"/>
  <path id="expand-arrows" d="M16.25,6.5A.75.75,0,0,0,17,5.75v-3A.762.762,0,0,0,16.25,2h-3a.75.75,0,0,0,0,1.5h1.193L9.5,8.443,4.558,3.5H5.75a.75.75,0,0,0,0-1.5h-3A.762.762,0,0,0,2,2.75v3a.75.75,0,0,0,1.5,0V4.558L8.443,9.5,3.5,14.443V13.25a.75.75,0,0,0-1.5,0v3a.762.762,0,0,0,.75.75h3a.75.75,0,0,0,0-1.5H4.558L9.5,10.557,14.443,15.5H13.25a.75.75,0,0,0,0,1.5h3a.762.762,0,0,0,.75-.75v-3a.75.75,0,0,0-1.5,0v1.193L10.557,9.5,15.5,4.558V5.75A.75.75,0,0,0,16.25,6.5Z" transform="translate(3 3)" fill="#021d3d"/>
</svg>
