<svg id="export_alt" data-name="export alt" xmlns="http://www.w3.org/2000/svg" width="24" height="24" viewBox="0 0 24 24">
  <rect id="Shape" width="24" height="24"  opacity="0"/>
  <path id="Export" d="M7.034,6.285,8.752,4.559v7.194a.75.75,0,0,0,1.5,0V4.559L11.97,6.285A.753.753,0,1,0,13.035,5.22l-3-3a.776.776,0,0,0-1.065,0l-3,3A.753.753,0,0,0,7.034,6.285ZM16.254,11a.75.75,0,0,0-.75.75v3a.75.75,0,0,1-.75.75H4.251a.75.75,0,0,1-.75-.75v-3a.75.75,0,1,0-1.5,0v3A2.251,2.251,0,0,0,4.251,17h10.5A2.251,2.251,0,0,0,17,14.754v-3A.75.75,0,0,0,16.254,11Z" transform="translate(2.5 2.494)"  />
</svg>
