<svg id="extarnal_link" data-name="extarnal link" xmlns="http://www.w3.org/2000/svg" width="24" height="24" viewBox="0 0 24 24">
  <rect id="Shape" width="24" height="24"   opacity="0"/>
  <path id="external-link-alt" d="M14,8.615a.75.75,0,0,0-.75.75V14.75a.75.75,0,0,1-.75.75H4.25a.75.75,0,0,1-.75-.75V6.5a.75.75,0,0,1,.75-.75H9.635a.75.75,0,1,0,0-1.5H4.25A2.25,2.25,0,0,0,2,6.5v8.25A2.25,2.25,0,0,0,4.25,17H12.5a2.25,2.25,0,0,0,2.25-2.25V9.365A.75.75,0,0,0,14,8.615Zm2.94-6.15A.762.762,0,0,0,16.25,2h-4.5a.75.75,0,1,0,0,1.5h2.693L6.718,11.217a.753.753,0,1,0,1.065,1.065L15.5,4.558V7.25a.75.75,0,0,0,1.5,0V2.75A.75.75,0,0,0,16.94,2.465Z" transform="translate(3 3)"  />
</svg>
