<svg id="Fatal_Error" data-name="Fatal Error" xmlns="http://www.w3.org/2000/svg" width="24" height="24" viewBox="0 0 24 24">
  <rect id="Shape" width="24" height="24" fill="#021d3d" opacity="0"/>
  <path id="exclamation-octagon" d="M9.5,5.75a.75.75,0,0,0-.75.75v3a.75.75,0,1,0,1.5,0v-3A.75.75,0,0,0,9.5,5.75Zm0,6a.75.75,0,1,0,.75.75A.75.75,0,0,0,9.5,11.75Zm7.282-5.58L12.83,2.217A.787.787,0,0,0,12.3,2H6.7a.788.788,0,0,0-.532.217L2.217,6.17A.787.787,0,0,0,2,6.7V12.3a.787.787,0,0,0,.217.532L6.17,16.782A.787.787,0,0,0,6.7,17H12.3a.787.787,0,0,0,.532-.217l3.952-3.953A.787.787,0,0,0,17,12.3V6.7a.787.787,0,0,0-.217-.533ZM15.5,11.982,11.982,15.5H7.017L3.5,11.982V7.017L7.017,3.5h4.965L15.5,7.017Z" transform="translate(3 3)" fill="#021d3d"/>
</svg>
