<svg id="fatal_error_circle_filled" data-name="fatal error circle filled" xmlns="http://www.w3.org/2000/svg" width="24" height="24" viewBox="0 0 24 24">
  <rect id="Shape" width="24" height="24" fill="#021d3d" opacity="0"/>
  <path id="Subtraction_31" data-name="Subtraction 31" d="M20852.295,17452h-5.592a.762.762,0,0,1-.533-.219l-3.951-3.953a.807.807,0,0,1-.221-.533v-5.59a.816.816,0,0,1,.221-.535l3.951-3.951a.817.817,0,0,1,.533-.221h5.592a.794.794,0,0,1,.533.221l3.957,3.951a.78.78,0,0,1,.215.535v5.59a.772.772,0,0,1-.215.533l-3.957,3.953A.742.742,0,0,1,20852.295,17452Zm-2.795-5.25a.749.749,0,1,0,.748.748A.75.75,0,0,0,20849.5,17446.75Zm0-6a.75.75,0,0,0-.75.748v3a.749.749,0,0,0,1.5,0v-3A.749.749,0,0,0,20849.5,17440.752Z" transform="translate(-20837 -17432)" fill="#021d3d"/>
</svg>
