<svg id="Feedback" xmlns="http://www.w3.org/2000/svg" width="24" height="24" viewBox="0 0 24 24">
  <rect id="Shape" width="24" height="24"  opacity="0"/>
  <path id="comment-alt-lines" d="M10.25,8.75H5.75a.75.75,0,0,0,0,1.5h4.5a.75.75,0,0,0,0-1.5Zm3-3H5.75a.75.75,0,0,0,0,1.5h7.5a.75.75,0,0,0,0-1.5ZM14.75,2H4.25A2.25,2.25,0,0,0,2,4.25v7.5A2.25,2.25,0,0,0,4.25,14h8.692l2.775,2.782A.75.75,0,0,0,16.25,17a.63.63,0,0,0,.285-.06A.75.75,0,0,0,17,16.25v-12A2.25,2.25,0,0,0,14.75,2Zm.75,12.442-1.717-1.725a.75.75,0,0,0-.532-.217h-9a.75.75,0,0,1-.75-.75V4.25a.75.75,0,0,1,.75-.75h10.5a.75.75,0,0,1,.75.75Z" transform="translate(2.5 2.5)"  />
</svg>
