<svg id="File_chart" data-name="File chart" xmlns="http://www.w3.org/2000/svg" width="24" height="24" viewBox="0 0 24 24">
  <rect id="Shape" width="24" height="24"  opacity="0.12"/>
  <path id="file-medical-alt" d="M14.25,14a.75.75,0,0,0-.75.75.75.75,0,0,1-.75.75H5.25a.75.75,0,0,1-.75-.75V4.25a.75.75,0,0,1,.75-.75H9V5.75A2.25,2.25,0,0,0,11.25,8H13.5v.75a.75.75,0,0,0,1.5,0V7.2a.983.983,0,0,0-.045-.2.24.24,0,0,0,0-.068.8.8,0,0,0-.142-.21h0l-4.5-4.5h0a.8.8,0,0,0-.21-.142h-.075A.855.855,0,0,0,9.8,2H5.25A2.25,2.25,0,0,0,3,4.25v10.5A2.25,2.25,0,0,0,5.25,17h7.5A2.25,2.25,0,0,0,15,14.75.75.75,0,0,0,14.25,14ZM10.5,4.557,12.443,6.5H11.25a.75.75,0,0,1-.75-.75ZM15.75,11H13.875a.75.75,0,0,0-.532.217l-.93.938-2.1-2.4a.75.75,0,0,0-1.1-.038L7.943,11H6.75a.75.75,0,0,0,0,1.5h1.5a.75.75,0,0,0,.533-.217l.967-.937,2.1,2.4a.75.75,0,0,0,.54.255h0a.75.75,0,0,0,.532-.218l1.26-1.282H15.75a.75.75,0,0,0,0-1.5Z" transform="translate(3 3)" />
</svg>
