<svg id="File_upload" data-name="File upload" xmlns="http://www.w3.org/2000/svg" width="24" height="24" viewBox="0 0 24 24">
  <rect id="Shape" width="24" height="24"  opacity="0"/>
  <path id="Union_90" data-name="Union 90" d="M20924.248,16806a2.248,2.248,0,0,1-2.248-2.248v-10.5a2.254,2.254,0,0,1,2.248-2.254h4.545a.872.872,0,0,1,.236.084h.074a.854.854,0,0,1,.211.143l4.5,4.5a.787.787,0,0,1,.143.211v.063a.778.778,0,0,1,.047.205v7.545a2.248,2.248,0,0,1-2.248,2.248Zm-.75-12.746v10.5a.75.75,0,0,0,.75.75h7.5a.75.75,0,0,0,.75-.75V16797h-2.254a2.248,2.248,0,0,1-2.248-2.248v-2.25h-3.752A.752.752,0,0,0,20923.5,16793.252Zm6,1.5a.75.75,0,0,0,.75.75h1.193l-1.943-1.943Zm-2.25,7.5v-1.943l-.215.225a.754.754,0,0,1-1.066-1.066l1.5-1.5a.771.771,0,0,1,1.063,0l1.5,1.5a.754.754,0,0,1-1.066,1.066l-.215-.225v1.943a.752.752,0,0,1-1.5,0Z" transform="translate(-20916 -16786.5)"  />
</svg>
