<svg id="File_import" data-name="File import" xmlns="http://www.w3.org/2000/svg" width="24" height="24" viewBox="0 0 24 24">
  <rect id="Shape" width="24" height="24" fill="none"  opacity="0"/>
  <path id="file-import" d="M9,15.5H5.25a.75.75,0,0,1-.75-.75V4.25a.75.75,0,0,1,.75-.75H9V5.75A2.25,2.25,0,0,0,11.25,8H13.5V9.5a.75.75,0,0,0,1.5,0V7.2a.983.983,0,0,0-.045-.2V6.935a.99.99,0,0,0-.142-.217h0l-4.5-4.5h0a.99.99,0,0,0-.217-.142.24.24,0,0,0-.068,0L9.8,2H5.25A2.25,2.25,0,0,0,3,4.25v10.5A2.25,2.25,0,0,0,5.25,17H9a.75.75,0,0,0,0-1.5ZM10.5,4.557,12.443,6.5H11.25a.75.75,0,0,1-.75-.75ZM15,11.75H10.807l.975-.967a.753.753,0,1,0-1.065-1.065l-2.25,2.25a.863.863,0,0,0-.158.248.75.75,0,0,0,0,.57.7.7,0,0,0,.158.247l2.25,2.25a.753.753,0,1,0,1.065-1.065l-.975-.967H15a.75.75,0,0,0,0-1.5Z" transform="translate(3 3)" fill="#021d3d"/>
</svg>
