<svg id="File_error" data-name="File error" xmlns="http://www.w3.org/2000/svg" width="24" height="24" viewBox="0 0 24 24">
  <rect id="Shape" width="24" height="24" fill="none"  opacity="0"/>
  <path id="file-exclamation" d="M10.69,12.965a.57.57,0,0,0-.068-.135,1.185,1.185,0,0,0-.09-.112.775.775,0,0,0-1.065,0,1.185,1.185,0,0,0-.09.112.57.57,0,0,0-.068.135.48.48,0,0,0-.045.135,1.125,1.125,0,0,0,0,.15.63.63,0,0,0,.06.285.862.862,0,0,0,.158.248A.75.75,0,0,0,10,14a.63.63,0,0,0,.285-.06.675.675,0,0,0,.4-.4.63.63,0,0,0,.06-.285,1.125,1.125,0,0,0,0-.15.48.48,0,0,0-.06-.135ZM16,7.2a.983.983,0,0,0-.045-.2V6.935a.8.8,0,0,0-.142-.21h0l-4.5-4.5h0a.8.8,0,0,0-.21-.142h-.067A.66.66,0,0,0,10.788,2H6.25A2.25,2.25,0,0,0,4,4.25v10.5A2.25,2.25,0,0,0,6.25,17h7.5A2.25,2.25,0,0,0,16,14.75V7.2ZM11.5,4.557,13.443,6.5H12.25a.75.75,0,0,1-.75-.75Zm3,10.193a.75.75,0,0,1-.75.75H6.25a.75.75,0,0,1-.75-.75V4.25a.75.75,0,0,1,.75-.75H10V5.75A2.25,2.25,0,0,0,12.25,8H14.5Zm-4.5-6a.75.75,0,0,0-.75.75V11a.75.75,0,0,0,1.5,0V9.5A.75.75,0,0,0,10,8.75Z" transform="translate(2 3)" fill="#021d3d"/>
</svg>
