<svg id="File" xmlns="http://www.w3.org/2000/svg" width="24" height="24" viewBox="0 0 24 24">
  <rect id="Shape" width="24" height="24"  opacity="0"/>
  <path id="File-2" data-name="File" d="M16,7.205a.982.982,0,0,0-.045-.2V6.935a.8.8,0,0,0-.142-.21h0l-4.5-4.5h0a.8.8,0,0,0-.21-.143h-.067L10.8,2H6.25A2.25,2.25,0,0,0,4,4.25v10.5A2.25,2.25,0,0,0,6.25,17h7.5A2.25,2.25,0,0,0,16,14.75V7.205ZM11.5,4.558,13.443,6.5H11.5Zm3,10.193a.75.75,0,0,1-.75.75H6.25a.75.75,0,0,1-.75-.75V4.25a.75.75,0,0,1,.75-.75H10V7.25a.75.75,0,0,0,.75.75H14.5Z" transform="translate(2 2.5)"  />
</svg>
