<svg id="Fire" xmlns="http://www.w3.org/2000/svg" width="24" height="24" viewBox="0 0 24 24">
  <rect id="Shape" width="24" height="24"  opacity="0"/>
  <path id="Fire-2" data-name="Fire" d="M6.708,6.014h0Zm6.75-.126a.839.839,0,0,0-.156-.119.678.678,0,0,0-.949.279A3.92,3.92,0,0,1,11.4,7.253,5.911,5.911,0,0,0,8.511,1.088.678.678,0,0,0,7.5,1.634,4.758,4.758,0,0,1,5.824,4.986l-.156.127A5.773,5.773,0,0,0,4.32,6.376,6.092,6.092,0,0,0,6.8,15.807a.678.678,0,0,0,.934-.628.712.712,0,0,0-.034-.212,4.731,4.731,0,0,1-.129-1.75,6.106,6.106,0,0,0,2.924,2.724.676.676,0,0,0,.485.026A6.1,6.1,0,0,0,13.458,5.888Zm-2.648,8.7A4.722,4.722,0,0,1,8.384,11.6a6.041,6.041,0,0,1-.122-.654.678.678,0,0,0-.542-.573.666.666,0,0,0-.13-.013A.678.678,0,0,0,7,10.7a6.075,6.075,0,0,0-.818,3.2,4.737,4.737,0,0,1-.8-6.692,4.445,4.445,0,0,1,1.059-.989.505.505,0,0,0,.05-.037s.2-.166.208-.17A6.081,6.081,0,0,0,8.672,2.874a4.568,4.568,0,0,1,.94,5.484.678.678,0,0,0,.8.962A5.327,5.327,0,0,0,13.034,7.5a4.747,4.747,0,0,1-2.224,7.091Z" transform="translate(2.887 3.5)"  />
</svg>
