<svg id="focus" xmlns="http://www.w3.org/2000/svg" width="24" height="24" viewBox="0 0 24 24">
  <rect id="Rectangle_3681" data-name="Rectangle 3681" width="24" height="24" fill="none"  opacity="0"/>
  <path id="focus-2" data-name="focus" d="M6.8,2h-4a.8.8,0,0,0-.8.8v4a.8.8,0,1,0,1.6,0V3.6H6.8A.8.8,0,1,0,6.8,2Zm0,14.4H3.6V13.2a.8.8,0,1,0-1.6,0v4a.8.8,0,0,0,.8.8h4a.8.8,0,1,0,0-1.6ZM17.2,2h-4a.8.8,0,1,0,0,1.6h3.2V6.8a.8.8,0,1,0,1.6,0v-4A.8.8,0,0,0,17.2,2Zm0,10.4a.8.8,0,0,0-.8.8v3.2H13.2a.8.8,0,1,0,0,1.6h4a.8.8,0,0,0,.8-.8v-4A.8.8,0,0,0,17.2,12.4Z" transform="translate(2.01 2)" fill="#021d3d"/>
</svg>
