<svg id="focus_target" data-name="focus target" xmlns="http://www.w3.org/2000/svg" width="24" height="24" viewBox="0 0 24 24">
  <rect id="Rectangle_3680" data-name="Rectangle 3680" width="24" height="24" fill="none"  opacity="0"/>
  <path id="focus-target" d="M2.8,7.6a.8.8,0,0,0,.8-.8V4.4a.8.8,0,0,1,.8-.8H6.8A.8.8,0,1,0,6.8,2H4.4A2.4,2.4,0,0,0,2,4.4V6.8a.8.8,0,0,0,.8.8Zm4,8.8H4.4a.8.8,0,0,1-.8-.8V13.2a.8.8,0,1,0-1.6,0v2.4A2.4,2.4,0,0,0,4.4,18H6.8a.8.8,0,1,0,0-1.6ZM14,10.8a.8.8,0,0,0,0-1.6h-.912A3.2,3.2,0,0,0,10.8,6.912V6A.8.8,0,0,0,9.2,6v.912A3.2,3.2,0,0,0,6.912,9.2H6a.8.8,0,0,0,0,1.6h.912A3.2,3.2,0,0,0,9.2,13.088V14a.8.8,0,1,0,1.6,0v-.912A3.2,3.2,0,0,0,13.088,10.8Zm-4,.8A1.6,1.6,0,1,1,11.6,10,1.6,1.6,0,0,1,10,11.6Zm7.2.8a.8.8,0,0,0-.8.8v2.4a.8.8,0,0,1-.8.8H13.2a.8.8,0,1,0,0,1.6h2.4A2.4,2.4,0,0,0,18,15.6V13.2A.8.8,0,0,0,17.2,12.4ZM15.6,2H13.2a.8.8,0,1,0,0,1.6h2.4a.8.8,0,0,1,.8.8V6.8a.8.8,0,1,0,1.6,0V4.4A2.4,2.4,0,0,0,15.6,2Z" transform="translate(2.01 2)" fill="#021d3d"/>
</svg>
