<svg id="FocusIgnore" xmlns="http://www.w3.org/2000/svg" width="24" height="24" viewBox="0 0 24 24">
  <rect width="24" height="24" opacity="0"/>
  <path d="M.8,5.6a.8.8,0,0,0,.8-.8V2.4a.8.8,0,0,1,.8-.8H4.8A.8.8,0,1,0,4.8,0H2.4A2.4,2.4,0,0,0,0,2.4V4.8a.8.8,0,0,0,.8.8Zm4,8.8H2.4a.8.8,0,0,1-.8-.8V11.2a.8.8,0,1,0-1.6,0v2.4A2.4,2.4,0,0,0,2.4,16H4.8a.8.8,0,1,0,0-1.6ZM13.6,0H11.2a.8.8,0,1,0,0,1.6h2.4a.8.8,0,0,1,.8.8V4.8a.8.8,0,1,0,1.6,0V2.4A2.4,2.4,0,0,0,13.6,0Zm1.6,10.4a.8.8,0,0,0-.8.8v2.4a.8.8,0,0,1-.8.8H11.2a.8.8,0,1,0,0,1.6h2.4A2.4,2.4,0,0,0,16,13.6V11.2a.8.8,0,0,0-.8-.8Z" transform="translate(4 4)"/>
  <path d="M-6580.5,9062.5l-2.5,2.5,2.5-2.5-2.5-2.5,2.5,2.5,2.5-2.5-2.5,2.5,2.5,2.5Z" transform="translate(6592.5 -9050.5)" stroke="currentColor" stroke-linejoin="round" stroke-width="1.5"/>
</svg>
