<svg id="focus_plus" data-name="focus plus" xmlns="http://www.w3.org/2000/svg" width="24" height="24" viewBox="0 0 24 24">
  <rect id="Rectangle_3679" data-name="Rectangle 3679" width="24" height="24"   opacity="0"/>
  <path id="focus-add" d="M6.8,16.4H4.4a.8.8,0,0,1-.8-.8V13.2a.8.8,0,1,0-1.6,0v2.4A2.4,2.4,0,0,0,4.4,18H6.8a.8.8,0,1,0,0-1.6Zm-4-8.8a.8.8,0,0,0,.8-.8V4.4a.8.8,0,0,1,.8-.8H6.8A.8.8,0,1,0,6.8,2H4.4A2.4,2.4,0,0,0,2,4.4V6.8a.8.8,0,0,0,.8.8ZM15.6,2H13.2a.8.8,0,1,0,0,1.6h2.4a.8.8,0,0,1,.8.8V6.8a.8.8,0,1,0,1.6,0V4.4A2.4,2.4,0,0,0,15.6,2Zm-2.4,8a.8.8,0,0,0-.8-.8H10.8V7.6a.8.8,0,1,0-1.6,0V9.2H7.6a.8.8,0,0,0,0,1.6H9.2v1.6a.8.8,0,0,0,1.6,0V10.8h1.6A.8.8,0,0,0,13.2,10Zm4,2.4a.8.8,0,0,0-.8.8v2.4a.8.8,0,0,1-.8.8H13.2a.8.8,0,1,0,0,1.6h2.4A2.4,2.4,0,0,0,18,15.6V13.2A.8.8,0,0,0,17.2,12.4Z" transform="translate(2.008 2)" />
</svg>
