<svg id="focus_preson" data-name="focus preson" xmlns="http://www.w3.org/2000/svg" width="24" height="24" viewBox="0 0 24 24">
  <rect id="Shape" width="24" height="24" fill="#021d3d" opacity="0"/>
  <path id="Union_84" data-name="Union 84" d="M11.2,16a.8.8,0,0,1,0-1.6h2.4a.8.8,0,0,0,.8-.8V11.2a.8.8,0,0,1,1.6,0v2.4A2.4,2.4,0,0,1,13.6,16ZM2.4,16A2.4,2.4,0,0,1,0,13.6V11.2a.8.8,0,0,1,1.6,0v2.4a.8.8,0,0,0,.8.8H4.8a.8.8,0,1,1,0,1.6Zm1.512-3.2a.8.8,0,0,1-.712-.887A4.749,4.749,0,0,1,5.8,8.224a2.985,2.985,0,0,1-.8-2,3.024,3.024,0,1,1,6.048,0,2.99,2.99,0,0,1-.8,2,4.751,4.751,0,0,1,2.543,3.7.8.8,0,0,1-.7.88H12a.8.8,0,0,1-.848-.712,3.2,3.2,0,0,0-6.352,0A.8.8,0,0,1,4,12.8.814.814,0,0,1,3.912,12.8ZM6.576,6.224A1.424,1.424,0,1,0,8,4.8,1.424,1.424,0,0,0,6.576,6.224ZM14.4,4.8V2.4a.8.8,0,0,0-.8-.8H11.2a.8.8,0,0,1,0-1.6h2.4A2.4,2.4,0,0,1,16,2.4V4.8a.8.8,0,1,1-1.6,0ZM0,4.8V2.4A2.4,2.4,0,0,1,2.4,0H4.8a.8.8,0,0,1,0,1.6H2.4a.8.8,0,0,0-.8.8V4.8A.8.8,0,0,1,0,4.8Z" transform="translate(4 4)" fill="#021d3d"/>
</svg>
