<svg id="Folder" xmlns="http://www.w3.org/2000/svg" width="24" height="24" viewBox="0 0 24 24">
  <rect id="Shape" width="24" height="24"  opacity="0"/>
  <path id="Folder-2" data-name="Folder" d="M14.75,4.75H10.04L9.8,4A2.25,2.25,0,0,0,7.67,2.5H4.25A2.25,2.25,0,0,0,2,4.75V14.5a2.25,2.25,0,0,0,2.25,2.25h10.5A2.25,2.25,0,0,0,17,14.5V7A2.25,2.25,0,0,0,14.75,4.75Zm.75,9.75a.75.75,0,0,1-.75.75H4.25a.75.75,0,0,1-.75-.75V4.75A.75.75,0,0,1,4.25,4H7.67a.75.75,0,0,1,.712.51l.405,1.23a.75.75,0,0,0,.713.51h5.25A.75.75,0,0,1,15.5,7Z" transform="translate(2.5 2.375)"  />
</svg>
