<svg id="Gateway_Cloud" data-name="Gateway Cloud" xmlns="http://www.w3.org/2000/svg" width="24" height="24" viewBox="0 0 24 24">
  <rect id="Shape" width="24" height="24"  opacity="0"/>
  <path id="cloud-data-connection" d="M18.279,16.061H12.984A2.57,2.57,0,0,0,11.425,14.5V11.777h2.716a3.71,3.71,0,0,0,1.114-7.283,5.141,5.141,0,0,0-9.776,1.4,3,3,0,0,0,.805,5.886H9.711V14.5a2.57,2.57,0,0,0-1.559,1.559H2.857a.857.857,0,1,0,0,1.714H8.152a2.57,2.57,0,0,0,4.832,0h5.295a.857.857,0,1,0,0-1.714Zm-12-6a1.285,1.285,0,0,1,0-2.57.857.857,0,0,0,.857-.857,3.427,3.427,0,0,1,6.674-1.105.857.857,0,0,0,.668.574,1.979,1.979,0,0,1,1.654,1.962,2,2,0,0,1-2,2Zm4.284,7.711a.857.857,0,1,1,.857-.857A.857.857,0,0,1,10.568,17.774Z" transform="translate(1 1.532)"  />
</svg>
