<svg id="Grid" xmlns="http://www.w3.org/2000/svg" width="24" height="24" viewBox="0 0 24 24">
  <rect id="Shape" width="24" height="24" fill="#021d3d" opacity="0"/>
  <path id="apps" d="M8.4,10.8H2.8a.8.8,0,0,0-.8.8v5.6a.8.8,0,0,0,.8.8H8.4a.8.8,0,0,0,.8-.8V11.6A.8.8,0,0,0,8.4,10.8Zm-.8,5.6h-4v-4h4ZM17.2,2H11.6a.8.8,0,0,0-.8.8V8.4a.8.8,0,0,0,.8.8h5.6a.8.8,0,0,0,.8-.8V2.8A.8.8,0,0,0,17.2,2Zm-.8,5.6h-4v-4h4Zm.8,3.2H11.6a.8.8,0,0,0-.8.8v5.6a.8.8,0,0,0,.8.8h5.6a.8.8,0,0,0,.8-.8V11.6A.8.8,0,0,0,17.2,10.8Zm-.8,5.6h-4v-4h4ZM8.4,2H2.8a.8.8,0,0,0-.8.8V8.4a.8.8,0,0,0,.8.8H8.4a.8.8,0,0,0,.8-.8V2.8A.8.8,0,0,0,8.4,2ZM7.6,7.6h-4v-4h4Z" transform="translate(2 2)" fill="#021d3d"/>
</svg>
