<svg id="Hourglass" xmlns="http://www.w3.org/2000/svg" width="24" height="24" viewBox="0 0 24 24">
  <rect id="Shape" width="24" height="24"  opacity="0"/>
  <path id="End_of_tour" data-name="End of tour" d="M13.537,13.729H12.9V12.668A3.182,3.182,0,0,0,12.71,11.6c-.007-.019-.014-.036-.023-.054a3.167,3.167,0,0,0-.423-.787l-.891-1.188a1.921,1.921,0,0,1-.382-1.146V7.783a1.922,1.922,0,0,1,.559-1.35l.418-.418a3.147,3.147,0,0,0,.889-1.806c0-.009.005-.016.005-.025l0-.009a3.193,3.193,0,0,0,.04-.409V2.275h.636a.636.636,0,0,0,0-1.273H4.628a.636.636,0,1,0,0,1.273h.636V3.766a3.193,3.193,0,0,0,.04.409l0,.009c0,.009,0,.016.005.025A3.147,3.147,0,0,0,6.2,6.015l.418.418a1.923,1.923,0,0,1,.559,1.35v.643a1.923,1.923,0,0,1-.382,1.146L5.9,10.76a3.171,3.171,0,0,0-.423.787c-.008.018-.016.035-.023.053a3.184,3.184,0,0,0-.191,1.068v1.061H4.628a.636.636,0,0,0,0,1.273h8.909a.636.636,0,0,0,0-1.273Zm-7-10.182V2.275h5.091V3.547ZM7.1,5.115a1.89,1.89,0,0,1-.24-.3h4.453a1.891,1.891,0,0,1-.24.3l-.418.418a3.157,3.157,0,0,0-.9,1.832H8.419a3.157,3.157,0,0,0-.9-1.832Zm.714,5.22a3.205,3.205,0,0,0,.629-1.7H9.726a3.2,3.2,0,0,0,.629,1.7l.636.849H7.173Zm3.818,3.394H6.537V12.668a1.88,1.88,0,0,1,.017-.212h5.056a1.88,1.88,0,0,1,.017.212Z" transform="translate(3.008 3.998)"  />
</svg>
