<svg id="Image_lock" data-name="Image lock" xmlns="http://www.w3.org/2000/svg" width="24" height="24" viewBox="0 0 24 24">
  <rect id="Shape" width="24" height="24" fill="none" opacity="0.12"/>
  <path id="image-lock" d="M15.714,4.185v-.9a2.286,2.286,0,1,0-4.571,0v.9A2.286,2.286,0,0,0,9.619,6.333V7.857A2.286,2.286,0,0,0,11.9,10.143h3.048a2.286,2.286,0,0,0,2.286-2.286V6.333a2.286,2.286,0,0,0-1.524-2.149Zm-3.048-.9a.762.762,0,1,1,1.524,0v.762H12.667Zm3.048,4.571a.762.762,0,0,1-.762.762H11.9a.762.762,0,0,1-.762-.762V6.333a.762.762,0,0,1,.762-.762h3.048a.762.762,0,0,1,.762.762Zm-.762,3.81a.762.762,0,0,0-.762.762v2.286a.678.678,0,0,1-.137.4L7.646,8.71a2.179,2.179,0,0,0-2.994,0L3.524,9.838V5.571a.762.762,0,0,1,.762-.762H8.1a.762.762,0,0,0,0-1.524H4.286A2.286,2.286,0,0,0,2,5.571v9.143A2.286,2.286,0,0,0,4.286,17h9.143a2.286,2.286,0,0,0,2.286-2.286V12.429A.762.762,0,0,0,14.952,11.667ZM4.286,15.476a.762.762,0,0,1-.762-.762v-2.72l2.21-2.21a.6.6,0,0,1,.83,0l5.691,5.691Z" transform="translate(2 3)" fill="#021d3d"/>
</svg>
