<svg id="Image_Disabled" data-name="Image Disabled" xmlns="http://www.w3.org/2000/svg" width="24" height="24" viewBox="0 0 24 24">
  <rect id="Shape" width="24" height="24"  opacity="0"/>
  <path id="Image_remove" data-name="Image remove" d="M16.789,15.723l-.7-.7-.068-.075-.045-.053-.375-.375-.1-.053-3.887-3.9-.068-.06L9.15,8.1,9.075,8,3.282,2.217A.753.753,0,0,0,2.217,3.282l.75.75A2.251,2.251,0,0,0,2.749,5v9A2.251,2.251,0,0,0,5,16.256h9a2.176,2.176,0,0,0,.953-.233H15l.713.75a.754.754,0,0,0,1.081-1.051ZM4.25,5.308,6.681,7.739a2.131,2.131,0,0,0-.5.36L4.25,10.035ZM5,14.755A.75.75,0,0,1,4.25,14V12.159l3-3a.608.608,0,0,1,.825,0l5.62,5.6ZM7.747,4.25H14a.75.75,0,0,1,.75.75V9.458h0a.753.753,0,0,0-1.066,1.066L15,11.829a.75.75,0,0,0,1.283-.54h0V5a2.251,2.251,0,0,0-2.251-2.251H7.747a.75.75,0,0,0,0,1.5Z" transform="translate(2.504 2.504)"  />
</svg>
