<svg id="Image_stack" data-name="Image stack" xmlns="http://www.w3.org/2000/svg" width="24" height="24" viewBox="0 0 24 24">
  <rect id="Shape" width="24" height="24" fill="none"  opacity="0"/>
  <path id="images" d="M14,11.75V4.25A2.25,2.25,0,0,0,11.75,2H4.25A2.25,2.25,0,0,0,2,4.25v7.5A2.25,2.25,0,0,0,4.25,14h7.5A2.25,2.25,0,0,0,14,11.75ZM3.5,4.25a.75.75,0,0,1,.75-.75h7.5a.75.75,0,0,1,.75.75V7.52L11.69,6.7a1.92,1.92,0,0,0-1.358-.563h0A1.935,1.935,0,0,0,8.975,6.7l-.682.683-.608-.608a2.2,2.2,0,0,0-3.082,0L3.5,7.888Zm.09,7.837a.705.705,0,0,1-.09-.337V10l2.16-2.16a.683.683,0,0,1,.967,0l.623.608Zm6.45-4.32a.39.39,0,0,1,.293-.128h0a.39.39,0,0,1,.292.128L12.5,9.635V11.75a.75.75,0,0,1-.75.75H5.3ZM16.25,5a.75.75,0,0,0-.75.75v7.5a2.25,2.25,0,0,1-2.25,2.25H5.75a.75.75,0,0,0,0,1.5h7.5A3.75,3.75,0,0,0,17,13.25V5.75A.75.75,0,0,0,16.25,5Z" transform="translate(3 3)" fill="#021d3d"/>
</svg>
