<svg id="Image_shield" data-name="Image shield" xmlns="http://www.w3.org/2000/svg" width="24" height="24" viewBox="0 0 24 24">
  <rect id="Shape" width="24" height="24" fill="none" opacity="0.12"/>
  <path id="image-shield" d="M17.216,2.155A.762.762,0,0,0,16.576,2,2.057,2.057,0,0,1,14.9,1.644a.762.762,0,0,0-.9,0A2.057,2.057,0,0,1,12.325,2a.761.761,0,0,0-.922.747V5.27a3.527,3.527,0,0,0,1.4,2.819l1.2.884a.762.762,0,0,0,.9,0l1.2-.884A3.527,3.527,0,0,0,17.5,5.27V2.749A.762.762,0,0,0,17.216,2.155ZM15.974,5.27a2,2,0,0,1-.762,1.592l-.762.549-.762-.549a2,2,0,0,1-.762-1.592v-1.7a3.664,3.664,0,0,0,1.524-.411,3.664,3.664,0,0,0,1.524.411Zm-1.524,5.371a.762.762,0,0,0-.762.762v.3l-1.143-1.127a2.11,2.11,0,0,0-2.994,0l-.533.533-1.874-1.9a2.171,2.171,0,0,0-2.994,0L3.024,10.336V6.07a.762.762,0,0,1,.762-.762H9.118a.762.762,0,0,0,0-1.524H3.785A2.285,2.285,0,0,0,1.5,6.07v9.142A2.285,2.285,0,0,0,3.785,17.5h9.142a2.285,2.285,0,0,0,2.285-2.285V11.4A.762.762,0,0,0,14.451,10.641ZM3.785,15.974a.762.762,0,0,1-.762-.762v-2.72L5.233,10.26a.6.6,0,0,1,.83,0l2.415,2.415h0l3.306,3.3Zm9.9-.762a.762.762,0,0,1-.137.4L10.116,12.18l.533-.533a.594.594,0,0,1,.838,0l2.2,2.209Z" transform="translate(2.5 2.502)" fill="#021d3d"/>
</svg>
