<svg id="Image_Search" data-name="Image Search" xmlns="http://www.w3.org/2000/svg" width="24" height="24" viewBox="0 0 24 24">
  <rect id="Shape" width="24" height="24" fill="#021d3d" opacity="0"/>
  <path id="Image_search-2" data-name="Image search" d="M14.74,10.244a.749.749,0,0,0-.749.749v.292l-1.109-1.109a2.091,2.091,0,0,0-2.945,0l-.525.525L7.553,8.835a2.151,2.151,0,0,0-2.945,0L3.5,9.952v-4.2A.749.749,0,0,1,4.248,5h3a.749.749,0,1,0,0-1.5h-3A2.248,2.248,0,0,0,2,5.748v8.993a2.248,2.248,0,0,0,2.248,2.248h8.993a2.248,2.248,0,0,0,2.248-2.248V10.994A.749.749,0,0,0,14.74,10.244ZM4.248,15.49a.749.749,0,0,1-.749-.749V12.065L5.672,9.9a.592.592,0,0,1,.817,0l2.376,2.376h0l3.215,3.215Zm9.742-.749a.749.749,0,0,1-.135.4l-3.38-3.4L11,11.226a.577.577,0,0,1,.824,0l2.166,2.181Zm2.78-6.527L15.489,6.924A3.2,3.2,0,1,0,14.418,8l1.289,1.3a.758.758,0,1,0,1.064-1.079ZM13.99,6.5a1.739,1.739,0,1,1,0-2.451A1.739,1.739,0,0,1,13.99,6.5Z" transform="translate(3.25 2.499)" fill="#021d3d"/>
</svg>
