<svg id="Image_landscape" data-name="Image landscape" xmlns="http://www.w3.org/2000/svg" width="24" height="24" viewBox="0 0 24 24">
  <rect id="Shape" width="24" height="24" fill="#021d3d" opacity="0"/>
  <path id="Image" d="M15.6,4H4.4A2.4,2.4,0,0,0,2,6.4v8a2.4,2.4,0,0,0,2.4,2.4H15.6A2.4,2.4,0,0,0,18,14.4v-8A2.4,2.4,0,0,0,15.6,4ZM4.4,15.2a.8.8,0,0,1-.8-.8V12.464L6.24,9.832a.8.8,0,0,1,1.12,0L12.728,15.2Zm12-.8a.8.8,0,0,1-.8.8h-.616l-3.048-3.064.7-.7a.8.8,0,0,1,1.12,0l2.64,2.632Zm0-2.592-1.5-1.5a2.448,2.448,0,0,0-3.392,0l-.7.7-2.3-2.3a2.448,2.448,0,0,0-3.392,0l-1.5,1.5V6.4a.8.8,0,0,1,.8-.8H15.6a.8.8,0,0,1,.8.8Z" transform="translate(2.5 2)" fill="#021d3d"/>
</svg>
