<svg id="Image_times" data-name="Image times" xmlns="http://www.w3.org/2000/svg" width="24" height="24" viewBox="0 0 24 24">
  <rect id="Shape" width="24" height="24" fill="none" opacity="0.12"/>
  <path id="image-times" d="M15.6,8.4a.8.8,0,0,0-.8.8v2.713l-1.184-1.184a2.216,2.216,0,0,0-3.145,0l-.56.56L7.929,9.3a2.232,2.232,0,0,0-3.145,0L3.6,10.483V6a.8.8,0,0,1,.8-.8h6.4a.8.8,0,1,0,0-1.6H4.4A2.4,2.4,0,0,0,2,6v9.6A2.4,2.4,0,0,0,4.4,18H14a2.4,2.4,0,0,0,2.4-2.4V9.2A.8.8,0,0,0,15.6,8.4Zm-11.2,8a.8.8,0,0,1-.8-.8V12.747l2.32-2.32a.632.632,0,0,1,.872,0L9.33,12.963h0L12.762,16.4Zm10.4-.8a.712.712,0,0,1-.144.424L11.05,12.4l.56-.56a.624.624,0,0,1,.88,0L14.8,14.179ZM16.731,4.4l1.04-1.032a.8.8,0,1,0-1.136-1.128L15.6,3.273,14.571,2.241a.8.8,0,0,0-1.136,1.128L14.475,4.4l-1.04,1.04A.8.8,0,1,0,14.571,6.57L15.6,5.538,16.635,6.57a.8.8,0,0,0,1.136-1.128Z" transform="translate(2 1.996)" fill="#021d3d"/>
</svg>
