<svg id="Image_download" data-name="Image download" xmlns="http://www.w3.org/2000/svg" width="24" height="24" viewBox="0 0 24 24">
  <rect id="Shape" width="24" height="24"   opacity="0"/>
  <path id="image-download" d="M17.779,5.03a.762.762,0,0,0-1.082,0l-.983.99V1.762a.762.762,0,1,0-1.524,0V6.021l-.983-.99a.765.765,0,0,0-1.082,1.082L14.411,8.4a.762.762,0,0,0,.251.16.716.716,0,0,0,.579,0,.762.762,0,0,0,.251-.16l2.286-2.286a.762.762,0,0,0,0-1.082Zm-2.827,5.112a.762.762,0,0,0-.762.762v.29l-1.128-1.128a2.126,2.126,0,0,0-2.994,0l-.533.533L7.646,8.71a2.171,2.171,0,0,0-2.994,0L3.524,9.838V5.571a.762.762,0,0,1,.762-.762h6.1a.762.762,0,1,0,0-1.524h-6.1A2.286,2.286,0,0,0,2,5.571v9.143A2.286,2.286,0,0,0,4.286,17h9.143a2.286,2.286,0,0,0,2.286-2.286V10.9A.762.762,0,0,0,14.952,10.143ZM4.286,15.476a.762.762,0,0,1-.762-.762v-2.72l2.21-2.21a.6.6,0,0,1,.83,0L8.979,12.2h0l3.276,3.276Zm9.9-.762a.678.678,0,0,1-.137.4l-3.436-3.451.533-.533a.587.587,0,0,1,.838,0l2.2,2.217Z" transform="translate(2 3)"  />
</svg>
