<svg id="Image_question" data-name="Image question" xmlns="http://www.w3.org/2000/svg" width="24" height="24" viewBox="0 0 24 24">
  <rect id="Shape" width="24" height="24" fill="none" opacity="0.12"/>
  <path id="image-question" d="M15.6,10.8a.8.8,0,0,0-.8.8v.312l-1.184-1.184a2.216,2.216,0,0,0-3.144,0l-.56.56L7.928,9.3a2.288,2.288,0,0,0-3.144,0L3.6,10.48V6a.8.8,0,0,1,.8-.8h6.4a.8.8,0,0,0,0-1.6H4.4A2.4,2.4,0,0,0,2,6v9.6A2.4,2.4,0,0,0,4.4,18H14a2.4,2.4,0,0,0,2.4-2.4v-4A.8.8,0,0,0,15.6,10.8ZM4.4,16.4a.8.8,0,0,1-.8-.8V12.744l2.32-2.32a.632.632,0,0,1,.872,0L9.328,12.96h0L12.76,16.4Zm10.4-.8a.8.8,0,0,1-.144.424L11.048,12.4l.56-.56a.624.624,0,0,1,.88,0L14.8,14.176ZM15.6,2a2.4,2.4,0,0,0-2.08,1.2A.8.8,0,1,0,14.9,4a.8.8,0,1,1,.7,1.2.8.8,0,1,0,0,1.6,2.4,2.4,0,1,0,0-4.8Zm.3,5.664A.8.8,0,0,0,15.44,7.6l-.144.048-.144.072-.12.1a.81.81,0,1,0,.872-.16Z" transform="translate(2 2)" fill="#021d3d"/>
</svg>
