<svg id="Image_" data-name="Image " xmlns="http://www.w3.org/2000/svg" width="24" height="24" viewBox="0 0 24 24">
  <rect id="Shape" width="24" height="24" fill="none" opacity="0.12"/>
  <path id="image-v" d="M14.75,2H4.25A2.25,2.25,0,0,0,2,4.25v10.5A2.25,2.25,0,0,0,4.25,17h10.5a2.108,2.108,0,0,0,.368-.037l.225-.053h.09l.278-.1.1-.052c.075-.045.157-.083.232-.135a2.842,2.842,0,0,0,.285-.24l.052-.068a2.017,2.017,0,0,0,.2-.24l.068-.1a1.733,1.733,0,0,0,.135-.263.75.75,0,0,0,.052-.112c.038-.09.06-.187.09-.285V15.2A1.95,1.95,0,0,0,17,14.75V4.25A2.25,2.25,0,0,0,14.75,2ZM4.25,15.5a.75.75,0,0,1-.75-.75V11.517L5.967,9.042h0a.75.75,0,0,1,1.065,0l6.45,6.458Zm11.25-.75a.609.609,0,0,1-.112.375.705.705,0,0,1-.068.09L11.307,11.2l.66-.66a.75.75,0,0,1,1.065,0h0L15.5,13.017Zm0-3.855L14.09,9.5a2.31,2.31,0,0,0-3.18,0l-.66.66L8.09,8A2.31,2.31,0,0,0,4.91,8L3.5,9.395V4.25a.75.75,0,0,1,.75-.75h10.5a.75.75,0,0,1,.75.75Z" transform="translate(3 3)" fill="#021d3d"/>
</svg>
