<svg id="Image_Edit" data-name="Image Edit" xmlns="http://www.w3.org/2000/svg" width="24" height="24" viewBox="0 0 24 24">
  <rect id="Shape" width="24" height="24" fill="#021d3d" opacity="0"/>
  <path id="Image_edit-2" data-name="Image edit" d="M14.746,8.988a.75.75,0,0,0-.75.75v1.792l-1.125-1.11a2.122,2.122,0,0,0-2.939,0l-.525.525L7.541,9.078a2.084,2.084,0,0,0-2.939,0L3.5,10.195V5.988a.75.75,0,0,1,.75-.75h4.5a.75.75,0,0,0,0-1.5h-4.5A2.249,2.249,0,0,0,2,5.988v9a2.249,2.249,0,0,0,2.249,2.249h9A2.249,2.249,0,0,0,15.5,14.986V9.737A.75.75,0,0,0,14.746,8.988Zm-10.5,6.748a.75.75,0,0,1-.75-.75V12.317l2.159-2.189a.585.585,0,0,1,.84,0L8.875,12.5h0L12.07,15.7ZM14,14.986a.75.75,0,0,1-.127.4L10.465,12l.525-.517a.585.585,0,0,1,.825,0L14,13.651ZM16.786,3.552,14.971,1.737a.75.75,0,0,0-1.057,0L10.48,5.171a.75.75,0,0,0-.232.532V7.518a.75.75,0,0,0,.75.75h1.814a.75.75,0,0,0,.525-.217l3.434-3.434a.75.75,0,0,0,.015-1.065ZM12.5,6.768h-.75v-.75l2.7-2.692.75.75Z" transform="translate(3.251 2.231)" fill="#021d3d"/>
</svg>
