<svg id="Image_Crop" data-name="Image Crop" xmlns="http://www.w3.org/2000/svg" width="24" height="24" viewBox="0 0 24 24">
  <rect id="Shape" width="24" height="24"  opacity="0"/>
  <path id="Image_crop-2" data-name="Image crop" d="M2.75,6.57a.75.75,0,0,0,.75-.75V5.678a.75.75,0,0,0-1.5,0V5.82a.75.75,0,0,0,.75.75Zm0-3A.75.75,0,0,0,3.065,3.5.759.759,0,1,0,2.825,2H2.75A.817.817,0,0,0,2,2.821a.75.75,0,0,0,.75.712Zm13.037-.142a.75.75,0,0,0,1.207-.682.75.75,0,0,0-.75-.75h-.075a.75.75,0,0,0-.382,1.394ZM9.415,3.5H9.58a.75.75,0,1,0,0-1.5H9.415a.75.75,0,0,0,0,1.5Zm-3.374,0H6.2A.75.75,0,0,0,6.2,2H6.041a.75.75,0,1,0,0,1.5Zm10.2,12a.752.752,0,0,0-.075,1.5h.075a.817.817,0,0,0,.75-.825A.75.75,0,0,0,16.244,15.492ZM11,8.744a.75.75,0,0,0-.75-.75H2.952a.81.81,0,0,0-.2,0,.75.75,0,0,0-.75.75v7.5a.75.75,0,0,0,.75.75h7.572A.75.75,0,0,0,11,15.926ZM9.5,15.492H4.639L7.57,12.568a.247.247,0,0,1,.352,0L9.5,14.135Zm0-3.471-.51-.517a1.762,1.762,0,0,0-2.482,0l-3,3V9.494h6Zm6.747,0a.75.75,0,0,0-.75.75v.157a.75.75,0,1,0,1.5,0v-.135a.75.75,0,0,0-.75-.75Zm0-6.747a.75.75,0,0,0-.75.75V6.2a.75.75,0,1,0,1.5,0V6.038a.75.75,0,0,0-.75-.75Zm0,3.374a.75.75,0,0,0-.75.75v.165a.75.75,0,1,0,1.5,0V9.4a.75.75,0,0,0-.75-.735Zm-2.924,6.845h-.15a.75.75,0,1,0,0,1.5h.15a.75.75,0,1,0,0-1.5Zm-.367-12a.75.75,0,0,0,0-1.5H12.8a.75.75,0,0,0,0,1.5Z" transform="translate(2.5 2.513)"  />
</svg>
