<svg id="Image_Upload" data-name="Image Upload" xmlns="http://www.w3.org/2000/svg" width="24" height="24" viewBox="0 0 24 24">
  <rect id="Shape" width="24" height="24"  opacity="0"/>
  <path id="Image_upload-2" data-name="Image upload" d="M14.14,9.57a.714.714,0,0,0-.714.714v.271L12.369,9.5a1.992,1.992,0,0,0-2.806,0l-.5.5L7.291,8.228a2.035,2.035,0,0,0-2.806,0L3.428,9.285v-4a.714.714,0,0,1,.714-.714h5a.714.714,0,1,0,0-1.428h-5A2.142,2.142,0,0,0,2,5.286v8.569A2.142,2.142,0,0,0,4.142,16h8.569a2.142,2.142,0,0,0,2.142-2.142v-3.57A.714.714,0,0,0,14.14,9.57Zm-10,5a.714.714,0,0,1-.714-.714V11.306L5.5,9.235a.564.564,0,0,1,.778,0L8.541,11.5h0l3.071,3.071Zm9.283-.714a.636.636,0,0,1-.129.378L10.076,11l.5-.5a.55.55,0,0,1,.785,0l2.064,2.078Zm3.363-10.5L14.647,1.209a.738.738,0,0,0-1.014,0L11.49,3.351A.717.717,0,0,0,12.5,4.365l.921-.928V7.428a.714.714,0,1,0,1.428,0V3.436l.921.928a.717.717,0,1,0,1.014-1.014Z" transform="translate(2.5 3.494)"  />
</svg>
