<svg id="Image_plus" data-name="Image plus" xmlns="http://www.w3.org/2000/svg" width="24" height="24" viewBox="0 0 24 24">
  <rect id="Shape" width="24" height="24"   opacity="0"/>
  <path id="image-plus" d="M15.6,8.4a.8.8,0,0,0-.8.8v2.7L13.616,10.72a2.232,2.232,0,0,0-3.144,0l-.56.568L7.928,9.3a2.232,2.232,0,0,0-3.144,0L3.6,10.488V6a.8.8,0,0,1,.8-.8h6.4a.8.8,0,0,0,0-1.6H4.4A2.4,2.4,0,0,0,2,6v9.776A2.232,2.232,0,0,0,4.224,18h9.952a2.3,2.3,0,0,0,.64-.1h0a2.192,2.192,0,0,0,1.6-2.12V9.2a.8.8,0,0,0-.816-.8Zm-11.2,8a.8.8,0,0,1-.8-.8V12.744l2.312-2.312a.624.624,0,0,1,.88,0L12.768,16.4Zm10.4-.8a.8.8,0,0,1-.144.432L11.04,12.4l.568-.56a.616.616,0,0,1,.88,0L14.8,14.168Zm2.4-12h-.8V2.8a.8.8,0,0,0-1.6,0v.8H14a.8.8,0,1,0,0,1.6h.8V6a.8.8,0,1,0,1.6,0V5.2h.8a.8.8,0,1,0,0-1.6Z" transform="translate(2 2)"  />
</svg>
