<svg id="Image_Check" data-name="Image Check" xmlns="http://www.w3.org/2000/svg" width="24" height="24" viewBox="0 0 24 24">
  <rect id="Shape" width="24" height="24" fill="none"  opacity="0"/>
  <path id="image-check" d="M17.775,2.242a.8.8,0,0,0-1.129,0L13.941,4.883l-.976-.96a.8.8,0,1,0-1.121,1.145l1.537,1.5a.8.8,0,0,0,1.121,0l3.266-3.2a.8.8,0,0,0,.008-1.129ZM15.606,7.6a.8.8,0,0,0-.8.8v3.514l-1.185-1.185a2.217,2.217,0,0,0-3.145,0l-.56.56L7.931,9.3a2.233,2.233,0,0,0-3.145,0L3.6,10.486V6a.8.8,0,0,1,.8-.8H9.2a.8.8,0,0,0,0-1.6H4.4A2.4,2.4,0,0,0,2,6v9.6a2.4,2.4,0,0,0,2.4,2.4h9.6a2.4,2.4,0,0,0,2.4-2.4V8.4A.8.8,0,0,0,15.606,7.6ZM4.4,16.408a.8.8,0,0,1-.8-.8V12.751L5.922,10.43a.632.632,0,0,1,.872,0l2.537,2.537h0l3.434,3.442Zm10.4-.8a.712.712,0,0,1-.144.424l-3.61-3.626.56-.56a.624.624,0,0,1,.88,0l2.313,2.337Z" transform="translate(2 1.99)" fill="#021d3d"/>
</svg>
