<svg id="Image-Block" xmlns="http://www.w3.org/2000/svg" width="24" height="24" viewBox="0 0 24 24">
  <rect id="Shape" width="24" height="24" fill="none"  opacity="0"/>
  <path id="image-block-2" data-name="image-block" d="M16.12,2.11a3.808,3.808,0,1,0,1.112,2.7,3.808,3.808,0,0,0-1.112-2.7Zm-4.981,2.7a2.274,2.274,0,0,1,3.267-2.056L11.36,5.8A2.285,2.285,0,0,1,11.139,4.806Zm3.9,1.615a2.346,2.346,0,0,1-2.589.434L15.5,3.808a2.335,2.335,0,0,1-.457,2.612Zm-.091,3.716a.762.762,0,0,0-.762.762v.3l-1.127-1.135a2.186,2.186,0,0,0-2.993,0l-.533.541-1.889-1.9a2.186,2.186,0,0,0-2.993,0L3.523,9.84V5.567a.762.762,0,0,1,.762-.762H7.331a.762.762,0,0,0,0-1.523H4.285A2.285,2.285,0,0,0,2,5.567v9.139a2.285,2.285,0,0,0,2.285,2.285h9.139a2.285,2.285,0,0,0,.723-.129h.069a2.285,2.285,0,0,0,1.493-1.82,1.089,1.089,0,0,0,0-.168V10.9A.762.762,0,0,0,14.947,10.137ZM4.285,15.468a.762.762,0,0,1-.762-.762V11.987l2.209-2.2a.6.6,0,0,1,.83,0l2.429,2.422h0l3.26,3.26Zm9.9-.762a.762.762,0,0,1-.137.411L10.606,11.66l.541-.533a.6.6,0,0,1,.83,0l2.209,2.216Z" transform="translate(2 3.01)" fill="#021d3d"/>
</svg>
