<svg id="info_circle_filled" data-name="info circle filled" xmlns="http://www.w3.org/2000/svg" width="24" height="24" viewBox="0 0 24 24">
  <rect id="Shape" width="24" height="24" fill="#021d3d" opacity="0"/>
  <path id="Subtraction_26" data-name="Subtraction 26" d="M21897.5,17692a7.5,7.5,0,1,1,7.5-7.5A7.51,7.51,0,0,1,21897.5,17692Zm0-8.252a.754.754,0,0,0-.754.754v3a.751.751,0,1,0,1.5,0v-3A.752.752,0,0,0,21897.5,17683.748Zm0-2.994a.721.721,0,0,0-.283.059.713.713,0,0,0-.248.154,1,1,0,0,0-.16.246.682.682,0,0,0-.061.287.764.764,0,0,0,.221.533.713.713,0,0,0,.248.154.78.78,0,0,0,.285.061.727.727,0,0,0,.412-.127.739.739,0,0,0,.336-.621.8.8,0,0,0-.215-.533.82.82,0,0,0-.252-.154A.743.743,0,0,0,21897.5,17680.754Z" transform="translate(-21885.5 -17672.5)" fill="#021d3d"/>
</svg>
