<svg id="info_circle_outlined" data-name="info circle outlined" xmlns="http://www.w3.org/2000/svg" width="24" height="24" viewBox="0 0 24 24">
  <rect id="Shape" width="24" height="24"  opacity="0"/>
  <path id="General_Information" data-name="General Information" d="M9.5,8.75a.75.75,0,0,0-.75.75v3a.75.75,0,0,0,1.5,0v-3A.75.75,0,0,0,9.5,8.75Zm.285-2.94a.775.775,0,0,0-.818.158.863.863,0,0,0-.158.248.63.63,0,0,0-.06.285.75.75,0,0,0,.218.532.862.862,0,0,0,.248.158A.75.75,0,0,0,10.25,6.5a.788.788,0,0,0-.217-.532A.75.75,0,0,0,9.785,5.81ZM9.5,2A7.5,7.5,0,1,0,17,9.5,7.5,7.5,0,0,0,9.5,2Zm0,13.5a6,6,0,1,1,6-6A6,6,0,0,1,9.5,15.5Z" transform="translate(2.5 2.5)" />
</svg>
