<svg id="Lab" xmlns="http://www.w3.org/2000/svg" width="24" height="24" viewBox="0 0 24 24">
  <rect id="Shape" width="24" height="24" fill="#021d3d" opacity="0"/>
  <path id="Niche_Groups" data-name="Niche Groups" d="M15.953,13.618l-3.833-6.57V3.5h.75a.75.75,0,0,0,0-1.5h-6a.75.75,0,1,0,0,1.5h.75V7.048l-3.832,6.57A2.25,2.25,0,0,0,5.731,17h8.25a2.25,2.25,0,0,0,1.942-3.382Zm-6.938-6a.75.75,0,0,0,.1-.367V3.5h1.5V7.25a.75.75,0,0,0,.1.375l.645,1.125h-3Zm5.64,7.5a.75.75,0,0,1-.645.375H5.761a.75.75,0,0,1-.645-1.125L7.493,10.25h4.763l2.4,4.125a.75.75,0,0,1,0,.75Z" transform="translate(2.518 2.5)" fill="#021d3d"/>
</svg>
