<svg id="Layer_Group" data-name="Layer Group" xmlns="http://www.w3.org/2000/svg" width="24" height="24" viewBox="0 0 24 24">
  <rect id="Shape" width="24" height="24"  opacity="0"/>
  <path id="layer-group" d="M2.392,7.342l7.063,4.081a.785.785,0,0,0,.785,0L17.3,7.342a.783.783,0,0,0,0-1.358L10.24,1.911a.785.785,0,0,0-.785,0L2.392,5.984a.783.783,0,0,0,0,1.358ZM9.848,3.528l5.493,3.139L9.848,9.806,4.354,6.667Zm6.671,5.627-6.671,3.79L3.177,9.123a.784.784,0,1,0-.785,1.358l7.063,4.081a.785.785,0,0,0,.785,0L17.3,10.481a.784.784,0,1,0-.785-1.358Zm0,3.139-6.671,3.79L3.177,12.262a.784.784,0,1,0-.785,1.358L9.455,17.7a.785.785,0,0,0,.785,0L17.3,13.62a.784.784,0,1,0-.785-1.358Z" transform="translate(2 2.194)"  />
</svg>
