<svg id="Life_Ring" data-name="Life Ring" xmlns="http://www.w3.org/2000/svg" width="24" height="24" viewBox="0 0 24 24">
  <rect id="Shape" width="24" height="24" fill="#021d3d" opacity="0"/>
  <path id="Life-ring" d="M17.12,8.828V8.579l-.068-.453-.068-.294a1.444,1.444,0,0,0-.1-.385c-.038-.128-.06-.2-.1-.3a1.637,1.637,0,0,1-.053-.181V6.927a7.621,7.621,0,0,0-4.452-4.452h-.038l-.174-.053-.317-.1a1.474,1.474,0,0,1-.347-.091l-.347-.075-.347-.053a1.017,1.017,0,0,1-.362-.045,1.142,1.142,0,0,0-.392,0L9.575,2H8.888a.977.977,0,0,0-.362.045L8.179,2.1l-.347.075a1.181,1.181,0,0,0-.347.091l-.317.1-.174.053H6.957A7.621,7.621,0,0,0,2.5,6.867s0,0,0,.038a1.637,1.637,0,0,1-.053.181,1.276,1.276,0,0,1-.1.3c-.03.106-.068.257-.1.385l-.068.294-.068.453v1.932l.068.453.068.294a1.444,1.444,0,0,0,.1.385c.038.128.06.2.1.3a1.637,1.637,0,0,1,.053.181.324.324,0,0,1,0,.053,7.545,7.545,0,0,0,4.444,4.437h.038l.181.053.3.1.385.1.294.068.453.068H8.85c.234,0,.475.038.717.038a4.518,4.518,0,0,0,.717-.038h.249l.453-.068.294-.068.385-.1.3-.1.181-.053h.038a7.545,7.545,0,0,0,4.444-4.437.324.324,0,0,1,0-.053.821.821,0,0,1,.053-.181c.015-.06.068-.2.1-.3s.068-.257.1-.385l.068-.294.068-.453V10.2c0-.234.038-.475.038-.717S17.12,9.062,17.12,8.828ZM12.366,4.181a6.036,6.036,0,0,1,2.611,2.611l-2.158.755a3.878,3.878,0,0,0-1.237-1.237ZM8.322,3.652c.158-.038.309-.06.46-.083h.181a6.217,6.217,0,0,1,1.3,0h.181a2.043,2.043,0,0,1,.46.083h.045L10.193,5.81a3.388,3.388,0,0,0-.619-.038,3.32,3.32,0,0,0-.551.045L8.269,3.66Zm-1.464.528.755,2.158A3.878,3.878,0,0,0,6.368,7.576L4.21,6.821A6.036,6.036,0,0,1,6.821,4.181ZM3.682,10.836a3.146,3.146,0,0,1-.075-.453c0-.068,0-.128,0-.189a5.6,5.6,0,0,1,0-1.3c0-.06,0-.121,0-.189a3.146,3.146,0,0,1,.075-.453s0,0,0-.045l2.158.755a3.373,3.373,0,0,0,0,1.1l-2.158.755ZM6.821,14.91A6.036,6.036,0,0,1,4.21,12.3l2.158-.755a3.878,3.878,0,0,0,1.237,1.237Zm4.044.528c-.158.038-.309.06-.46.083h-.181a6.217,6.217,0,0,1-1.3,0H8.745a2.043,2.043,0,0,1-.46-.083H8.239l.755-2.158a3.373,3.373,0,0,0,1.1,0l.755,2.158Zm-.506-3.773h0c-.128.045-.257.075-.377.106a2.06,2.06,0,0,1-.755,0,1.237,1.237,0,0,1-.377-.106h0A2.264,2.264,0,0,1,7.462,10.3h0a2.437,2.437,0,0,1-.106-.385,1.984,1.984,0,0,1,0-.755,2.437,2.437,0,0,1,.1-.37h0A2.264,2.264,0,0,1,8.82,7.433h0c.128-.045.257-.075.377-.106a2.06,2.06,0,0,1,.755,0,1.237,1.237,0,0,1,.377.106h0a2.264,2.264,0,0,1,1.358,1.358h0a2.437,2.437,0,0,1,.106.385,1.984,1.984,0,0,1,0,.755,2.437,2.437,0,0,1-.106.385h0a2.264,2.264,0,0,1-1.358,1.343Zm1.969,3.252-.755-2.158a3.878,3.878,0,0,0,1.237-1.237l2.158.755a6.036,6.036,0,0,1-2.641,2.633Zm3.282-4.723v.189a3.146,3.146,0,0,1-.075.453v.045l-2.158-.755a3.373,3.373,0,0,0,0-1.1l2.158-.755v.045a3.146,3.146,0,0,1,.075.453v.189a5.6,5.6,0,0,1,0,1.3Z" transform="translate(2.381 2.5)" fill="#021d3d"/>
</svg>
