<svg id="Link_Mini" data-name="Link Mini" xmlns="http://www.w3.org/2000/svg" width="24" height="24" viewBox="0 0 24 24">
  <rect id="Rectangle_1829" data-name="Rectangle 1829" width="24" height="24"  opacity="0.05"/>
  <path id="Union_49" data-name="Union 49" d="M21462.367,17485.43a.895.895,0,0,1,0-1.789h2.521a1.829,1.829,0,0,0,0-3.658h-2.521a.895.895,0,0,1,0-1.789h2.521a3.616,3.616,0,0,1,2.555,6.174,3.584,3.584,0,0,1-2.555,1.063Zm-5.252,0a3.618,3.618,0,0,1,0-7.236h2.521a.895.895,0,0,1,0,1.789h-2.521a1.807,1.807,0,0,0-1.293.533,1.829,1.829,0,0,0,1.293,3.125h2.521a.9.9,0,0,1,.895.895.878.878,0,0,1-.266.631.863.863,0,0,1-.629.264Zm.08-2.721a.895.895,0,0,1,0-1.789h7.607a.9.9,0,0,1,.637,1.525.906.906,0,0,1-.631.264Z" transform="translate(-21449 -17469.813)"  />
</svg>
