<svg id="Link" xmlns="http://www.w3.org/2000/svg" width="24" height="24" viewBox="0 0 24 24">
  <rect id="Shape" width="24" height="24"  opacity="0"/>
  <path id="Link-2" data-name="Link" d="M8.072,13.742l-1.336,1.3A1.869,1.869,0,0,1,4.093,12.4L7.521,8.963a1.857,1.857,0,0,1,2.56-.068l.091.076a.756.756,0,0,0,1.057-1.08,2.076,2.076,0,0,0-.136-.159,3.368,3.368,0,0,0-4.6.166L3.021,11.334A3.383,3.383,0,0,0,7.8,16.113l1.306-1.276a.755.755,0,0,0-1.034-1.095ZM16.144,2.99a3.39,3.39,0,0,0-4.779,0L10.058,4.266a.755.755,0,0,0,1.034,1.095l1.306-1.3a1.869,1.869,0,0,1,2.643,2.643l-3.428,3.435a1.857,1.857,0,0,1-2.56.068l-.091-.076a.756.756,0,1,0-1.057,1.08,2.076,2.076,0,0,0,.174.159,3.375,3.375,0,0,0,4.6-.166L16.113,7.77A3.39,3.39,0,0,0,16.144,2.99Z" transform="translate(2.371 2.496)"  />
</svg>
