<svg id="List_Star" data-name="List Star" xmlns="http://www.w3.org/2000/svg" width="24" height="24" viewBox="0 0 24 24">
  <rect id="Shape" width="24" height="24" fill="#021d3d" opacity="0"/>
  <g id="list_edited" transform="translate(4.001 6.801)">
    <path id="Union_81" data-name="Union 81" d="M11.594,12.976a1.242,1.242,0,0,1-.52-1.223l.232-1.386-.976-.961a1.233,1.233,0,0,1,.68-2.08l1.3-.191.584-1.241a1.2,1.2,0,0,1,2.176,0l.584,1.241,1.3.191a1.231,1.231,0,0,1,.68,2.08l-.96.976.232,1.385a1.24,1.24,0,0,1-.5,1.208,1.172,1.172,0,0,1-1.249.056L13.995,12.4l-1.136.649a1.167,1.167,0,0,1-1.264-.072ZM.249,9.4A.66.66,0,0,1,0,8.849.771.771,0,0,1,.75,8h6.4a.826.826,0,0,1,.6.249A.672.672,0,0,1,8,8.8a.708.708,0,0,1-.8.8H.8a.739.739,0,0,1-.112.008A.533.533,0,0,1,.249,9.4Zm0-4A.66.66,0,0,1,0,4.849.77.77,0,0,1,.75,4H10.2a.77.77,0,0,1,.75.85.849.849,0,0,1-.2.549.852.852,0,0,1-.549.2H.8a.849.849,0,0,1-.112.008A.531.531,0,0,1,.249,5.4Zm0-4A.66.66,0,0,1,0,.85.77.77,0,0,1,.75,0H15.2a.771.771,0,0,1,.551.249A.668.668,0,0,1,16,.8a.708.708,0,0,1-.8.8H.8a.849.849,0,0,1-.112.008A.533.533,0,0,1,.249,1.4Z" transform="translate(0 0)" fill="#021d3d"/>
  </g>
</svg>
