<svg id="List_Add" data-name="List Add" xmlns="http://www.w3.org/2000/svg" width="24" height="24" viewBox="0 0 24 24">
  <rect id="Shape" width="24" height="24" opacity="0"/>
  <g id="list_edited" transform="translate(0.9 1.1)">
    <path id="Path_2267" data-name="Path 2267" d="M.75,8A.771.771,0,0,0,0,8.85a.666.666,0,0,0,.25.55.555.555,0,0,0,.55.2H7.2A.707.707,0,0,0,8,8.8a.666.666,0,0,0-.25-.55A.818.818,0,0,0,7.15,8H.75M15.2,1.6A.707.707,0,0,0,16,.8a.666.666,0,0,0-.25-.55A.765.765,0,0,0,15.2,0H.75A.771.771,0,0,0,0,.85a.666.666,0,0,0,.25.55.555.555,0,0,0,.55.2H15.2m-5,4a.861.861,0,0,0,.55-.2.861.861,0,0,0,.2-.55A.771.771,0,0,0,10.2,4H.75A.771.771,0,0,0,0,4.85a.666.666,0,0,0,.25.55.555.555,0,0,0,.55.2Z" transform="translate(3.1 5.7)"  />
    <path id="Path_2268" data-name="Path 2268" d="M13.4,5.2a.931.931,0,0,0-.2.6V8H11a.931.931,0,0,0-.6.2.931.931,0,0,0-.2.6.747.747,0,0,0,.2.55.824.824,0,0,0,.6.25h2.2v2.2a.747.747,0,0,0,.2.55.823.823,0,0,0,.6.25.86.86,0,0,0,.8-.8V9.6H17a.672.672,0,0,0,.55-.25.672.672,0,0,0,.25-.55.823.823,0,0,0-.25-.6A.747.747,0,0,0,17,8H14.8V5.8a.823.823,0,0,0-.25-.6A.747.747,0,0,0,14,5,.931.931,0,0,0,13.4,5.2Z" transform="translate(3.1 5.7)"  />
  </g>
</svg>
