<svg id="Loader" version="1.1" xmlns="http://www.w3.org/2000/svg" width="32" height="32" viewBox="0 0 32 32">
  <rect id="Shape" width="24" height="24"  opacity="0"/>  
  <path d="M21.8 10.8c1.522 1.459 2.467 3.508 2.467 5.778 0 0.031-0 0.062-0.001 0.093l0-0.005c0.002 0.070 0.004 0.152 0.004 0.234 0 2.205-0.951 4.187-2.464 5.56l-0.006 0.006q-0.035 0.067-0.067 0.067c-1.289 1.483-3.179 2.414-5.286 2.414-0.157 0-0.314-0.005-0.469-0.015l0.021 0.001c-0.010-0.001-0.022-0.001-0.033-0.001s-0.023 0-0.035 0.001l0.002-0c-0.064 0.002-0.14 0.003-0.216 0.003-0.757 0-1.485-0.123-2.165-0.351l0.048 0.014c-0.068-0.015-0.146-0.023-0.226-0.023-0.212 0-0.41 0.058-0.579 0.159l0.005-0.003c-0.243 0.131-0.43 0.34-0.531 0.592l-0.003 0.008c-0.016 0.076-0.025 0.162-0.025 0.251 0 0.226 0.059 0.438 0.162 0.622l-0.003-0.006c0.12 0.235 0.336 0.407 0.594 0.466l0.006 0.001c0.788 0.257 1.695 0.405 2.636 0.405 0.104 0 0.209-0.002 0.312-0.005l-0.015 0h0.133c0.138 0.008 0.301 0.012 0.464 0.012 2.706 0 5.135-1.187 6.794-3.069l0.009-0.010h-0.067c1.93-1.749 3.137-4.264 3.137-7.062 0-0.095-0.001-0.19-0.004-0.285l0 0.014c0.001-0.046 0.001-0.1 0.001-0.154 0-2.842-1.175-5.41-3.065-7.244l-0.003-0.002c-1.814-1.853-4.341-3.002-7.136-3.002-0.069 0-0.139 0.001-0.208 0.002l0.010-0c-0.046-0.001-0.1-0.001-0.155-0.001-5.658 0-10.245 4.587-10.245 10.245 0 0.008 0 0.016 0 0.024v-0.001c-0.006 0.13-0.010 0.282-0.010 0.434 0 0.696 0.077 1.375 0.222 2.028l-0.012-0.062c0.062 0.282 0.232 0.517 0.462 0.664l0.004 0.003c0.144 0.111 0.327 0.178 0.525 0.178 0.098 0 0.193-0.016 0.281-0.047l-0.006 0.002c0.282-0.017 0.525-0.171 0.665-0.396l0.002-0.004c0.111-0.144 0.178-0.327 0.178-0.526 0-0.098-0.016-0.192-0.046-0.28l0.002 0.006c-0.089-0.446-0.14-0.958-0.14-1.483 0-0.112 0.002-0.223 0.007-0.333l-0.001 0.016c0.001-0.010 0.001-0.022 0.001-0.033s-0-0.023-0.001-0.035l0 0.002c-0-0.021-0-0.047-0-0.072 0-4.526 3.669-8.195 8.195-8.195 0.025 0 0.051 0 0.076 0l-0.004-0c0.039-0.001 0.085-0.001 0.131-0.001 2.224 0 4.233 0.92 5.667 2.399l0.002 0.002z"></path>
</svg>
