<svg id="location_target" data-name="location target" xmlns="http://www.w3.org/2000/svg" width="24" height="24" viewBox="0 0 24 24">
 <rect id="Shape" width="24" height="24" fill="none"  opacity="0"/>
 <path id="hunting" d="M10,7.6A2.4,2.4,0,1,0,12.4,10,2.4,2.4,0,0,0,10,7.6Zm0,3.2a.8.8,0,1,1,.8-.8A.8.8,0,0,1,10,10.8Zm7.2-1.6h-.856A6.4,6.4,0,0,0,10.8,3.656V2.8a.8.8,0,1,0-1.6,0v.856A6.4,6.4,0,0,0,3.656,9.2H2.8a.8.8,0,1,0,0,1.6h.856A6.4,6.4,0,0,0,9.2,16.344V17.2a.8.8,0,0,0,1.6,0v-.856A6.4,6.4,0,0,0,16.344,10.8H17.2a.8.8,0,0,0,0-1.6ZM10,14.8A4.8,4.8,0,1,1,14.8,10,4.8,4.8,0,0,1,10,14.8Z" transform="translate(2 2)" fill="#021d3d"/>
</svg>
