<svg id="location_arrow_deg" data-name="location arrow deg" xmlns="http://www.w3.org/2000/svg" width="24" height="24" viewBox="0 0 24 24">
  <rect id="Shape" width="24" height="24"   opacity="0"/>
  <path id="location-arrow" d="M17.316,2.687a2.311,2.311,0,0,0-2.4-.568L3.6,5.9a2.319,2.319,0,0,0-.1,4.375l4.191,1.6h0a.744.744,0,0,1,.424.416l1.6,4.2a2.3,2.3,0,0,0,2.167,1.5h.056a2.3,2.3,0,0,0,2.151-1.6L17.875,5.062A2.311,2.311,0,0,0,17.316,2.687ZM16.4,4.558,12.573,15.9a.7.7,0,0,1-.672.5.736.736,0,0,1-.7-.464l-1.6-4.2A2.327,2.327,0,0,0,8.27,10.388l-4.2-1.6a.72.72,0,0,1-.472-.7.7.7,0,0,1,.5-.672l11.34-3.783a.728.728,0,0,1,.96.92Z" transform="translate(2 2.006)" fill="#021d3d"/>
</svg>
