<svg id="location_arrow" data-name="location arrow" xmlns="http://www.w3.org/2000/svg" width="24" height="24" viewBox="0 0 24 24">
  <rect id="Shape" width="24" height="24"   opacity="0"/>
  <path id="location-arrow-alt" d="M17.754,14.527,12.151,3.32a2.4,2.4,0,0,0-4.29,0l-5.6,11.206a2.4,2.4,0,0,0,3.122,3.266l4.3-1.921h0a.848.848,0,0,1,.656,0l4.3,1.921a2.4,2.4,0,0,0,3.122-3.266Zm-1.6,1.6a.8.8,0,0,1-.9.176l-4.3-1.913a2.4,2.4,0,0,0-1.953,0L4.731,16.328A.8.8,0,0,1,3.69,15.247l5.6-11.206a.8.8,0,0,1,1.425,0l5.6,11.206a.8.8,0,0,1-.136.9Z" transform="translate(1.994 2.002)" />
</svg>
