<svg id="Lock_unlocked" data-name="Lock unlocked" xmlns="http://www.w3.org/2000/svg" width="24" height="24" viewBox="0 0 24 24">
  <rect id="Shape" width="24" height="24" fill="none" opacity="0.12"/>
  <path id="unlock" d="M13.745,7.248h-6v-1.5a2.249,2.249,0,0,1,3.838-1.6,2.309,2.309,0,0,1,.585,1.034.751.751,0,1,0,1.454-.375,3.816,3.816,0,0,0-.982-1.717A3.748,3.748,0,0,0,6.249,5.748v1.5A2.249,2.249,0,0,0,4,9.5v5.247a2.249,2.249,0,0,0,2.249,2.249h7.5a2.249,2.249,0,0,0,2.249-2.249V9.5A2.249,2.249,0,0,0,13.745,7.248Zm.75,7.5a.75.75,0,0,1-.75.75h-7.5a.75.75,0,0,1-.75-.75V9.5a.75.75,0,0,1,.75-.75h7.5a.75.75,0,0,1,.75.75Z" transform="translate(2 3)" fill="#021d3d"/>
</svg>
