<svg id="Lock_-_locked_alt" data-name="Lock - locked alt" xmlns="http://www.w3.org/2000/svg" width="24" height="24" viewBox="0 0 24 24">
  <rect id="Shape" width="24" height="24" fill="#021d3d" opacity="0"/>
  <path id="padlock" d="M10,10.25a1.117,1.117,0,0,0-.75,1.957V13.25a.75.75,0,0,0,1.5,0V12.208A1.118,1.118,0,0,0,10,10.25Zm3.75-3V5.75a3.75,3.75,0,1,0-7.5,0v1.5A2.25,2.25,0,0,0,4,9.5v5.25A2.25,2.25,0,0,0,6.25,17h7.5A2.25,2.25,0,0,0,16,14.75V9.5A2.25,2.25,0,0,0,13.75,7.25Zm-6-1.5a2.25,2.25,0,0,1,4.5,0v1.5H7.75Zm6.75,9a.75.75,0,0,1-.75.75H6.25a.75.75,0,0,1-.75-.75V9.5a.75.75,0,0,1,.75-.75h7.5a.75.75,0,0,1,.75.75Z" transform="translate(2 2.5)" fill="#021d3d"/>
</svg>
