<svg id="Lock_slash_alt" data-name="Lock slash alt" xmlns="http://www.w3.org/2000/svg" width="24" height="24" viewBox="0 0 24 24">
  <rect id="Shape" width="24" height="24"  opacity="0.12"/>
  <path id="lock-slash" d="M9.068,4.7A1.6,1.6,0,0,1,11.594,6V8.4a.8.8,0,0,0,.8.8h.8a.8.8,0,0,1,.8.8v.272a.8.8,0,1,0,1.6,0V10a2.4,2.4,0,0,0-2.4-2.4V6a3.2,3.2,0,0,0-.936-2.263,3.246,3.246,0,0,0-4.15-.312A.8.8,0,1,0,9.068,4.7Zm8.692,11.922L3.367,2.231A.8.8,0,1,0,2.231,3.367L6.493,7.6A2.4,2.4,0,0,0,4.4,10v4.8a2.4,2.4,0,0,0,2.4,2.4h6.4a2.4,2.4,0,0,0,1.911-.96l1.519,1.527a.8.8,0,1,0,1.135-1.135Zm-4.566-1.031H6.8a.8.8,0,0,1-.8-.8V10a.8.8,0,0,1,.8-.8H8.068l1.655,1.655a.8.8,0,0,0-.528.744v1.6a.8.8,0,0,0,1.6,0V11.922l3.142,3.142A.8.8,0,0,1,13.194,15.592Z" transform="translate(2.004 2.004)" />
</svg>
