<svg id="Lock_locked" data-name="Lock locked" xmlns="http://www.w3.org/2000/svg" width="24" height="24" viewBox="0 0 24 24">
  <rect id="Shape" width="24" height="24"   opacity="0"/>
  <path id="lock" d="M13.745,7.247v-1.5a3.748,3.748,0,1,0-7.5,0v1.5A2.249,2.249,0,0,0,4,9.5v5.247a2.249,2.249,0,0,0,2.249,2.249h7.5a2.249,2.249,0,0,0,2.249-2.249V9.5A2.249,2.249,0,0,0,13.745,7.247Zm-6-1.5a2.249,2.249,0,1,1,4.5,0v1.5h-4.5Zm6.747,9a.75.75,0,0,1-.75.75h-7.5a.75.75,0,0,1-.75-.75V9.5a.75.75,0,0,1,.75-.75h7.5a.75.75,0,0,1,.75.75Z" transform="translate(2 3)"  />
</svg>
