<svg id="Mail_times" data-name="Mail times" xmlns="http://www.w3.org/2000/svg" width="24" height="24" viewBox="0 0 24 24">
  <rect id="Shape" width="24" height="24"   opacity="0"/>
  <path id="envelope-times" d="M17.83,9.664A.833.833,0,0,0,17,10.5v5a.833.833,0,0,1-.833.833H4.5a.833.833,0,0,1-.833-.833V7.507l4.9,4.907a2.5,2.5,0,0,0,1.758.725,2.566,2.566,0,0,0,1.8-.75l1.433-1.433a.837.837,0,0,0-1.183-1.183l-1.458,1.458a.833.833,0,0,1-1.166,0l-4.907-4.9h6.324a.833.833,0,1,0,0-1.666H4.5A2.5,2.5,0,0,0,2,7.165V15.5A2.5,2.5,0,0,0,4.5,18H16.164a2.5,2.5,0,0,0,2.5-2.5v-5A.833.833,0,0,0,17.83,9.664ZM17.338,5.5l1.083-1.075a.837.837,0,0,0-1.183-1.183L16.164,4.324,15.089,3.241a.837.837,0,0,0-1.183,1.183L14.989,5.5,13.906,6.574a.837.837,0,1,0,1.183,1.183l1.075-1.083,1.075,1.083a.837.837,0,1,0,1.183-1.183Z" transform="translate(2 2.004)"  />
</svg>
