<svg id="Mail_lock" data-name="Mail lock" xmlns="http://www.w3.org/2000/svg" width="24" height="24" viewBox="0 0 24 24">
  <rect id="Shape" width="24" height="24" fill="none" opacity="0.12"/>
  <path id="envelope-lock" d="M16.5,6.56V5.628a2.368,2.368,0,0,0-4.737,0V6.56a2.368,2.368,0,0,0-1.579,2.226v1.579a2.368,2.368,0,0,0,2.368,2.368h3.158a2.368,2.368,0,0,0,2.368-2.368V8.786A2.368,2.368,0,0,0,16.5,6.56Zm-3.158-.932a.789.789,0,0,1,1.579,0v.789H13.342ZM16.5,10.365a.789.789,0,0,1-.789.789H12.553a.789.789,0,0,1-.789-.789V8.786A.789.789,0,0,1,12.553,8h3.158a.789.789,0,0,1,.789.789Zm0,3.947a.789.789,0,0,0-.789.789v.789a.789.789,0,0,1-.789.789H3.868a.789.789,0,0,1-.789-.789V8.321l4.642,4.642a.79.79,0,0,0,1.121-1.113L4.192,7.207H8.605a.789.789,0,1,0,0-1.579H3.868A2.368,2.368,0,0,0,1.5,8v7.895A2.368,2.368,0,0,0,3.868,18.26H14.921a2.368,2.368,0,0,0,2.368-2.368V15.1A.789.789,0,0,0,16.5,14.313Z" transform="translate(2.5 1.74)" fill="#021d3d"/>
</svg>
