<svg id="Mail_shiled" data-name="Mail shiled" xmlns="http://www.w3.org/2000/svg" width="24" height="24" viewBox="0 0 24 24">
  <rect id="Shape" width="24" height="24" fill="none"  opacity="0"/>
  <path id="envelope-shield" d="M18.365,4.978a.834.834,0,0,0-.7-.167,2.284,2.284,0,0,1-1.834-.383.834.834,0,0,0-.984,0,2.284,2.284,0,0,1-1.834.383A.834.834,0,0,0,12,5.628V8.388a3.852,3.852,0,0,0,1.534,3.085l1.309.967a.834.834,0,0,0,.984,0l1.309-.967a3.852,3.852,0,0,0,1.534-3.085V5.628A.834.834,0,0,0,18.365,4.978Zm-1.359,3.41a2.176,2.176,0,0,1-.834,1.742l-.834.584-.834-.6a2.176,2.176,0,0,1-.834-1.742V6.546a3.893,3.893,0,0,0,1.667-.45,3.893,3.893,0,0,0,1.667.45Zm.834,5a.834.834,0,0,0-.834.834v2.5a.834.834,0,0,1-.834.834H4.5a.834.834,0,0,1-.834-.834V8.771l4.9,4.9a2.5,2.5,0,0,0,3.551-.017l-.584-.592L10.92,12.5a.834.834,0,0,1-1.167,0L4.843,7.6H9.5a.834.834,0,1,0,0-1.667h-5A2.5,2.5,0,0,0,2,8.43v8.337a2.5,2.5,0,0,0,2.5,2.5H16.173a2.5,2.5,0,0,0,2.5-2.5v-2.5a.834.834,0,0,0-.834-.834Z" transform="translate(2 0.732)" fill="#021d3d"/>
</svg>
