<svg id="Mail_plus" data-name="Mail plus" xmlns="http://www.w3.org/2000/svg" width="24" height="24" viewBox="0 0 24 24">
  <rect id="Shape" width="24" height="24" fill="none" opacity="0.12"/>
  <path id="envelope-add" d="M14.5,6.333h.833v.833a.833.833,0,0,0,1.667,0V6.333h.833a.833.833,0,1,0,0-1.667H17V3.833a.833.833,0,0,0-1.667,0v.833H14.5a.833.833,0,1,0,0,1.667Zm3.333,3.333A.833.833,0,0,0,17,10.5v5a.833.833,0,0,1-.833.833H4.5a.833.833,0,0,1-.833-.833V7.508l4.9,4.908a2.5,2.5,0,0,0,3.533,0l2.058-2.058a.837.837,0,1,0-1.183-1.183l-2.058,2.058a.833.833,0,0,1-1.167,0l-4.908-4.9h6.325a.833.833,0,1,0,0-1.667H4.5A2.5,2.5,0,0,0,2,7.167V15.5A2.5,2.5,0,0,0,4.5,18H16.167a2.5,2.5,0,0,0,2.5-2.5v-5A.833.833,0,0,0,17.833,9.667Z" transform="translate(2 2)" fill="#021d3d"/>
</svg>
