<svg id="Mail_info" data-name="Mail info" xmlns="http://www.w3.org/2000/svg" width="24" height="24" viewBox="0 0 24 24">
  <rect id="Shape" width="24" height="24"   opacity="0"/>
  <path id="envelope-info" d="M17,11.18a.789.789,0,0,0-.789.789v3.157a.789.789,0,0,1-.789.789H4.368a.789.789,0,0,1-.789-.789V7.558L8.219,12.2a2.368,2.368,0,0,0,3.346,0L14.4,9.373a.792.792,0,1,0-1.121-1.121l-2.825,2.833a.789.789,0,0,1-1.121,0L4.691,6.445h9.147a.789.789,0,1,0,0-1.578H4.368A2.368,2.368,0,0,0,2,7.234v7.892a2.368,2.368,0,0,0,2.368,2.368H15.417a2.368,2.368,0,0,0,2.368-2.368V11.97A.789.789,0,0,0,17,11.18Zm0-7.1a.829.829,0,0,0,.56-.229l.095-.126a.442.442,0,0,0,.071-.134.505.505,0,0,0,.063-.142,1.074,1.074,0,0,0,0-.158.829.829,0,0,0-.229-.56.792.792,0,1,0-1.121,1.121A.829.829,0,0,0,17,4.077Zm0,.789a.789.789,0,0,0-.789.789V8.813a.789.789,0,0,0,1.578,0V5.656A.789.789,0,0,0,17,4.866Z" transform="translate(2 2.506)"  />
</svg>
