<svg id="Mail_block" data-name="Mail block" xmlns="http://www.w3.org/2000/svg" width="24" height="24" viewBox="0 0 24 24">
  <rect id="Shape" width="24" height="24"   opacity="0"/>
  <path id="envelope-block" d="M14.131,11.155a3.947,3.947,0,1,0-2.763-1.161,3.947,3.947,0,0,0,2.763,1.161Zm1.674-2.274a2.368,2.368,0,0,1-2.684.458l3.158-3.158a2.368,2.368,0,0,1-.474,2.7ZM12.458,5.534a2.331,2.331,0,0,1,2.684-.458L11.984,8.234a2.368,2.368,0,0,1,.474-2.7Zm4.042,6.41a.789.789,0,0,0-.789.789v3.158a.789.789,0,0,1-.789.789H3.868a.789.789,0,0,1-.789-.789V8.32l4.642,4.642a2.364,2.364,0,0,0,3.371-.024.787.787,0,0,0-1.129-1.1.789.789,0,0,1-1.105,0L4.192,7.207H7.816a.789.789,0,1,0,0-1.579H3.868A2.368,2.368,0,0,0,1.5,8v7.895A2.368,2.368,0,0,0,3.868,18.26H14.921a2.368,2.368,0,0,0,2.368-2.368V12.733A.789.789,0,0,0,16.5,11.944Z" transform="translate(2.5 1.74)"  />
</svg>
