<svg id="Mail_download_alt" data-name="Mail download alt" xmlns="http://www.w3.org/2000/svg" width="24" height="24" viewBox="0 0 24 24">
  <rect id="Shape" width="24" height="24" fill="none" opacity="0.12"/>
  <path id="envelope-download-alt" d="M9.992,7.372a.794.794,0,0,0,1.127,0l1.587-1.587a.794.794,0,1,0-1.127-1.119l-.23.23V2.714a.794.794,0,0,0-1.587,0V4.9l-.23-.23A.794.794,0,0,0,8.4,5.785ZM13.73,9.19H7.381A2.381,2.381,0,0,0,5,11.571v3.968A2.381,2.381,0,0,0,7.381,17.92H13.73a2.381,2.381,0,0,0,2.381-2.381V11.571A2.381,2.381,0,0,0,13.73,9.19ZM13.4,10.777l-2.286,2.317a.794.794,0,0,1-1.111,0L7.714,10.777Zm1.127,4.762a.794.794,0,0,1-.794.794H7.381a.794.794,0,0,1-.794-.794V11.9l2.286,2.286a2.381,2.381,0,0,0,3.365,0L14.524,11.9Z" transform="translate(1.621 2.08)" fill="#021d3d"/>
</svg>
