<svg id="Mail_warning" data-name="Mail warning" xmlns="http://www.w3.org/2000/svg" width="24" height="24" viewBox="0 0 24 24">
  <rect id="Shape" width="24" height="24" fill="#021d3d" opacity="0"/>
  <path id="Required" d="M16.25,10.75a.75.75,0,0,0-.75.75v3a.75.75,0,0,1-.75.75H4.25a.75.75,0,0,1-.75-.75V7.307l4.41,4.41a2.25,2.25,0,0,0,3.18,0l2.692-2.685a.753.753,0,1,0-1.065-1.065L10.032,10.66a.75.75,0,0,1-1.065,0L4.558,6.25H13.25a.75.75,0,1,0,0-1.5h-9A2.25,2.25,0,0,0,2,7v7.5a2.25,2.25,0,0,0,2.25,2.25h10.5A2.25,2.25,0,0,0,17,14.5v-3A.75.75,0,0,0,16.25,10.75Zm0-8.25a.75.75,0,0,0-.75.75v3a.75.75,0,1,0,1.5,0v-3A.75.75,0,0,0,16.25,2.5ZM16.1,7.75a.48.48,0,0,0-.135.045.57.57,0,0,0-.135.068l-.112.09a.787.787,0,0,0-.218.533.922.922,0,0,0,0,.142.45.45,0,0,0,.045.142.57.57,0,0,0,.068.135,1.185,1.185,0,0,0,.09.113.75.75,0,0,0,1.065,0l.09-.113a.57.57,0,0,0,.067-.135.45.45,0,0,0,.045-.142.922.922,0,0,0,0-.142.75.75,0,0,0-.9-.75Z" transform="translate(2.5 1.25)" fill="#021d3d"/>
</svg>
