<svg id="Mail_edit" data-name="Mail edit" xmlns="http://www.w3.org/2000/svg" width="24" height="24" viewBox="0 0 24 24">
  <rect id="Shape" width="24" height="24" fill="none" opacity="0.12"/>
  <path id="envelope-edit" d="M11.481,9.619h1.912a.79.79,0,0,0,.561-.229l3.619-3.618a.79.79,0,0,0,0-1.122L15.66,2.738a.79.79,0,0,0-1.122,0L10.92,6.356a.83.83,0,0,0-.229.561V8.829A.79.79,0,0,0,11.481,9.619Zm.79-2.37L15.1,4.421l.79.79L13.061,8.039h-.79Zm4.74,1.58a.79.79,0,0,0-.79.79v5.53a.79.79,0,0,1-.79.79H4.37a.79.79,0,0,1-.79-.79V7.557l4.646,4.653a2.37,2.37,0,0,0,3.374,0A.791.791,0,1,0,10.47,11.1a.79.79,0,0,1-1.106,0L4.694,6.443H8.321a.79.79,0,1,0,0-1.58H4.37A2.37,2.37,0,0,0,2,7.233v7.9A2.37,2.37,0,0,0,4.37,17.5H15.431a2.37,2.37,0,0,0,2.37-2.37V9.6a.79.79,0,0,0-.79-.79Z" transform="translate(2 2.496)" fill="#021d3d"/>
</svg>
