<svg id="Mail_question" data-name="Mail question" xmlns="http://www.w3.org/2000/svg" width="24" height="24" viewBox="0 0 24 24">
  <rect id="Shape" width="24" height="24" fill="none" opacity="0.12"/>
  <path id="envelope-question" d="M13.66,4.766a.789.789,0,0,0,1.074-.292.791.791,0,1,1,.687,1.184.789.789,0,1,0,0,1.579,2.368,2.368,0,1,0-2.053-3.553.789.789,0,0,0,.292,1.082ZM17,11.184a.789.789,0,0,0-.789.789v3.158a.789.789,0,0,1-.789.789H4.368a.789.789,0,0,1-.789-.789V7.56l4.642,4.65a2.368,2.368,0,0,0,3.347,0l1.295-1.295a.793.793,0,0,0-1.121-1.121l-1.295,1.295a.789.789,0,0,1-1.105,0L4.692,6.447h5.992a.789.789,0,1,0,0-1.579H4.368A2.368,2.368,0,0,0,2,7.237v7.895A2.368,2.368,0,0,0,4.368,17.5H15.421a2.368,2.368,0,0,0,2.368-2.368V11.973A.789.789,0,0,0,17,11.184ZM14.86,8.255a.789.789,0,0,0,0,1.121l.118.095a.6.6,0,0,0,.142.071.505.505,0,0,0,.142.047h.158a.788.788,0,1,0-.561-1.334Z" transform="translate(2 2.5)" fill="#021d3d"/>
</svg>
