<svg id="Mail_redo" data-name="Mail redo" xmlns="http://www.w3.org/2000/svg" width="24" height="24" viewBox="0 0 24 24">
  <rect id="Shape" width="24" height="24" fill="none" opacity="0.12"/>
  <path id="envelope-redo" d="M16.5,11.944a.789.789,0,0,0-.789.789v3.158a.789.789,0,0,1-.789.789H3.868a.789.789,0,0,1-.789-.789V8.321l4.642,4.642a2.364,2.364,0,0,0,3.371-.024.787.787,0,0,0-1.129-1.1.789.789,0,0,1-1.105,0L4.192,7.207H7.816a.789.789,0,1,0,0-1.579H3.868A2.368,2.368,0,0,0,1.5,8v7.895A2.368,2.368,0,0,0,3.868,18.26H14.921a2.368,2.368,0,0,0,2.368-2.368V12.734A.789.789,0,0,0,16.5,11.944ZM17.29,3.26a.789.789,0,0,0-.789.789h0a3.953,3.953,0,1,0,.237,6.111.792.792,0,0,0-1.042-1.192,2.368,2.368,0,1,1,.2-3.347h-.971a.789.789,0,1,0,0,1.579H17.29a.789.789,0,0,0,.789-.789V4.042A.789.789,0,0,0,17.29,3.26Z" transform="translate(2.5 1.74)" fill="#021d3d"/>
</svg>
