<svg id="Mail_download" data-name="Mail download" xmlns="http://www.w3.org/2000/svg" width="24" height="24" viewBox="0 0 24 24">
  <rect id="Shape" width="24" height="24" fill="none" opacity="0.12"/>
  <path id="envelope-download" d="M15.75,11a.75.75,0,0,0-.75.75v3a.75.75,0,0,1-.75.75H3.75A.75.75,0,0,1,3,14.75V7.557l4.41,4.417a2.25,2.25,0,0,0,3.18,0l1.23-1.23A.753.753,0,0,0,10.755,9.68l-1.23,1.23a.75.75,0,0,1-1.05,0L4.058,6.5H9A.75.75,0,1,0,9,5H3.75A2.25,2.25,0,0,0,1.5,7.25v7.5A2.25,2.25,0,0,0,3.75,17h10.5a2.25,2.25,0,0,0,2.25-2.25v-3A.75.75,0,0,0,15.75,11Zm1.283-5.032a.75.75,0,0,0-1.065,0L15,6.942V2.75a.75.75,0,0,0-1.5,0V6.942l-.968-.975a.753.753,0,1,0-1.065,1.065l2.25,2.25a.75.75,0,0,0,.248.158.705.705,0,0,0,.57,0,.75.75,0,0,0,.248-.158l2.25-2.25a.75.75,0,0,0,0-1.065Z" transform="translate(2.5 3)" fill="#021d3d"/>
</svg>
