<svg id="Mail_open" data-name="Mail open" xmlns="http://www.w3.org/2000/svg" width="24" height="24" viewBox="0 0 24 24">
  <rect id="Shape" width="24" height="24"   opacity="0"/>
  <path id="envelope-open" d="M16.769,7.456h0L11.8,2.624a2.264,2.264,0,0,0-3.12,0l-4.968,4.8h0A2.08,2.08,0,0,0,3,8.968v6.864A2.2,2.2,0,0,0,5.224,18h9.952A2.2,2.2,0,0,0,17.4,15.833V8.968A2.136,2.136,0,0,0,16.769,7.456ZM9.752,3.776a.664.664,0,0,1,.9,0L15,8l-4.376,4.224a.664.664,0,0,1-.9,0L5.4,8ZM15.8,15.833a.608.608,0,0,1-.624.568H5.224a.608.608,0,0,1-.624-.568V9.48L7.84,12.6l-1.328,1.28A.806.806,0,0,0,7.64,15.033l1.416-1.36a2.24,2.24,0,0,0,2.336,0l1.416,1.36a.806.806,0,0,0,1.128-1.152L12.6,12.6l3.2-3.12Z" transform="translate(2 2)"  />
</svg>
