<svg xmlns="http://www.w3.org/2000/svg" width="24" height="24" viewBox="0 0 24 24">
  <g id="Forensic" transform="translate(1 1)">
    <g id="public_black_24dp" transform="translate(-1 -1)">
      <path id="Path_27353" data-name="Path 27353" d="M0,0H24V24H0Z" fill="none"/>
      <path id="Path_27354" data-name="Path 27354" d="M12,2A10,10,0,1,0,22,12,10,10,0,0,0,12,2ZM11,19.93A7.988,7.988,0,0,1,4,12a8.118,8.118,0,0,1,.21-1.79L9,15v1a2.006,2.006,0,0,0,2,2Zm6.9-2.54A1.984,1.984,0,0,0,16,16H15V13a1,1,0,0,0-1-1H8V10h2a1,1,0,0,0,1-1V7h2a2.006,2.006,0,0,0,2-2V4.59a7.982,7.982,0,0,1,2.9,12.8Z"/>
    </g>
  </g>
</svg>
