<svg id="Map" xmlns="http://www.w3.org/2000/svg" width="24" height="24" viewBox="0 0 24 24">
  <rect id="Shape" width="24" height="24"  opacity="0"/>
  <path id="Map-2" data-name="Map" d="M16.49,4.537l-4.5-1.5h-.052a.525.525,0,0,0-.105,0H11.51L7.25,4.5,2.99,3.037A.756.756,0,0,0,2,3.75v10.5a.75.75,0,0,0,.51.713l4.5,1.5h0a.75.75,0,0,0,.465,0h0l4.275-1.425L16.01,16.5a.892.892,0,0,0,.24,0,.7.7,0,0,0,.435-.142A.75.75,0,0,0,17,15.75V5.25A.75.75,0,0,0,16.49,4.537ZM6.5,14.707l-3-1V4.792l3,1Zm4.5-1-3,1V5.79l3-1Zm4.5,1-3-1V4.792l3,1Z" transform="translate(2.5 2.249)"  />
</svg>
