<svg id="Mask_medical" data-name="Mask medical" xmlns="http://www.w3.org/2000/svg" width="24" height="24" viewBox="0 0 24 24">
  <rect id="Base" width="24" height="24" fill="#021d3d" opacity="0"/>
  <path id="np_face-mask_3561444_000000" d="M25.024,15.691a3.333,3.333,0,1,0-4.713-4.713l-.189.188a1.336,1.336,0,0,0-1.885,0l-7.071,7.071a1.335,1.335,0,0,0,0,1.884l-.188.189a3.333,3.333,0,0,0,4.714,4.714l.189-.188a1.337,1.337,0,0,0,1.885,0l7.071-7.07a1.339,1.339,0,0,0,0-1.886Zm-11.03,5.373,7.071-7.071.943.943-7.071,7.071Zm5.185-8.955.943.943-7.071,7.07-.943-.943ZM14.748,24.081a2,2,0,0,1-2.829-2.827l.19-.189,2.828,2.827Zm2.075-.187-.943-.943,7.071-7.071.943.944Zm7.259-9.144-.188.188-2.829-2.829.188-.188a2,2,0,0,1,2.829,2.829Z" transform="translate(12 -12.969) rotate(45)" fill="#021d3d"/>
</svg>
