<svg id="medal" xmlns="http://www.w3.org/2000/svg" width="24" height="24" viewBox="0 0 24 24">
  <rect id="Shape" width="24" height="24"   opacity="0"/>
  <path id="medal-2" data-name="medal" d="M16.68,4.823a.75.75,0,0,0-.352-.457l-3.9-2.25a.75.75,0,0,0-1.027.27L9.646,5.43,7.891,2.386a.75.75,0,0,0-1.027-.27l-3.9,2.25a.745.745,0,0,0-.277,1.02l3,5.122a4.432,4.432,0,0,0-.54,1.995,4.5,4.5,0,1,0,8.5-2.04l2.925-5.069A.75.75,0,0,0,16.68,4.823ZM4.4,5.288l2.595-1.5L9.406,8a4.454,4.454,0,0,0-2.76,1.185ZM9.646,15.5a3,3,0,1,1,3-3A3,3,0,0,1,9.646,15.5Zm3-6.336A4.424,4.424,0,0,0,11.251,8.3L10.516,6.93,12.33,3.788l2.595,1.5Z" transform="translate(2.412 2.987)"  />
</svg>
