<svg id="medal_award" data-name="medal award" xmlns="http://www.w3.org/2000/svg" width="24" height="24" viewBox="0 0 24 24">
  <rect id="Shape" width="24" height="24" fill="#021d3d" opacity="0"/>
  <path id="award" d="M18.869,15.571l-2.407-4.156a6.128,6.128,0,0,0,.746-2.948,6.216,6.216,0,0,0-12.433,0,6.128,6.128,0,0,0,.746,2.948L3.115,15.571A.888.888,0,0,0,3.888,16.9H6.436l1.3,2.185a.93.93,0,0,0,.773.444H8.63a.888.888,0,0,0,.648-.435l1.714-2.948,1.714,2.975a.888.888,0,0,0,.648.426h.124A.888.888,0,0,0,14.1,19.3a.773.773,0,0,0,.151-.186l1.3-2.185H18.1a.9.9,0,0,0,.773-1.359ZM8.5,16.93l-.79-1.323a.888.888,0,0,0-.755-.435H5.415l1.27-2.2A6.216,6.216,0,0,0,9.855,14.6Zm2.5-4.023a4.44,4.44,0,1,1,4.44-4.44,4.44,4.44,0,0,1-4.44,4.44Zm4.041,2.265a.888.888,0,0,0-.755.435l-.79,1.323-1.35-2.353A6.27,6.27,0,0,0,15.3,12.942l1.27,2.2Z" transform="translate(1.004 0.75)" fill="#021d3d"/>
</svg>
