<svg id="Mobile_Phone" data-name="Mobile Phone" xmlns="http://www.w3.org/2000/svg" width="24" height="24" viewBox="0 0 24 24">
  <rect id="Shape" width="24" height="24" fill="#021d3d" opacity="0"/>
  <path id="Mobile" d="M10.782,12.717l-.112-.09a.57.57,0,0,0-.135-.068L10.4,12.5a.75.75,0,0,0-.683.2.863.863,0,0,0-.157.247.75.75,0,0,0,.975.983,1.1,1.1,0,0,0,.248-.165.742.742,0,0,0,0-1.05ZM13.25,2h-6A2.25,2.25,0,0,0,5,4.25v10.5A2.25,2.25,0,0,0,7.25,17h6a2.25,2.25,0,0,0,2.25-2.25V4.25A2.25,2.25,0,0,0,13.25,2ZM14,14.75a.75.75,0,0,1-.75.75h-6a.75.75,0,0,1-.75-.75V4.25a.75.75,0,0,1,.75-.75h6a.75.75,0,0,1,.75.75Z" transform="translate(1.75 2.5)" fill="#021d3d"/>
</svg>
