<svg id="moon" xmlns="http://www.w3.org/2000/svg" width="24" height="24" viewBox="0 0 24 24">
  <rect id="Shape" width="24" height="24" fill="none" opacity="0.12"/>
  <path id="moon-2" data-name="moon" d="M18.159,11.1a.823.823,0,0,0-.864-.115,6.622,6.622,0,0,1-2.772.6,6.7,6.7,0,0,1-6.7-6.663,7.066,7.066,0,0,1,.206-1.645.823.823,0,0,0-1.094-.93,8.341,8.341,0,1,0,11.516,9.616A.823.823,0,0,0,18.159,11.1Zm-7.815,5.5A6.7,6.7,0,0,1,6.182,4.7v.222a8.349,8.349,0,0,0,8.341,8.341,8.053,8.053,0,0,0,1.727-.181,6.671,6.671,0,0,1-5.906,3.554Z" transform="translate(1.98 1.703)" fill="#021d3d"/>
</svg>
