<svg id="Moon" xmlns="http://www.w3.org/2000/svg" width="24" height="24" viewBox="0 0 24 24">
  <rect id="Shape" width="24" height="24"  opacity="0"/>
  <path id="Moon-2" data-name="Moon" d="M17.15,10.551a.771.771,0,0,0-.81-.108,6.208,6.208,0,0,1-2.6.563A6.285,6.285,0,0,1,7.464,4.759a6.624,6.624,0,0,1,.193-1.542.771.771,0,0,0-1.026-.871,7.82,7.82,0,1,0,10.8,9.015A.771.771,0,0,0,17.15,10.551ZM9.824,15.71a6.277,6.277,0,0,1-3.9-11.159v.208a7.827,7.827,0,0,0,7.82,7.82,7.55,7.55,0,0,0,1.619-.17,6.254,6.254,0,0,1-5.537,3.331Z" transform="translate(2.482 2.202)"  />
</svg>
