<svg xmlns="http://www.w3.org/2000/svg" width="24" height="24" viewBox="0 0 24 24">
  <g id="Watch_List" data-name="Watch List" transform="translate(16.473 6)">
    <rect id="Rectangle_4110" data-name="Rectangle 4110" width="24" height="24" rx="12" transform="translate(-16.473 -6)" opacity="0"/>
    <g id="Video_Camera_CCTV" data-name="Video Camera / CCTV" transform="translate(-12.473 -2)">
      <rect id="Base" width="16" height="16" opacity="0"/>
      <path id="ABX_Camera_edited" data-name="ABX Camera_edited" d="M12.55,4.9a1.208,1.208,0,0,0-.931-.4H5.631a1.314,1.314,0,0,0-.965.4,1.262,1.262,0,0,0-.366.931V9.157a1.377,1.377,0,0,0,.366.965,1.377,1.377,0,0,0,.965.366H6.795v1.83H5.3v-.665a.451.451,0,0,0-.133-.333.509.509,0,0,0-.366-.166.441.441,0,0,0-.5.5V13.98a.441.441,0,0,0,.5.5.441.441,0,0,0,.5-.5v-.665h2a.407.407,0,0,0,.333-.166.407.407,0,0,0,.166-.333V10.488h2.495a.883.883,0,0,0,.7-.233q.028-.028.432-.765h2.428a.588.588,0,0,0,.665-.665V6.163a.705.705,0,0,0-.166-.466.677.677,0,0,0-.5-.2h-.965a1.147,1.147,0,0,0-.333-.6M10.72,8.691l-.432.8H5.631A.294.294,0,0,1,5.3,9.157V5.831A.294.294,0,0,1,5.631,5.5h5.988a.287.287,0,0,1,.3.233,14.928,14.928,0,0,1-1.2,2.961m1.83-1.7.266-.5h.7v2H11.951A12.419,12.419,0,0,0,12.55,6.995Z" transform="translate(-1.373 -1.506)"/>
      <path id="Polygon_2" data-name="Polygon 2" d="M2,0,4,2H0Z" transform="translate(13 9) rotate(90)"/>
    </g>
  </g>
</svg>
