<svg id="New_messages" data-name="New messages" xmlns="http://www.w3.org/2000/svg" width="24" height="24" viewBox="0 0 24 24">
  <rect id="Shape" width="24" height="24" fill="#021d3d" opacity="0"/>
  <path id="Subtraction_2" data-name="Subtraction 2" d="M14.252,15a.768.768,0,0,1-.535-.217L10.943,12H2.252A2.254,2.254,0,0,1,0,9.75V2.25A2.255,2.255,0,0,1,2.252,0h2.5a6.826,6.826,0,0,0-.178,1.5H2.252A.75.75,0,0,0,1.5,2.25v7.5a.753.753,0,0,0,.752.752h9a.769.769,0,0,1,.531.217L13.5,12.445V8.988A9.269,9.269,0,0,0,15,8.734v5.518a.75.75,0,0,1-.467.689A.684.684,0,0,1,14.252,15Zm-6-6.752H3.75a.75.75,0,0,1,0-1.5H6.866A8.14,8.14,0,0,0,8.742,8.07.755.755,0,0,1,8.252,8.252Zm-2.617-3H3.75a.752.752,0,0,1,0-1.5H4.926a7.057,7.057,0,0,0,.707,1.5Z" transform="translate(4.499 4.499)" fill="#021d3d"/>
  <ellipse id="Ellipse" cx="6.75" cy="6" rx="6.75" ry="6" transform="translate(10.5)" fill="#021d3d"/>
  <text id="_3" data-name="3" transform="translate(17 8.5)" fill="#021d3d" stroke="rgba(0,0,0,0)" stroke-width="1" font-size="7" font-family="Montserrat-Bold, Montserrat" font-weight="700"><tspan x="-2.072" y="0">3</tspan></text>
</svg>
