<svg id="Newspaper" xmlns="http://www.w3.org/2000/svg" width="24" height="24" viewBox="0 0 24 24">
  <rect id="Shape" width="24" height="24" fill="#021d3d" opacity="0"/>
  <path id="Newspaper-2" data-name="Newspaper" d="M13.25,9H12.5a.75.75,0,0,0,0,1.5h.75a.75.75,0,0,0,0-1.5Zm0,3H12.5a.75.75,0,0,0,0,1.5h.75a.75.75,0,0,0,0-1.5ZM8.75,7.5h4.5a.75.75,0,1,0,0-1.5H8.75a.75.75,0,1,0,0,1.5ZM16.25,3H5.75A.75.75,0,0,0,5,3.75V6H2.75A.75.75,0,0,0,2,6.75v7.5A2.25,2.25,0,0,0,4.25,16.5H14a3,3,0,0,0,3-3V3.75A.75.75,0,0,0,16.25,3ZM5,14.25a.75.75,0,0,1-1.5,0V7.5H5Zm10.5-.75A1.5,1.5,0,0,1,14,15H6.365a2.25,2.25,0,0,0,.135-.75V4.5h9Zm-6.75-3H9.5A.75.75,0,0,0,9.5,9H8.75a.75.75,0,0,0,0,1.5Zm0,3H9.5a.75.75,0,0,0,0-1.5H8.75a.75.75,0,0,0,0,1.5Z" transform="translate(2.5 2.249)" fill="#021d3d"/>
</svg>
