<svg xmlns="http://www.w3.org/2000/svg" width="25" height="24" viewBox="0 0 25 24">
  <path opacity="0.12" d="M6.332 11.397h9.983c0.18 0.001 0.325 0.147 0.327 0.326v0.163c-0.001 0.18-0.147 0.325-0.326 0.327h-9.983c-0.18-0.001-0.325-0.147-0.327-0.326v-0.163c0-0.18 0.146-0.327 0.327-0.327v0z"></path>
  <path opacity="0.12" d="M6.332 7.972h10.309c0.18 0.001 0.325 0.147 0.327 0.326v0.163c-0.001 0.18-0.147 0.325-0.326 0.327h-10.309c-0.18-0.001-0.325-0.147-0.327-0.326v-0.163c0-0.18 0.146-0.327 0.327-0.327v0z"></path>
  <path opacity="0.12" d="M15.090 21.821c-0.407 0-1.795 0.015-2.187 0.015h-2.757c-1.143 0-2.35-0.015-3.492-0.129-1.272-0.129-2.985-0.539-3.949-1.663-0.995-1.223-1.238-2.332-1.321-3.832-0.049-0.979-0.079-2.43-0.079-4.306v-1.306c0-1.565 0.034-2.806 0.079-3.669 0.079-1.516 0.327-2.609 1.337-3.817 0.946-1.143 2.674-1.534 3.949-1.663 1.185-0.109 2.563-0.171 3.955-0.171 0.301 0 0.601 0.003 0.901 0.009l-0.045-0.001h0.163c0.259-0.005 0.563-0.009 0.869-0.009 1.37 0 2.726 0.062 4.065 0.184l-0.172-0.013c1.272 0.129 2.985 0.539 3.949 1.663 0.979 1.158 1.109 2.218 1.306 3.571l0.049 0.311c0.079 0.603 0.114 2.593 0.114 4.404 0.456 0.129 0.896-0.179 1.306 0.034 0.015-2.024-0.015-3.849-0.114-4.617l-0.049-0.293c-0.198-1.436-0.376-2.791-1.583-4.226-0.995-1.174-2.609-1.891-4.811-2.137-1.209-0.108-2.616-0.169-4.037-0.169-0.306 0-0.611 0.003-0.915 0.009l0.046-0.001h-0.163c-0.26-0.005-0.566-0.008-0.872-0.008-1.433 0-2.852 0.062-4.253 0.184l0.182-0.013c-2.233 0.212-3.849 0.93-4.845 2.119-1.238 1.468-1.547 2.857-1.632 4.583-0.049 0.881-0.079 2.137-0.079 3.736v1.306c0 1.891 0.034 3.36 0.079 4.371 0.098 1.746 0.407 3.114 1.632 4.583 0.995 1.174 2.609 1.891 4.811 2.137 0.954 0.095 2.061 0.15 3.181 0.15 0.137 0 0.274-0.001 0.411-0.002l-0.021 0h2.808c0.767 0 1.547 0 2.35-0.049-0.424-0.38 0.161-0.802-0.165-1.276z"></path>
  <path opacity="0.12" d="M20.049 13.258c-0.157-0.019-0.338-0.030-0.522-0.030-2.521 0-4.565 2.044-4.565 4.565s2.044 4.565 4.565 4.565c2.337 0 4.265-1.757 4.533-4.022l0.002-0.022c0.019-0.156 0.030-0.336 0.030-0.52 0-2.338-1.756-4.266-4.021-4.536l-0.022-0.002zM23.099 18.198c-0.212 1.802-1.73 3.187-3.572 3.187-1.985 0-3.595-1.609-3.595-3.595s1.609-3.595 3.595-3.595c0.144 0 0.286 0.008 0.425 0.025l-0.017-0.002c1.802 0.216 3.186 1.736 3.186 3.579 0 0.141-0.008 0.281-0.024 0.418l0.002-0.017z"></path>
  <path opacity="0.12" d="M22.658 20.613l2.579 2.56-0.653 0.733-2.579-2.56z"></path>
  <path opacity="0.12" d="M22.658 20.612c0.098 0.089 0.159 0.217 0.159 0.359 0 0.267-0.217 0.484-0.484 0.484s-0.484-0.217-0.484-0.484c0-0.125 0.048-0.239 0.126-0.325l-0 0c0.089-0.097 0.217-0.158 0.359-0.158 0.125 0 0.239 0.047 0.325 0.125l-0-0z"></path>
  <path opacity="0.12" d="M25.236 23.156c0.098 0.089 0.159 0.217 0.159 0.359 0 0.267-0.217 0.484-0.484 0.484s-0.484-0.217-0.484-0.484c0-0.125 0.048-0.239 0.126-0.325l-0 0c0.089-0.097 0.217-0.158 0.359-0.158 0.125 0 0.239 0.047 0.325 0.125l-0-0z"></path>
  <path opacity="0.12" d="M15.743 22.456c0.001 0.010 0.001 0.021 0.001 0.033 0 0.334-0.271 0.605-0.605 0.605-0.005 0-0.011-0-0.016-0l0.001 0c-0.028 0.004-0.059 0.007-0.092 0.007-0.354 0-0.641-0.287-0.641-0.641s0.287-0.641 0.641-0.641c0.021 0 0.043 0.001 0.064 0.003l-0.003-0c0.004-0 0.008-0 0.013-0 0.351 0 0.636 0.284 0.638 0.635v0z"></path>
  <path opacity="0.12" d="M23.098 11.333c0.001 0.010 0.001 0.022 0.001 0.034 0 0.333-0.27 0.603-0.603 0.603-0.006 0-0.012-0-0.018-0l0.001 0c-0.019 0.002-0.042 0.003-0.064 0.003-0.352 0-0.638-0.286-0.638-0.638s0.286-0.638 0.638-0.638c0.011 0 0.021 0 0.032 0.001l-0.002-0c0.008-0 0.017-0.001 0.026-0.001 0.346 0 0.627 0.281 0.627 0.627 0 0.003-0 0.006-0 0.009v-0z"></path>
  <path opacity="0.12" d="M13.312 15.069c0 0.001 0 0.003 0 0.004 0 0.222-0.18 0.403-0.403 0.403-0.001 0-0.003 0-0.004-0h-6.493c-0.001 0-0.003 0-0.004 0-0.222 0-0.403-0.18-0.403-0.403 0-0.001 0-0.003 0-0.004v0c-0-0.001-0-0.003-0-0.004 0-0.222 0.18-0.403 0.403-0.403 0.001 0 0.003 0 0.004 0h6.493c0.002-0 0.005-0 0.007-0 0.221 0 0.4 0.179 0.4 0.4 0 0.003-0 0.005-0 0.008v-0z"></path>
</svg>
