<svg id="Note" xmlns="http://www.w3.org/2000/svg" width="24" height="24" viewBox="0 0 24 24">
  <rect id="Shape" width="24" height="24"  opacity="0"/>
  <path id="Misc" d="M12.75,11h-6a.75.75,0,0,0,0,1.5h6a.75.75,0,0,0,0-1.5Zm0-3H8.25a.75.75,0,0,0,0,1.5h4.5a.75.75,0,0,0,0-1.5Zm3-4.5H13.5V2.75a.75.75,0,0,0-1.5,0V3.5H10.5V2.75a.75.75,0,1,0-1.5,0V3.5H7.5V2.75a.75.75,0,1,0-1.5,0V3.5H3.75A.75.75,0,0,0,3,4.25v10.5A2.25,2.25,0,0,0,5.25,17h9a2.25,2.25,0,0,0,2.25-2.25V4.25A.75.75,0,0,0,15.75,3.5ZM15,14.75a.75.75,0,0,1-.75.75h-9a.75.75,0,0,1-.75-.75V5H6v.75a.75.75,0,1,0,1.5,0V5H9v.75a.75.75,0,0,0,1.5,0V5H12v.75a.75.75,0,0,0,1.5,0V5H15Z" transform="translate(2.249 2.5)"  />
</svg>
