<svg id="page" xmlns="http://www.w3.org/2000/svg" width="24" height="24" viewBox="0 0 24 24">
  <rect id="Shape" width="24" height="24"  opacity="0"/>
  <path id="Page-2" data-name="Page" d="M2.256,15A2.255,2.255,0,0,1,0,12.745V2.246A2.252,2.252,0,0,1,2.256,0H9.75a2.252,2.252,0,0,1,2.256,2.246v10.5A2.255,2.255,0,0,1,9.75,15ZM1.5,2.246v10.5a.755.755,0,0,0,.752.756H9.75a.752.752,0,0,0,.748-.756V2.246A.746.746,0,0,0,9.75,1.5H2.256A.749.749,0,0,0,1.5,2.246Zm2.061,8.814a.749.749,0,1,1,0-1.5h4.5a.749.749,0,1,1,0,1.5Zm1.5-3a.749.749,0,0,1,0-1.5h3a.749.749,0,1,1,0,1.5Z" transform="translate(5.999 4.499)"  />
</svg>
