<svg id="panorama" xmlns="http://www.w3.org/2000/svg" width="24" height="24" viewBox="0 0 24 24">
  <rect id="Shape" width="24" height="24" fill="none"  opacity="0"/>
  <path id="panorama-h" d="M17.632,5.126a.8.8,0,0,0-.8-.056A17.016,17.016,0,0,1,10,6.382,17.016,17.016,0,0,1,3.136,5.07.784.784,0,0,0,2,5.8v9.6a.818.818,0,0,0,1.168.728A17.016,17.016,0,0,1,10,14.813a17.016,17.016,0,0,1,6.864,1.312.848.848,0,0,0,.336.072.8.8,0,0,0,.8-.8V5.8a.8.8,0,0,0-.368-.672ZM16.4,14.213a19.816,19.816,0,0,0-6.4-1,19.816,19.816,0,0,0-6.4,1v-7.2a19.816,19.816,0,0,0,6.4,1,19.816,19.816,0,0,0,6.4-1Z" transform="translate(2 1.012)" fill="#021d3d"/>
</svg>
