<svg id="Paper_plan" data-name="Paper plan" xmlns="http://www.w3.org/2000/svg" width="24" height="24" viewBox="0 0 24 24">
  <rect id="Shape" width="24" height="24" fill="#021d3d" opacity="0"/>
  <path id="Send" d="M15.754,7.491l-10.5-5.25A2.25,2.25,0,0,0,2.2,5.166L4,9.194H4a.8.8,0,0,1,0,.615L2.2,13.836A2.25,2.25,0,0,0,4.25,17a2.355,2.355,0,0,0,1.012-.24l10.5-5.25a2.25,2.25,0,0,0,0-4.02Zm-.667,2.677-10.5,5.25a.75.75,0,0,1-1.012-.975l1.792-4.027a1.5,1.5,0,0,0,.06-.165h5.167a.75.75,0,0,0,0-1.5H5.427a1.5,1.5,0,0,0-.06-.165L3.575,4.559a.75.75,0,0,1,1.012-.975l10.5,5.25a.75.75,0,0,1,0,1.335Z" transform="translate(2.5 2.495)" fill="#021d3d"/>
</svg>
