<svg id="Pencil_Edit" data-name="Pencil / Edit" xmlns="http://www.w3.org/2000/svg" width="24" height="24" viewBox="0 0 24 24">
  <rect id="Shape" width="24" height="24"  opacity="0"/>
  <path id="Edit" d="M17,5.93a.75.75,0,0,0-.217-.532L13.6,2.217a.761.761,0,0,0-1.065,0L10.414,4.34h0l-8.2,8.2A.75.75,0,0,0,2,13.069v3.18a.75.75,0,0,0,.75.75H5.93a.75.75,0,0,0,.57-.217l8.152-8.2h0L16.781,6.5a.892.892,0,0,0,.165-.247.75.75,0,0,0,0-.18.525.525,0,0,0,0-.1ZM5.622,15.5H3.5V13.377L10.947,5.93l2.122,2.122Zm8.5-8.5L12,4.872l1.065-1.057L15.184,5.93Z" transform="translate(2.5 2.5)"  />
</svg>
