<svg id="People_Lists" data-name="People Lists" xmlns="http://www.w3.org/2000/svg" width="24" height="24" viewBox="0 0 24 24">
  <g id="Watchlists">
    <path id="Shape" d="M0,0H24V24H0Z" fill="none" opacity="0.12"/>
    <path id="file-shield-alt" d="M6.326,8a.826.826,0,1,0,0,1.651h3.3A.826.826,0,0,0,9.629,8Zm3.129,6.647H6.326a.826.826,0,0,0,0,1.651H9.454a.826.826,0,1,0,0-1.651Zm.174-3.3h-3.3a.826.826,0,1,0,0,1.651h3.3a.826.826,0,0,0,0-1.651Z" transform="translate(-2.501 0.229)" fill="#021d3d"/>
    <path id="chat-bubble-user" d="M12.76,9.972a2.426,2.426,0,0,0,.532-1.5,2.465,2.465,0,0,0-4.929,0,2.426,2.426,0,0,0,.532,1.5A3.745,3.745,0,0,0,7.4,11.7a.749.749,0,1,0,1.378.584,2.247,2.247,0,0,1,2.053-1.363h0a2.247,2.247,0,0,1,2.06,1.363.749.749,0,0,0,.689.457.817.817,0,0,0,.292-.06.749.749,0,0,0,.4-.981A3.745,3.745,0,0,0,12.76,9.972Zm-1.933-.547h0a.966.966,0,1,1,.966-.959A.966.966,0,0,1,10.827,9.425Z" transform="translate(4.119 3.051)" fill="#021d3d"/>
    <path id="ABX_Personnel_edited" data-name="ABX Personnel_edited" d="M16.443,4.55A1.445,1.445,0,0,0,15.286,4H6.714a1.629,1.629,0,0,0-1.243.6A2.2,2.2,0,0,0,5,6V18a2.032,2.032,0,0,0,.471,1.4l.043.05h0a1.582,1.582,0,0,0,1.2.55h8.571a1.423,1.423,0,0,0,1.157-.6A1.954,1.954,0,0,0,17,18V6a1.88,1.88,0,0,0-.514-1.35.39.39,0,0,0-.043-.1m-1.157.95a.26.26,0,0,1,.214.15h.043l.043.05a.5.5,0,0,1,.129.3V18a.483.483,0,0,1-.171.35.28.28,0,0,1-.257.15h-.514c.044-.1-7.643-.1-7.628,0H6.714a.476.476,0,0,1-.343-.2v.05A.588.588,0,0,1,6.286,18V6a.679.679,0,0,1,.086-.35.588.588,0,0,1,.343-.15h8.571" transform="translate(4)" fill="#021d3d"/>
  </g>
</svg>
