<svg id="Photo_Camera" xmlns="http://www.w3.org/2000/svg" width="24" height="24" viewBox="0 0 24 24">
  <path id="Path_27310" data-name="Path 27310" d="M0,0H24V24H0Z" opacity="0"/>
  <path id="Path_27311" data-name="Path 27311" d="M14,8.86l3-2.985v8.25L14,11.14V14.5A1.5,1.5,0,0,1,12.5,16h-9A1.5,1.5,0,0,1,2,14.5v-9A1.5,1.5,0,0,1,3.5,4h9A1.5,1.5,0,0,1,14,5.5Zm-1.5-.593V5.5h-9v9h9ZM8,10A1.5,1.5,0,1,1,9.5,8.5,1.5,1.5,0,0,1,8,10Zm0,.75c1.005,0,3,.5,3,1.5V13H5v-.75C5,11.253,6.995,10.75,8,10.75Z" transform="translate(3 2)"/>
</svg>
