<svg id="pin_marker_slash" data-name="pin marker slash" xmlns="http://www.w3.org/2000/svg" width="24" height="24" viewBox="0 0 24 24">
  <rect id="Shape" width="24" height="24"  opacity="0.12"/>
  <path id="map-marker-slash" d="M8.745,4.678a4.689,4.689,0,0,1,5.635,5.627.782.782,0,0,0,.578.946.7.7,0,0,0,.18,0,.782.782,0,0,0,.782-.594A6.253,6.253,0,0,0,8.409,3.139.8.8,0,0,0,8.768,4.7Zm8.66,11.4-3.337-3.337h0L3.336,2.005a.782.782,0,0,0-1.11,1.1L4.735,5.616a6.253,6.253,0,0,0,.657,8.058l3.869,3.869a.782.782,0,0,0,1.11,0L13.5,14.417,16.279,17.2a.782.782,0,1,0,1.11-1.1Zm-7.5-5.283A1.557,1.557,0,0,1,8.252,9.149Zm-.094,5.08L6.5,12.557a4.689,4.689,0,0,1-.641-5.815L7.01,7.891a3.12,3.12,0,0,0,2.806,4.478,3.072,3.072,0,0,0,1.352-.32L12.4,13.283Z" transform="translate(2 2.227)" />
</svg>
