<svg id="pin_marker_minus" data-name="pin marker minus" xmlns="http://www.w3.org/2000/svg" width="24" height="24" viewBox="0 0 24 24">
  <rect id="Shape" width="24" height="24"   opacity="0"/>
  <path id="map-marker-minus" d="M11.846,7.909H8.666a.795.795,0,0,0,0,1.59h3.18a.795.795,0,0,0,0-1.59Zm5.135.143A6.757,6.757,0,1,0,5.487,13.481L9.7,17.7a.795.795,0,0,0,1.129,0l4.2-4.221A6.725,6.725,0,0,0,16.981,8.052ZM13.913,12.36l-3.656,3.656L6.6,12.36A5.159,5.159,0,0,1,5.113,8.211a5.222,5.222,0,0,1,2.3-3.839,5.143,5.143,0,0,1,5.691,0A5.222,5.222,0,0,1,15.4,8.2,5.159,5.159,0,0,1,13.913,12.36Z" transform="translate(1.502 2.063)" />
</svg>
