<svg id="pin_user" data-name="pin user" xmlns="http://www.w3.org/2000/svg" width="24" height="24" viewBox="0 0 24 24">
  <rect id="Shape" width="24" height="24" fill="none" opacity="0.12"/>
  <path id="user-location" d="M12.238,9.033a2.457,2.457,0,1,0-3.976,0,3.713,3.713,0,0,0-.891.8.819.819,0,0,0,1.3,1,2.083,2.083,0,0,1,1.63-.8h0a2.083,2.083,0,0,1,1.63.8.795.795,0,0,0,1.24-.994,3.713,3.713,0,0,0-.93-.8Zm-1.98-.58h0a.867.867,0,1,1,.624-.265.867.867,0,0,1-.624.265Zm6.727-.4a6.758,6.758,0,1,0-11.5,5.431L9.7,17.708a.8.8,0,0,0,1.129,0l4.2-4.222A6.727,6.727,0,0,0,16.985,8.055Zm-3.069,4.31-3.658,3.658L6.6,12.365A5.16,5.16,0,0,1,5.114,8.214a5.224,5.224,0,0,1,2.3-3.84,5.144,5.144,0,0,1,5.693,0A5.224,5.224,0,0,1,15.4,8.2a5.16,5.16,0,0,1-1.487,4.166Z" transform="translate(1.5 2.057)" fill="#021d3d"/>
</svg>
