<svg id="pin_marker_underline" data-name="pin marker underline" xmlns="http://www.w3.org/2000/svg" width="24" height="24" viewBox="0 0 24 24">
  <rect id="Shape" width="24" height="24"  opacity="0.12"/>
  <path id="location-pin-alt" d="M10.406,9.05a1.6,1.6,0,1,0-1.6-1.6A1.6,1.6,0,0,0,10.406,9.05Zm-.568,5.533a.8.8,0,0,0,1.137,0L14.249,11.3a5.437,5.437,0,1,0-7.687,0ZM6.586,7.08a3.837,3.837,0,1,1,6.534,3.091l-2.714,2.714L7.691,10.171a3.819,3.819,0,0,1-1.1-3.091Zm9.424,9.336H4.8a.8.8,0,1,0,0,1.6h11.21a.8.8,0,1,0,0-1.6Z" transform="translate(2 1.982)" />
</svg>
