<svg id="pin_marker_shiled" data-name="pin marker shiled" xmlns="http://www.w3.org/2000/svg" width="24" height="24" viewBox="0 0 24 24">
  <rect id="Shape" width="24" height="24" fill="none" opacity="0.12"/>
  <path id="map-marker-shield" d="M12.175,5.59a1.781,1.781,0,0,1-1.447-.31.8.8,0,0,0-.938,0,1.781,1.781,0,0,1-1.447.31.794.794,0,0,0-.962.779V8.675a3.292,3.292,0,0,0,1.288,2.648l1.089.8a.8.8,0,0,0,.938,0l1.089-.8A3.292,3.292,0,0,0,13.1,8.675V6.369a.785.785,0,0,0-.93-.779Zm-.628,3.085a1.71,1.71,0,0,1-.676,1.376l-.612.453-.612-.453A1.71,1.71,0,0,1,8.97,8.675V7.212a3.355,3.355,0,0,0,1.288-.358,3.355,3.355,0,0,0,1.288.358Zm5.439-.62a6.758,6.758,0,1,0-11.5,5.431L9.7,17.708a.8.8,0,0,0,1.129,0l4.2-4.222A6.727,6.727,0,0,0,16.985,8.055Zm-3.069,4.31-3.658,3.658L6.6,12.365A5.16,5.16,0,0,1,5.114,8.214a5.224,5.224,0,0,1,2.3-3.84,5.144,5.144,0,0,1,5.693,0A5.224,5.224,0,0,1,15.4,8.2a5.16,5.16,0,0,1-1.487,4.166Z" transform="translate(1.5 2.057)" fill="#021d3d"/>
</svg>
