<svg id="pin_marker_alt" data-name="pin marker alt" xmlns="http://www.w3.org/2000/svg" width="24" height="24" viewBox="0 0 24 24">
  <rect id="Shape" width="24" height="24"  opacity="0"/>
  <path id="location-point" d="M15.068,3.977A6.768,6.768,0,1,0,5.5,13.548l4.2,4.211a.8.8,0,0,0,1.133,0l4.235-4.251a6.739,6.739,0,0,0,0-9.531Zm-1.141,8.39-3.645,3.661L6.637,12.367a5.152,5.152,0,1,1,7.29,0ZM7.89,6.314a3.44,3.44,0,1,0,5.87,2.472,3.382,3.382,0,0,0-1-2.433,3.43,3.43,0,0,0-4.865-.04Zm3.741,3.733a.768.768,0,1,0-.04,0Z" transform="translate(1.484 2.005)"  />
</svg>
