<svg id="pin_marker_question" data-name="pin marker question" xmlns="http://www.w3.org/2000/svg" width="24" height="24" viewBox="0 0 24 24">
  <rect id="Shape" width="24" height="24"  opacity="0.12"/>
  <path id="map-marker-question" d="M10.609,10.824l-.135-.087a.8.8,0,0,0-.867.175.692.692,0,0,0-.175.254.768.768,0,0,0,0,.612.851.851,0,0,0,.429.429.8.8,0,0,0,.3.064.867.867,0,0,0,.31-.064.8.8,0,0,0,.254-1.3ZM10.164,5.17A2.187,2.187,0,0,0,8.271,6.22a.8.8,0,1,0,1.376.8.612.612,0,0,1,.517-.254.6.6,0,0,1,0,1.193.8.8,0,1,0,0,1.59,2.187,2.187,0,1,0,0-4.374ZM16.987,8.1a6.757,6.757,0,1,0-11.5,5.392L9.7,17.711a.8.8,0,0,0,1.129,0l4.2-4.223a6.728,6.728,0,0,0,1.956-5.431Zm-3.07,4.27-3.658,3.658L6.6,12.367A5.161,5.161,0,0,1,5.114,8.216a5.225,5.225,0,0,1,2.3-3.841,5.145,5.145,0,0,1,5.694,0A5.225,5.225,0,0,1,15.4,8.2a5.161,5.161,0,0,1-1.487,4.167Z" transform="translate(1.5 2.055)" />
</svg>
