<svg id="pin_marker_info" data-name="pin marker info" xmlns="http://www.w3.org/2000/svg" width="24" height="24" viewBox="0 0 24 24">
  <rect id="Shape" width="24" height="24" fill="none" opacity="0.12"/>
  <path id="map-marker-info" d="M10.259,8.351a.8.8,0,0,0-.8.8v1.59a.8.8,0,1,0,1.59,0V9.146A.8.8,0,0,0,10.259,8.351ZM16.987,8.1a6.757,6.757,0,1,0-11.5,5.392L9.7,17.711a.8.8,0,0,0,1.129,0l4.2-4.223a6.728,6.728,0,0,0,1.956-5.431Zm-3.07,4.27-3.658,3.658L6.6,12.367A5.161,5.161,0,0,1,5.114,8.216a5.225,5.225,0,0,1,2.3-3.841,5.145,5.145,0,0,1,5.694,0A5.225,5.225,0,0,1,15.4,8.2a5.161,5.161,0,0,1-1.487,4.167ZM10.991,6.418a.445.445,0,0,0-.072-.135l-.1-.119a.8.8,0,0,0-.724-.2H9.957l-.143.072-.119.1-.1.119a.445.445,0,0,0-.072.135.477.477,0,0,0-.048.151.978.978,0,0,0-.016.215.7.7,0,0,0,.064.31.883.883,0,0,0,.167.254.8.8,0,0,0,.867.175.946.946,0,0,0,.262-.175.883.883,0,0,0,.167-.254.8.8,0,0,0,.064-.31.978.978,0,0,0,0-.151A.477.477,0,0,0,10.991,6.418Z" transform="translate(1.5 2.055)" fill="#021d3d"/>
</svg>
