<svg id="pin_marker" data-name="pin marker" xmlns="http://www.w3.org/2000/svg" width="24" height="24" viewBox="0 0 24 24">
  <rect id="Shape" width="24" height="24"  opacity="0.12"/>
  <path id="map-marker" d="M10.4,2A6.4,6.4,0,0,0,4,8.4c0,4.32,5.64,9.2,5.88,9.408a.8.8,0,0,0,1.04,0C11.2,17.6,16.8,12.72,16.8,8.4A6.4,6.4,0,0,0,10.4,2Zm0,14.12c-1.7-1.6-4.8-5.048-4.8-7.72a4.8,4.8,0,1,1,9.6,0C15.2,11.072,12.1,14.528,10.4,16.12Zm0-10.92a3.2,3.2,0,1,0,3.2,3.2A3.2,3.2,0,0,0,10.4,5.2Zm0,4.8A1.6,1.6,0,1,1,12,8.4,1.6,1.6,0,0,1,10.4,10Z" transform="translate(2 2)" />
</svg>
