<svg id="Plane" xmlns="http://www.w3.org/2000/svg" width="24" height="24" viewBox="0 0 24 24">
  <rect id="Shape" width="24" height="24"  opacity="0"/>
  <path id="Plane-2" data-name="Plane" d="M17,4.308a2.309,2.309,0,0,0-3.944-1.635L10.945,4.781,6.079,3.161a.75.75,0,0,0-.75.18L3.544,5.111a.75.75,0,0,0,.217,1.207L7.646,8.08,5.7,10.029,4.414,9.385a.75.75,0,0,0-.87.112L2.217,10.854a.75.75,0,0,0,0,1.057l4.866,4.866a.75.75,0,0,0,1.057,0L9.5,15.45a.75.75,0,0,0,.142-.87L9,13.3l1.95-1.95,1.762,3.884a.75.75,0,0,0,1.207.217l1.77-1.77a.75.75,0,0,0,.18-.75l-1.62-4.866,2.077-2.122A2.287,2.287,0,0,0,17,4.308Zm-1.74.577L12.827,7.315a.75.75,0,0,0-.18.75l1.62,4.859-.675.675L11.83,9.722A.749.749,0,0,0,10.615,9.5L7.526,12.624a.75.75,0,0,0-.142.862L8,14.746l-.42.42L3.807,11.387,4.249,11l1.282.645a.75.75,0,0,0,.862-.142L9.5,8.38A.75.75,0,0,0,9.28,7.165L5.374,5.4l.675-.675,4.859,1.62a.75.75,0,0,0,.75-.18l2.429-2.429a.8.8,0,0,1,1.147,0,.75.75,0,0,1,.24.57.8.8,0,0,1-.217.577Z" transform="translate(2.5 2.504)"  />
</svg>
