<svg id="Plane_-_Departure" data-name="Plane - Departure" xmlns="http://www.w3.org/2000/svg" width="24" height="24" viewBox="0 0 24 24">
  <rect id="Shape" width="24" height="24" fill="#021d3d" opacity="0"/>
  <path id="Departure" d="M.939,14.059a.937.937,0,0,1,0-1.875H14.063a.937.937,0,0,1,0,1.875Zm1.7-5.9L.238,6.085A.679.679,0,0,1,.6,4.9L3.844,4.5l1.182-.68L2.785,2.411A.68.68,0,0,1,2.812,1.25L4.849.076a.677.677,0,0,1,.625,0l3.395,1.6,1.46-.842a3.347,3.347,0,0,1,4.584,1.222.722.722,0,0,1,.068.517.681.681,0,0,1-.34.414L5.053,8.461a2.036,2.036,0,0,1-2.41-.3ZM4.5,1.888,6.744,3.308a.677.677,0,0,1-.021,1.161L4.442,5.779a.673.673,0,0,1-.258.088L2.33,6.091,3.62,7.2a.679.679,0,0,0,.814.122l8.855-5.093a2.037,2.037,0,0,0-2.281-.2l-1.739,1a.677.677,0,0,1-.625,0L5.25,1.461Z" transform="translate(4.499 5.251)" fill="#021d3d"/>
</svg>
