<svg id="Plane_-_Arrival" data-name="Plane - Arrival" xmlns="http://www.w3.org/2000/svg" width="24" height="24" viewBox="0 0 24 24">
  <rect id="Shape" width="24" height="24"  opacity="0"/>
  <path id="Arrival" d="M.936,15.237a.937.937,0,1,1,0-1.875H14.058a.937.937,0,0,1,0,1.875ZM13.52,9.61,2.867,6.706A2.038,2.038,0,0,1,1.373,4.791l-.23-3.169a.68.68,0,0,1,1.1-.586L4.811,3.053l1.316.355L5.541.824a.679.679,0,0,1,.84-.8L8.652.633a.677.677,0,0,1,.442.442L10.366,4.6l1.627.437a3.347,3.347,0,0,1,2.377,4.1.724.724,0,0,1-.317.413.685.685,0,0,1-.329.084A.673.673,0,0,1,13.52,9.61ZM2.747,4.8a.679.679,0,0,0,.49.662L13.1,8.123A2.035,2.035,0,0,0,11.623,6.37L9.684,5.851a.679.679,0,0,1-.441-.441L7.956,1.9l-.831-.226.581,2.587a.678.678,0,0,1-.836.807l-2.54-.687a.684.684,0,0,1-.245-.121L2.617,3.105Z" transform="translate(4.503 4.501)"  />
</svg>
