<svg id="Plug_-_Unplugged" data-name="Plug - Unplugged" xmlns="http://www.w3.org/2000/svg" width="24" height="24" viewBox="0 0 24 24">
  <rect id="Shape" width="24" height="24"  opacity="0"/>
  <path id="Path_2226" data-name="Path 2226" d="M12.5,10.75V9.25H9.95V7.5A.84.84,0,0,0,9,6.55H7.5a5.365,5.365,0,0,0-5.45,4.7H0v1.5H2.05A5.255,5.255,0,0,0,3.6,15.9a5.321,5.321,0,0,0,3.9,1.6H9q.95.1.95-1V14.75H12.5v-1.5H9.95v-2.5H12.5M3.6,12A3.872,3.872,0,0,1,4.75,9.25,3.826,3.826,0,0,1,7.5,8.15h.85V15.9H7.5a3.739,3.739,0,0,1-2.75-1.15A3.752,3.752,0,0,1,3.6,12M20.35,8.1h0A5.4,5.4,0,0,0,16.5,6.55H15q-1.1,0-1,.95v9a.884.884,0,0,0,1,1h1.5a5.308,5.308,0,0,0,3.85-1.6h0a5.3,5.3,0,0,0,1.55-3.15H24v-1.5H21.9a5.277,5.277,0,0,0-1.55-3.1V8.1m-4.75.05h.9a3.758,3.758,0,0,1,2.7,1.1h.05A3.93,3.93,0,0,1,20.35,12a3.809,3.809,0,0,1-1.1,2.75l-.05.05a3.757,3.757,0,0,1-2.7,1.1h-.9Z" transform="translate(0 0.448)"  />
</svg>
