<svg id="Plugin" xmlns="http://www.w3.org/2000/svg" width="24" height="24" viewBox="0 0 24 24">
  <rect id="Base" width="24" height="24" fill="#021d3d" opacity="0"/>
  <g id="Integrations_edited" transform="translate(0.051 -0.05)">
    <path id="Path_7143" data-name="Path 7143" d="M4.6,14.45a.951.951,0,0,0,0,.65,7.52,7.52,0,0,0,1.7,2.55A7.771,7.771,0,0,0,12,20a7.544,7.544,0,0,0,5.6-2.35,7.412,7.412,0,0,0,1.75-2.55.682.682,0,0,0,.05-.6.834.834,0,0,0-.45-.45.812.812,0,0,0-.6,0,.865.865,0,0,0-.45.4,5.946,5.946,0,0,1-1.45,2.05A5.984,5.984,0,0,1,12,18.4a6.2,6.2,0,0,1-4.55-1.9,5.977,5.977,0,0,1-1.35-2,.834.834,0,0,0-.45-.45.812.812,0,0,0-.6,0,.864.864,0,0,0-.45.4M19.4,9.6a.685.685,0,0,0-.05-.6A7.939,7.939,0,0,0,17.6,6.35,7.625,7.625,0,0,0,12,4.05a7.857,7.857,0,0,0-5.7,2.3A9.062,9.062,0,0,0,4.55,9a.812.812,0,0,0,0,.6A.7.7,0,0,0,5,10a.685.685,0,0,0,.6.05A.707.707,0,0,0,6,9.6,7.5,7.5,0,0,1,7.45,7.5,6.283,6.283,0,0,1,12,5.65,6.063,6.063,0,0,1,16.45,7.5,6.3,6.3,0,0,1,17.9,9.6a.9.9,0,0,0,.45.45.685.685,0,0,0,.6-.05A.7.7,0,0,0,19.4,9.6Z" fill="#021d3d"/>
    <path id="Path_7144" data-name="Path 7144" d="M11.15,11.75,11,11.5,9.5,10a.743.743,0,0,0-.55-.2.861.861,0,0,0-.55.2.861.861,0,0,0-.2.55.743.743,0,0,0,.2.55l.25.2H3.2a.616.616,0,0,0-.5.25.616.616,0,0,0-.25.5.765.765,0,0,0,.25.55.678.678,0,0,0,.5.2H8.65L8.4,13a.861.861,0,0,0-.2.55.743.743,0,0,0,.2.55.688.688,0,0,0,1.1,0L11,12.6l.15-.25A.925.925,0,0,0,11.15,11.75Z" fill="#021d3d"/>
    <path id="Path_7145" data-name="Path 7145" d="M21.3,11.55a.765.765,0,0,0-.55-.25H15.3l.25-.2a.666.666,0,0,0,.25-.55.765.765,0,0,0-.25-.55A.743.743,0,0,0,15,9.8a.861.861,0,0,0-.55.2l-1.5,1.5-.15.25a1.812,1.812,0,0,0,0,.6l.15.25,1.5,1.5a.688.688,0,0,0,1.1,0,.666.666,0,0,0,.25-.55.765.765,0,0,0-.25-.55l-.25-.2h5.45a.692.692,0,0,0,.75-.75A.678.678,0,0,0,21.3,11.55Z" fill="#021d3d"/>
  </g>
</svg>
