<svg id="plus_circle_outlined" data-name="plus circle outlined" xmlns="http://www.w3.org/2000/svg" width="24" height="24" viewBox="0 0 24 24">
  <rect id="Shape" width="24" height="24"  opacity="0"/>
  <path id="Union_7" data-name="Union 7" d="M0,7.5A7.5,7.5,0,1,1,7.5,15,7.5,7.5,0,0,1,0,7.5Zm1.5,0a6,6,0,1,0,6-6A6,6,0,0,0,1.5,7.5ZM6.75,9.748v-1.5h-1.5a.751.751,0,0,1,0-1.5h1.5V5.25a.751.751,0,0,1,1.5,0v1.5h1.5a.751.751,0,0,1,0,1.5h-1.5v1.5a.751.751,0,1,1-1.5,0Z" transform="translate(4.499 4.501)" />
</svg>
