<svg id="power" xmlns="http://www.w3.org/2000/svg" width="24" height="24" viewBox="0 0 24 24">
  <rect id="Rectangle_3689" data-name="Rectangle 3689" width="24" height="24"   opacity="0"/>
  <path id="power-2" data-name="power" d="M8.882,5.372l.633-.641V8.408a.8.8,0,1,0,1.6,0V4.732l.633.641a.8.8,0,1,0,1.137-1.137l-2-2a.828.828,0,0,0-1.137,0l-2,2A.8.8,0,0,0,8.882,5.372ZM15.12,6.454a.815.815,0,0,0-1.153,1.153,5.165,5.165,0,1,1-7.3,0A.815.815,0,1,0,5.51,6.454a6.775,6.775,0,1,0,9.61,0Z" transform="translate(1.461 1.994)"  />
</svg>
