<svg id="Printer" xmlns="http://www.w3.org/2000/svg" width="24" height="24" viewBox="0 0 24 24">
  <rect id="Shape" width="24" height="24"  opacity="0"/>
  <path id="Print" d="M5.75,8a.75.75,0,1,0,.75.75A.75.75,0,0,0,5.75,8Zm9-3H14V2.75A.75.75,0,0,0,13.25,2H5.75A.75.75,0,0,0,5,2.75V5H4.25A2.25,2.25,0,0,0,2,7.25v4.5A2.25,2.25,0,0,0,4.25,14H5v2.25a.75.75,0,0,0,.75.75h7.5a.75.75,0,0,0,.75-.75V14h.75A2.25,2.25,0,0,0,17,11.75V7.25A2.25,2.25,0,0,0,14.75,5ZM6.5,3.5h6V5h-6Zm6,12h-6v-3h6Zm3-3.75a.75.75,0,0,1-.75.75H14v-.75a.75.75,0,0,0-.75-.75H5.75a.75.75,0,0,0-.75.75v.75H4.25a.75.75,0,0,1-.75-.75V7.25a.75.75,0,0,1,.75-.75h10.5a.75.75,0,0,1,.75.75Z" transform="translate(2.5 2.5)"  />
</svg>
