<svg id="pulse" xmlns="http://www.w3.org/2000/svg" width="24" height="24" viewBox="0 0 24 24">
  <rect id="Rectangle_3682" data-name="Rectangle 3682" width="24" height="24"  opacity="0"/>
  <path id="heart-rate" d="M19.1,10.3H15.554a.7.7,0,0,0-.189,0h-.153a1.17,1.17,0,0,0-.135.09,1.5,1.5,0,0,0-.144.108.9.9,0,0,0-.081.117,1.188,1.188,0,0,0-.108.18h0L13.3,14.764,9.551,4.594a.9.9,0,0,0-1.692,0L5.78,10.3H2.9a.9.9,0,1,0,0,1.8H6.77a.774.774,0,0,0,.144-.09,1.5,1.5,0,0,0,.144-.108l.081-.117a.9.9,0,0,0,.108-.18h0L8.7,7.528l3.744,10.278a.9.9,0,0,0,.846.594h0a.9.9,0,0,0,.846-.594l2.07-5.706H19.1a.9.9,0,0,0,0-1.8Z" transform="translate(1 0.998)"  />
</svg>
