<svg id="Question_mark" data-name="Question mark" xmlns="http://www.w3.org/2000/svg" width="24" height="24" viewBox="0 0 24 24">
  <rect id="Shape" width="24" height="24" fill="#021d3d" opacity="0"/>
  <path id="Question_mark-2" data-name="Question mark" d="M10.864,18.435a2.37,2.37,0,0,0-.18.225,1.14,1.14,0,0,0-.135.27.96.96,0,0,0-.09.27,2.04,2.04,0,0,0,0,.3,1.26,1.26,0,0,0,.12.57,1.35,1.35,0,0,0,.81.81,1.41,1.41,0,0,0,1.14,0,1.35,1.35,0,0,0,.81-.81,1.514,1.514,0,0,0-2.475-1.635ZM11.929,6a4.5,4.5,0,0,0-3.9,2.25,1.5,1.5,0,1,0,2.595,1.5,1.5,1.5,0,1,1,1.3,2.25,1.5,1.5,0,0,0-1.5,1.5V15a1.5,1.5,0,1,0,3,0v-.27A4.5,4.5,0,0,0,11.929,6Z" transform="translate(-0.107 -1.5)" fill="#021d3d"/>
</svg>
