<svg id="question_circle_outlined" data-name="question circle outlined" xmlns="http://www.w3.org/2000/svg" width="24" height="24" viewBox="0 0 24 24">
  <rect id="Shape" width="24" height="24"  opacity="0"/>
  <path id="question-circle_1_" data-name="question-circle (1)" d="M8.967,11.967a1.185,1.185,0,0,0-.09.113.57.57,0,0,0-.068.135.48.48,0,0,0-.045.135,1.02,1.02,0,0,0,0,.15.63.63,0,0,0,.06.285.675.675,0,0,0,.405.405.705.705,0,0,0,.57,0,.675.675,0,0,0,.405-.4.757.757,0,0,0-1.237-.818ZM9.5,2A7.5,7.5,0,1,0,17,9.5,7.5,7.5,0,0,0,9.5,2Zm0,13.5a6,6,0,1,1,6-6A6,6,0,0,1,9.5,15.5Zm0-9.75A2.25,2.25,0,0,0,7.55,6.875a.75.75,0,1,0,1.3.75A.751.751,0,1,1,9.5,8.75a.75.75,0,0,0-.75.75v.75a.75.75,0,0,0,1.5,0v-.135A2.25,2.25,0,0,0,9.5,5.75Z" transform="translate(3 3)" />
</svg>
