<svg id="question_circle_filled" data-name="question circle filled" xmlns="http://www.w3.org/2000/svg" width="24" height="24" viewBox="0 0 24 24">
  <rect id="Shape" width="24" height="24" fill="#021d3d" opacity="0"/>
  <path id="Subtraction_30" data-name="Subtraction 30" d="M21897.5,17660a7.5,7.5,0,1,1,7.5-7.5A7.512,7.512,0,0,1,21897.5,17660Zm0-5.256a.739.739,0,0,0-.533.225,1.054,1.054,0,0,0-.094.109.9.9,0,0,0-.066.139.367.367,0,0,0-.043.131.679.679,0,0,0,0,.154.56.56,0,0,0,.061.281.656.656,0,0,0,.406.406.723.723,0,0,0,.281.061.7.7,0,0,0,.285-.061.675.675,0,0,0,.406-.406.7.7,0,0,0,.045-.281.774.774,0,0,0-.215-.533A.76.76,0,0,0,21897.5,17654.744Zm-.014-4.492h.014a.748.748,0,0,1,0,1.5.753.753,0,0,0-.754.752v.748a.751.751,0,1,0,1.5,0v-.131a2.248,2.248,0,1,0-2.7-3.244.751.751,0,0,0-.021.77.73.73,0,0,0,.648.385h.016a.761.761,0,0,0,.654-.4A.751.751,0,0,1,21897.488,17650.252Z" transform="translate(-21885 -17640)" fill="#021d3d"/>
</svg>
