<svg id="remove" xmlns="http://www.w3.org/2000/svg" width="24" height="24" viewBox="0 0 24 24">
  <rect id="Rectangle_3684" data-name="Rectangle 3684" width="24" height="24" fill="none"  opacity="0"/>
  <path id="cancel" d="M17.815,10.088l-4-4.8A.8.8,0,0,0,13.2,5H4.4A2.4,2.4,0,0,0,2,7.4v6.4a2.4,2.4,0,0,0,2.4,2.4h8.8a.8.8,0,0,0,.616-.288l4-4.8A.8.8,0,0,0,17.815,10.088ZM12.823,14.6H4.4a.8.8,0,0,1-.8-.8V7.4a.8.8,0,0,1,.8-.8h8.423l3.336,4ZM10.567,8.432a.8.8,0,0,0-1.136,0L8.4,9.472,7.368,8.432A.8.8,0,0,0,6.232,9.568L7.272,10.6l-1.04,1.032a.8.8,0,1,0,1.136,1.136L8.4,11.727l1.032,1.04a.8.8,0,1,0,1.136-1.136L9.527,10.6l1.04-1.032a.8.8,0,0,0,0-1.136Z" transform="translate(2 1)" fill="#021d3d"/>
</svg>
