<svg id="Reset_Sync" xmlns="http://www.w3.org/2000/svg" width="24" height="24" viewBox="0 0 24 24">
  <path id="Path_27446" data-name="Path 27446" d="M0,0H24V24H0ZM0,0H24V24H0Z" fill="none"/>
  <path id="Path_27447" data-name="Path 27447" d="M10,6.35V4.26a8.22,8.22,0,0,0-2.23.96L9.23,6.68A6.6,6.6,0,0,1,10,6.35ZM2.86,5.41,5.22,7.77a7.929,7.929,0,0,0,1.14,9.87L4,20h6V14L7.76,16.24A5.985,5.985,0,0,1,6.68,9.23l8.08,8.08a5.3,5.3,0,0,1-.77.34v2.09a8.22,8.22,0,0,0,2.23-.96l2.36,2.36,1.27-1.27L4.14,4.14,2.86,5.41ZM20,4H14v6l2.24-2.24a5.985,5.985,0,0,1,1.08,7.01l1.46,1.46a7.929,7.929,0,0,0-1.14-9.87Z"/>
</svg>
