<svg id="Revert" version="1.1" xmlns="http://www.w3.org/2000/svg" width="32" height="32" viewBox="0 0 32 32">
  <title>Revert</title>
  <path id='Revert-2' d="M25.267 21.4c0.038 0.006 0.081 0.009 0.125 0.009 0.488 0 0.884-0.396 0.884-0.884 0-0.044-0.003-0.087-0.009-0.13l0.001 0.005v-3c0.006-0.038 0.009-0.081 0.009-0.125 0-0.488-0.396-0.884-0.884-0.884-0.044 0-0.087 0.003-0.13 0.009l0.005-0.001q-1-0.067-1 1v0.4c-1.161-0.877-2.628-1.404-4.218-1.404-0.087 0-0.175 0.002-0.261 0.005l0.013-0c-1.951 0.003-3.718 0.792-5 2.067l0-0c-1.198 1.284-1.934 3.012-1.934 4.913 0 0.031 0 0.061 0.001 0.092l-0-0.005c0.026 1.93 0.867 3.659 2.194 4.862l0.006 0.005c1.182 1.24 2.846 2.011 4.691 2.011 0.132 0 0.264-0.004 0.394-0.012l-0.018 0.001c0.020 0 0.044 0 0.068 0 1.915 0 3.631-0.85 4.792-2.192l0.007-0.008c1.222-1.234 1.982-2.926 2-4.797l0-0.003c0-0.552-0.448-1-1-1s-1 0.448-1 1v0c0 0.008 0 0.016 0 0.025 0 1.406-0.588 2.674-1.531 3.573l-0.002 0.002c-0.87 0.93-2.098 1.515-3.463 1.533l-0.003 0c-0.043 0.001-0.094 0.002-0.145 0.002-1.369 0-2.6-0.591-3.451-1.532l-0.004-0.004c-0.943-0.83-1.534-2.040-1.534-3.387 0-0.028 0-0.056 0.001-0.084l-0 0.004c-0.001-0.041-0.002-0.089-0.002-0.138 0-1.379 0.561-2.628 1.468-3.529l0-0c0.867-0.866 2.064-1.402 3.386-1.402 0.052 0 0.103 0.001 0.155 0.002l-0.008-0c0.162-0.025 0.349-0.039 0.54-0.039 1.006 0 1.92 0.396 2.595 1.040l-0.001-0.001h-0.867q-1-0.067-1 1c-0.006 0.038-0.009 0.081-0.009 0.125 0 0.488 0.396 0.884 0.884 0.884 0.044 0 0.087-0.003 0.13-0.009l-0.005 0.001h3.133zM23.133 5.6v-0.2c-0.473-0.438-1.103-0.714-1.796-0.733l-0.004-0h-10.667c-0.016-0-0.034-0.001-0.053-0.001-0.684 0-1.303 0.281-1.747 0.734l-0 0c-0.4 0.335-0.685 0.794-0.797 1.318l-0.003 0.015-0.067 16.533c-0.001 0.032-0.002 0.069-0.002 0.106 0 0.393 0.074 0.769 0.209 1.115l-0.007-0.021c0.184 0.309 0.405 0.573 0.663 0.797l0.004 0.003h-0.133c0.326 0.266 0.7 0.49 1.104 0.656l0.029 0.011h1.133c-0.212-0.605-0.334-1.302-0.334-2.028 0-0.037 0-0.074 0.001-0.11l-0 0.006q-0.267 0-0.333-0.133l-0.133-0.067c-0.082-0.082-0.133-0.195-0.133-0.321 0-0.004 0-0.009 0-0.013v0.001-16l0.133-0.2h0.133c0.067-0.118 0.191-0.197 0.333-0.2h10.667l0.267 0.067 0.067 0.133 0.133 0.2v6.867c0.816 0.193 1.527 0.444 2.201 0.762l-0.068-0.029v-7.6c0.001-0.025 0.002-0.054 0.002-0.083 0-0.648-0.313-1.222-0.796-1.58l-0.005-0.004z"></path>
</svg>
