<svg id="Rule_Engine" data-name="Rule Engine" xmlns="http://www.w3.org/2000/svg" width="24" height="24" viewBox="0 0 24 24">
  <path id="Path_27356" data-name="Path 27356" d="M0,0H24V24H0Z" fill="none"/>
  <g id="Group_26429" data-name="Group 26429" transform="translate(3 4)">
    <path id="Path_27357" data-name="Path 27357" d="M14.556,1.455H11.537a2.153,2.153,0,0,0-4.073,0H4.444A1.454,1.454,0,0,0,3,2.909V14.545A1.454,1.454,0,0,0,4.444,16H14.556A1.454,1.454,0,0,0,16,14.545V2.909A1.454,1.454,0,0,0,14.556,1.455Zm-5.056,0a.727.727,0,1,1-.722.727A.727.727,0,0,1,9.5,1.455Zm5.056,13.091H4.444V2.909H5.889V5.091h7.222V2.909h1.444Z" />
    <path id="Check" d="M12.588,9.971,10.045,12.52l-.978-.978a.593.593,0,1,0-.836.836l1.393,1.4a.594.594,0,0,0,.836,0l2.964-2.964a.593.593,0,0,0-.836-.842Z" transform="translate(-1.527 -2.049)" />
  </g>
</svg>
