<svg id="screen_desktop" data-name="screen desktop" xmlns="http://www.w3.org/2000/svg" width="24" height="24" viewBox="0 0 24 24">
  <rect id="Shape" width="24" height="24" fill="#021d3d" opacity="0"/>
  <path id="Desktop" d="M14.75,3H4.25A2.25,2.25,0,0,0,2,5.25v6A2.25,2.25,0,0,0,4.25,13.5h4.5V15h-3a.75.75,0,0,0,0,1.5h7.5a.75.75,0,0,0,0-1.5h-3V13.5h4.5A2.25,2.25,0,0,0,17,11.25v-6A2.25,2.25,0,0,0,14.75,3Zm.75,8.25a.75.75,0,0,1-.75.75H4.25a.75.75,0,0,1-.75-.75v-6a.75.75,0,0,1,.75-.75h10.5a.75.75,0,0,1,.75.75Z" transform="translate(2.5 2.249)" fill="#021d3d"/>
</svg>
