<svg id="settings_cog" data-name="settings cog" xmlns="http://www.w3.org/2000/svg" width="24" height="24" viewBox="0 0 24 24">
  <rect id="Shape" width="24" height="24" fill="#021d3d" opacity="0"/>
  <g id="Icons_Dark_Cog_S" data-name="Icons / Dark / Cog / S" transform="translate(4.5 4.5)">
    <path id="Icons_Dark_Cog_S-2" data-name="Icons / Dark / Cog / S" d="M16.49,7.662,15.072,7.19l.667-1.335A.75.75,0,0,0,15.6,5L14,3.4a.75.75,0,0,0-.862-.143L11.8,3.927,11.33,2.51a.75.75,0,0,0-.7-.51H8.375a.75.75,0,0,0-.712.51L7.19,3.927,5.855,3.26A.75.75,0,0,0,5,3.4L3.4,5a.75.75,0,0,0-.142.863L3.927,7.2,2.51,7.67a.75.75,0,0,0-.51.7v2.25a.75.75,0,0,0,.51.712l1.418.473L3.26,13.145A.75.75,0,0,0,3.4,14L5,15.6a.75.75,0,0,0,.863.142L7.2,15.072,7.67,16.49a.75.75,0,0,0,.712.51h2.25a.75.75,0,0,0,.712-.51l.472-1.418,1.335.667A.75.75,0,0,0,14,15.6L15.6,14a.75.75,0,0,0,.142-.862L15.072,11.8l1.418-.472a.75.75,0,0,0,.51-.7V8.375a.75.75,0,0,0-.51-.712Zm-.99,2.422-.9.3a1.5,1.5,0,0,0-.87,2.115l.427.855-.825.825-.832-.45a1.5,1.5,0,0,0-2.093.87l-.3.9H8.915l-.3-.9A1.5,1.5,0,0,0,6.5,13.73l-.855.427-.825-.825.45-.832a1.5,1.5,0,0,0-.87-2.115l-.9-.3V8.915l.9-.3A1.5,1.5,0,0,0,5.27,6.5l-.427-.832.825-.825L6.5,5.27A1.5,1.5,0,0,0,8.615,4.4l.3-.9h1.17l.3.9a1.5,1.5,0,0,0,2.115.87l.855-.427.825.825-.45.832a1.5,1.5,0,0,0,.87,2.093l.9.3ZM9.5,6.5a3,3,0,1,0,3,3A3,3,0,0,0,9.5,6.5Zm0,4.5A1.5,1.5,0,1,1,11,9.5,1.5,1.5,0,0,1,9.5,11Z" transform="translate(-2 -2)" fill="#021d3d"/>
  </g>
</svg>
