<svg id="settings_wrench" data-name="settings wrench" xmlns="http://www.w3.org/2000/svg" width="24" height="24" viewBox="0 0 24 24">
  <rect id="Rectangle_3685" data-name="Rectangle 3685" width="24" height="24" fill="none" opacity="0.12"/>
  <path id="wrench" d="M17.765,12.862,14.15,9.255a5.479,5.479,0,0,0,.112-1.12A6.135,6.135,0,0,0,5.536,2.576a.8.8,0,0,0-.232,1.3L8.783,7.343l-1.44,1.44L3.872,5.3a.812.812,0,0,0-1.3.232,6.135,6.135,0,0,0,5.6,8.726A5.479,5.479,0,0,0,9.3,14.15L12.9,17.765a.8.8,0,1,0,1.136-1.136L10.119,12.71a.8.8,0,0,0-.76-.208,4.7,4.7,0,0,1-1.184.16A4.535,4.535,0,0,1,3.6,8.135a4.8,4.8,0,0,1,.064-.8L6.8,10.479a.8.8,0,0,0,1.136,0l2.544-2.568a.8.8,0,0,0,0-1.112L7.367,3.664a4.9,4.9,0,0,1,.8-.064,4.535,4.535,0,0,1,4.527,4.535,4.7,4.7,0,0,1-.16,1.184.8.8,0,0,0,.208.76L16.662,14A.8.8,0,1,0,17.8,12.862Z" transform="translate(1.998 1.998)" fill="#021d3d"/>
</svg>
