<svg id="settings_cog_alt" data-name="settings cog alt" xmlns="http://www.w3.org/2000/svg" width="24" height="24" viewBox="0 0 24 24">
  <rect id="Base" width="24" height="24" rx="8" />
  <g id="cog_edited" transform="translate(-0.033 0.05)">
    <path id="Path_2316" data-name="Path 2316" d="M15.1,6.15l-.05-.4a2.051,2.051,0,0,0-2.1-2.1L11,3.7a1.975,1.975,0,0,0-1.45.6A2.165,2.165,0,0,0,8.9,5.75v.4l-.35.2L8.2,6.2a1.764,1.764,0,0,0-1-.3A1.934,1.934,0,0,0,5.4,7l-1,1.75a2.105,2.105,0,0,0-.2,1.55,2.02,2.02,0,0,0,.9,1.25l.35.25v.45l-.35.25a2.02,2.02,0,0,0-.9,1.25,2.105,2.105,0,0,0,.2,1.55l1,1.75a1.934,1.934,0,0,0,1.8,1.1,1.764,1.764,0,0,0,1-.3l.35-.15.35.2v.4a2.165,2.165,0,0,0,.65,1.45,1.85,1.85,0,0,0,.7.45,1.869,1.869,0,0,0,.75.15h1.95a2.146,2.146,0,0,0,1.5-.6,1.975,1.975,0,0,0,.6-1.45l.05-.4.35-.2.3.15a1.764,1.764,0,0,0,1,.3,2.115,2.115,0,0,0,1.85-1.1l1-1.75a2.064,2.064,0,0,0,.2-1.55,2.233,2.233,0,0,0-.95-1.25l-.3-.25V11.8l.3-.25a2.233,2.233,0,0,0,.95-1.25,2.064,2.064,0,0,0-.2-1.55L18.6,7a2.115,2.115,0,0,0-1.85-1.1,1.764,1.764,0,0,0-1,.3l-.3.15-.35-.2m-4.6-.4q0-.45.5-.45l1.95-.05a.442.442,0,0,1,.5.5l.05.85a.716.716,0,0,0,.4.7l1.1.65a.68.68,0,0,0,.45.1.711.711,0,0,0,.4-.1l.9-.45a.48.48,0,0,1,.45.3l1,1.7a.5.5,0,0,1-.2.7l-.65.45a.826.826,0,0,0-.4.75v1.25a.826.826,0,0,0,.4.75l.65.45a.5.5,0,0,1,.2.7l-1,1.7a.48.48,0,0,1-.45.3l-.9-.45a.711.711,0,0,0-.4-.1.68.68,0,0,0-.45.1l-1.1.65a.716.716,0,0,0-.4.7l-.05.85q0,.45-.5.45L11,18.8a.442.442,0,0,1-.5-.5v-.85a.772.772,0,0,0-.25-.6,2.212,2.212,0,0,0-.2-.1L9,16.1a.818.818,0,0,0-.45-.1.579.579,0,0,0-.4.1l-.7.35-.25.1a.48.48,0,0,1-.45-.3l-.95-1.7a.472.472,0,0,1,.15-.7l.7-.45a.905.905,0,0,0,.4-.75V11.4a.905.905,0,0,0-.4-.75l-.7-.45a.472.472,0,0,1-.15-.7l.95-1.7a.48.48,0,0,1,.45-.3l.25.1.7.35a.579.579,0,0,0,.4.1A.818.818,0,0,0,9,7.95l1.05-.65a.708.708,0,0,0,.45-.7Z" />
    <path id="Path_2317" data-name="Path 2317" d="M9.65,7.9a1.825,1.825,0,0,0-.9-1.15,1.918,1.918,0,0,0-1.35-.2,1.858,1.858,0,0,0-1.1.85l-.05.05A1.954,1.954,0,0,0,6.95,10a1.625,1.625,0,0,0,1.35.2,1.683,1.683,0,0,0,1.1-.85l.05-.05A1.72,1.72,0,0,0,9.65,7.9Z" transform="translate(4.15 3.65)" />
  </g>
</svg>
