<svg id="Shield" xmlns="http://www.w3.org/2000/svg" width="24" height="24" viewBox="0 0 24 24">
  <rect id="Shape" width="24" height="24" fill="#021d3d" opacity="0"/>
  <path id="Shield-2" data-name="Shield" d="M14.99,3.238a.67.67,0,0,0-.591-.15,5.343,5.343,0,0,1-4.373-.953.667.667,0,0,0-.8,0,5.343,5.343,0,0,1-4.373.953.67.67,0,0,0-.591.15A.771.771,0,0,0,4,3.823V9.413a6.9,6.9,0,0,0,2.651,5.5l2.566,1.951a.667.667,0,0,0,.816,0L12.6,14.912a6.9,6.9,0,0,0,2.651-5.5V3.823A.771.771,0,0,0,14.99,3.238ZM13.844,9.413a5.368,5.368,0,0,1-2.06,4.276L9.625,15.332,7.466,13.689a5.368,5.368,0,0,1-2.06-4.276V4.686A6.679,6.679,0,0,0,9.625,3.643a6.679,6.679,0,0,0,4.219,1.043Z" transform="translate(2.375 2.498)" fill="#021d3d"/>
</svg>
