<svg id="Smile_beam" data-name="Smile beam" xmlns="http://www.w3.org/2000/svg" width="24" height="24" viewBox="0 0 24 24">
  <rect id="Shape" width="24" height="24"  opacity="0"/>
  <path id="Smile-beam" d="M11.27,11.172a2.82,2.82,0,0,1-3.54,0,.751.751,0,0,0-.96,1.155,4.26,4.26,0,0,0,5.46,0,.751.751,0,1,0-.96-1.155ZM7.408,8.4A.748.748,0,0,0,8.465,7.348a2.31,2.31,0,0,0-3.18,0A.75.75,0,1,0,6.342,8.4a.75.75,0,0,1,1.065,0Zm6.307-1.057a2.31,2.31,0,0,0-3.18,0A.75.75,0,0,0,11.592,8.4a.75.75,0,0,1,1.065,0,.748.748,0,0,0,1.058-1.057ZM9.5,2A7.5,7.5,0,1,0,17,9.5,7.5,7.5,0,0,0,9.5,2Zm0,13.5a6,6,0,1,1,6-6A6,6,0,0,1,9.5,15.5Z" transform="translate(2.5 2.5)"  />
</svg>
