<svg id="Storage_Box" data-name="Storage Box" xmlns="http://www.w3.org/2000/svg" width="24" height="24" viewBox="0 0 24 24">
  <rect id="Base" width="24" height="24"  opacity="0"/>
  <g id="storage_edited" transform="translate(4 5)">
    <path id="Path_7285" data-name="Path 7285" d="M19.448,5.652q-.02,0-.05-.05h-.05a1.676,1.676,0,0,0-1.3-.552H6.006A2.085,2.085,0,0,0,4.552,5.6H4.6A1.816,1.816,0,0,0,4,7.007V8.061a1.913,1.913,0,0,0,.552,1.405A2.013,2.013,0,0,0,5,9.817v7.226a1.785,1.785,0,0,0,.6,1.455l-.05-.05a1.991,1.991,0,0,0,1.455.6H17.041a1.7,1.7,0,0,0,1.4-.652l-.05.05a1.833,1.833,0,0,0,.6-1.405V9.817a1.3,1.3,0,0,0,.451-.4l-.05.05A1.833,1.833,0,0,0,20,8.061V7.007a1.8,1.8,0,0,0-.552-1.355m-1.4,1a.277.277,0,0,1,.2.05l.05.1a.253.253,0,0,1,.1.2V8.061a.284.284,0,0,1-.15.251v.05l-.05.05q-.019.042-.1.05H5.906a.647.647,0,0,1-.2-.151.331.331,0,0,1-.1-.251V7.007a.278.278,0,0,1,.05-.2l.05-.05a.533.533,0,0,1,.3-.1H18.044M6.708,17.294h-.05a.579.579,0,0,1-.05-.251V10.068H17.392v6.975a.284.284,0,0,1-.15.251v.05a.253.253,0,0,1-.2.1H7.009A.421.421,0,0,1,6.708,17.294Z" transform="translate(-4 -5.05)"  />
    <rect id="Rectangle_3266" data-name="Rectangle 3266" width="6" height="1.6" rx="0.8" transform="translate(5 6.5)"  />
  </g>
</svg>
