<svg id="Sunset" xmlns="http://www.w3.org/2000/svg" width="24" height="24" viewBox="0 0 24 24">
  <rect id="Shape" width="24" height="24" fill="#021d3d" opacity="0"/>
  <path id="Sunset-2" data-name="Sunset" d="M15.05,7.45a.833.833,0,0,0,.583-.242l.592-.592A.833.833,0,1,0,15.05,5.442l-.55.592a.83.83,0,0,0,.55,1.417ZM10.333,5.5a.833.833,0,0,0,.833-.833V3.833a.833.833,0,1,0-1.667,0v.833A.833.833,0,0,0,10.333,5.5Zm-6.667,5H2.833a.833.833,0,1,0,0,1.667h.833a.833.833,0,0,0,0-1.667ZM5.033,7.208A.831.831,0,0,0,6.208,6.033l-.592-.592A.833.833,0,0,0,4.442,6.617Zm12.8,3.292H17a.833.833,0,1,0,0,1.667h.833a.833.833,0,1,0,0-1.667ZM9.5,16.333H7A.833.833,0,0,0,7,18H9.5a.833.833,0,0,0,0-1.667ZM15.333,13H14.6a4.492,4.492,0,0,0,.317-1.667,4.583,4.583,0,1,0-9.167,0A4.492,4.492,0,0,0,6.067,13H5.333a.833.833,0,1,0,0,1.667h10a.833.833,0,1,0,0-1.667Zm-2.625,0H7.958a2.867,2.867,0,0,1-.542-1.667,2.917,2.917,0,1,1,5.833,0A2.867,2.867,0,0,1,12.708,13Zm.958,3.333h-.833a.833.833,0,1,0,0,1.667h.833a.833.833,0,0,0,0-1.667Z" transform="translate(1.713 1.499)" fill="#021d3d"/>
</svg>
