<svg id="table" xmlns="http://www.w3.org/2000/svg" width="24" height="24" viewBox="0 0 24 24">
  <rect id="Shape" width="24" height="24" fill="none"  opacity="0"/>
  <path id="table-2" data-name="table" d="M17.2,2H2.8a.8.8,0,0,0-.8.8V17.2a.8.8,0,0,0,.8.8H17.2a.8.8,0,0,0,.8-.8V2.8A.8.8,0,0,0,17.2,2ZM6.8,16.4H3.6V13.2H6.8Zm0-4.8H3.6V8.4H6.8Zm0-4.8H3.6V3.6H6.8Zm4.8,9.6H8.4V13.2h3.2Zm0-4.8H8.4V8.4h3.2Zm0-4.8H8.4V3.6h3.2Zm4.8,9.6H13.2V13.2h3.2Zm0-4.8H13.2V8.4h3.2Zm0-4.8H13.2V3.6h3.2Z" transform="translate(2 2)" fill="#021d3d"/>
</svg>
