<svg id="Tablet" xmlns="http://www.w3.org/2000/svg" width="24" height="24" viewBox="0 0 24 24">
  <rect id="Shape" width="24" height="24"  opacity="0"/>
  <path id="Tablet-2" data-name="Tablet" d="M13.75,2H6.25A2.25,2.25,0,0,0,4,4.25v10.5A2.25,2.25,0,0,0,6.25,17h7.5A2.25,2.25,0,0,0,16,14.75V4.25A2.25,2.25,0,0,0,13.75,2Zm.75,12.75a.75.75,0,0,1-.75.75H6.25a.75.75,0,0,1-.75-.75V4.25a.75.75,0,0,1,.75-.75h7.5a.75.75,0,0,1,.75.75Zm-3.968-2.032A.75.75,0,0,0,9.85,12.5l-.135.045a.57.57,0,0,0-.135.067l-.112.09a.775.775,0,0,0,0,1.065,1.1,1.1,0,0,0,.248.165.75.75,0,0,0,1.035-.682.63.63,0,0,0-.06-.285.863.863,0,0,0-.157-.248Z" transform="translate(2 2.5)"  />
</svg>
