<svg id="Telescope" xmlns="http://www.w3.org/2000/svg" width="24" height="24" viewBox="0 0 24 24">
  <rect id="Shape" width="24" height="24" fill="#021d3d" opacity="0"/>
  <path id="Telescope-2" data-name="Telescope" d="M16.166,5.844l-.714-2.763A2.142,2.142,0,0,0,12.8,1.568l-1.378.371a.714.714,0,0,0-.507.878l.186.714L3.523,5.537a.714.714,0,0,0-.507.871l.186.714-.714.186a.719.719,0,1,0,.178,1.428.778.778,0,0,0,.186,0l.714-.193.186.714a.721.721,0,0,0,.685.528.535.535,0,0,0,.186,0L6.956,9.05v.3a2.07,2.07,0,0,0,.214.914L3.6,13.833a.714.714,0,1,0,1.007,1.014l3.569-3.569.2.079v4.419a.714.714,0,1,0,1.428,0V11.363a1.8,1.8,0,0,0,.207-.086l3.569,3.569a.714.714,0,1,0,1.007-1.014l-3.569-3.569a2.206,2.206,0,0,0,.221-.914V7.922l.964-.257.178.714a.714.714,0,0,0,.714.528h.186l1.378-.371a2.142,2.142,0,0,0,1.506-2.691ZM9.812,9.35a.714.714,0,0,1-.2.493h0a.707.707,0,0,1-.992-.007h0a.714.714,0,0,1-.207-.5V8.621l1.4-.343ZM4.95,8.107,4.579,6.73l6.9-1.849.186.714.186.714Zm9.766-1.356a.714.714,0,0,1-.435.336l-.714.186L13.01,5.2l-.343-1.378h0l-.186-.714.714-.186a.714.714,0,0,1,.878.507l.714,2.763a.714.714,0,0,1-.071.557Z" transform="translate(2.942 3.012)" fill="#021d3d"/>
</svg>
