<svg id="Throttle" version="1.1" xmlns="http://www.w3.org/2000/svg" width="32" height="32" viewBox="0 0 32 32">
<title>Throttle</title>
<path id="Throttle-2" d="M26.667 23.267c-0.020-1.852-0.781-3.523-2-4.733l-0-0c-1.222-1.15-2.854-1.875-4.655-1.933l-0.011-0c-1.858 0.039-3.539 0.767-4.805 1.938l0.005-0.004c-1.156 1.203-1.867 2.84-1.867 4.643 0 0.032 0 0.064 0.001 0.095l-0-0.005c-0.002 0.052-0.002 0.113-0.002 0.175 0 1.756 0.715 3.345 1.869 4.492l0 0c1.192 1.234 2.862 2.001 4.711 2.001 0.031 0 0.063-0 0.094-0.001l-0.005 0c0.006 0 0.012 0 0.019 0 1.829 0 3.479-0.767 4.645-1.997l0.003-0.003c1.233-1.176 2-2.832 2-4.667v-0zM23.267 19.933c0.828 0.87 1.352 2.036 1.4 3.324l0 0.009c0 0.015 0 0.032 0 0.049 0 1.29-0.537 2.455-1.399 3.283l-0.002 0.001c-0.777 0.824-1.875 1.337-3.094 1.337-0.061 0-0.121-0.001-0.182-0.004l0.009 0c-0.033 0.001-0.072 0.001-0.111 0.001-2.517 0-4.557-2.040-4.557-4.557 0-0.039 0.001-0.078 0.001-0.116l-0 0.006c-0.001-0.029-0.001-0.064-0.001-0.099 0-1.262 0.51-2.405 1.335-3.234l-0 0c0.864-0.825 2.036-1.333 3.328-1.333 0.002 0 0.004 0 0.006 0h-0c1.271 0.008 2.422 0.515 3.268 1.335l-0.001-0.001zM22.667 25.333c0-0.010 0.001-0.022 0.001-0.034 0-0.194-0.077-0.37-0.201-0.5l0 0-1.933-1.867v-2.333c0.026-0.054 0.041-0.118 0.041-0.185 0-0.142-0.068-0.268-0.173-0.348l-0.001-0.001c-0.15-0.162-0.363-0.264-0.599-0.267h-0c-0.008-0-0.016-0-0.025-0-0.251 0-0.478 0.102-0.641 0.267l-0 0-0.267 0.533v2.667l0.267 0.667h0.067l2 2q0.333 0.333 0.6 0.2c0.046 0.010 0.098 0.016 0.152 0.016 0.202 0 0.384-0.083 0.515-0.216l0-0c0.126-0.143 0.202-0.331 0.202-0.537 0-0.022-0.001-0.044-0.003-0.065l0 0.003zM23.133 5.6v-0.2c-0.473-0.438-1.103-0.714-1.796-0.733l-0.004-0h-10.667c-0.016-0-0.034-0.001-0.053-0.001-0.684 0-1.303 0.281-1.747 0.734l-0 0c-0.4 0.335-0.685 0.794-0.797 1.318l-0.003 0.015-0.067 16.533c-0.001 0.032-0.002 0.069-0.002 0.106 0 0.393 0.074 0.769 0.209 1.115l-0.007-0.021c0.184 0.309 0.405 0.573 0.663 0.797l0.004 0.003h-0.133c0.326 0.266 0.7 0.49 1.104 0.656l0.029 0.011h1.133c-0.212-0.605-0.334-1.302-0.334-2.028 0-0.037 0-0.074 0.001-0.11l-0 0.006q-0.267 0-0.333-0.133l-0.133-0.067c-0.082-0.082-0.133-0.195-0.133-0.321 0-0.004 0-0.009 0-0.013v0.001-16l0.133-0.2h0.133c0.067-0.118 0.191-0.197 0.333-0.2h10.667l0.267 0.067 0.067 0.133 0.133 0.2v6.867c0.816 0.193 1.527 0.444 2.201 0.762l-0.068-0.029v-7.6c0.001-0.025 0.002-0.054 0.002-0.083 0-0.648-0.313-1.222-0.796-1.58l-0.005-0.004z"></path>
</svg>
