<svg id="Ticket" xmlns="http://www.w3.org/2000/svg" width="24" height="24" viewBox="0 0 24 24">
  <rect id="Shape" width="24" height="24"  opacity="0"/>
  <path id="Ticket-2" data-name="Ticket" d="M7.25,8.75a.75.75,0,0,0-.75.75V11A.75.75,0,0,0,8,11V9.5A.75.75,0,0,0,7.25,8.75Zm9,.75A.75.75,0,0,0,17,8.75v-3A.75.75,0,0,0,16.25,5H2.75A.75.75,0,0,0,2,5.75v3a.75.75,0,0,0,.75.75.75.75,0,0,1,0,1.5.75.75,0,0,0-.75.75v3a.75.75,0,0,0,.75.75h13.5a.75.75,0,0,0,.75-.75v-3a.75.75,0,0,0-.75-.75.75.75,0,0,1,0-1.5ZM15.5,8.135a2.25,2.25,0,0,0,0,4.23V14H8a.75.75,0,0,0-1.5,0h-3V12.365a2.25,2.25,0,0,0,0-4.23V6.5h3A.75.75,0,0,0,8,6.5h7.5Z" transform="translate(2.5 1.75)"  />
</svg>
