<svg id="Timeline_alt" data-name="Timeline alt" xmlns="http://www.w3.org/2000/svg" width="24" height="24" viewBox="0 0 24 24">
  <rect id="Shape" width="24" height="24" fill="#02234b" opacity="0"/>
  <path id="Timeline_alt-2" data-name="Timeline alt" d="M-3455.672,14013.283v-1.958a2.056,2.056,0,0,1-1.257-1.374,2.041,2.041,0,0,1,.2-1.546,2.041,2.041,0,0,1,1.06-.9v-3a2.046,2.046,0,0,1-1.254-1.372,2.041,2.041,0,0,1,1.254-2.443v-1.961a.724.724,0,0,1,.711-.729h.01a.723.723,0,0,1,.717.73v1.959a2.087,2.087,0,0,1,1.19,1.184h1.931a2.231,2.231,0,0,1,2.079-1.418h5.776a2.256,2.256,0,0,1,2.256,2.253,2.257,2.257,0,0,1-2.256,2.253h-5.776a2.266,2.266,0,0,1-2.166-1.64h-1.844a2.057,2.057,0,0,1-1.19,1.184v3a2.059,2.059,0,0,1,1.19,1.184h1.884a2.248,2.248,0,0,1,2.126-1.532h5.776a2.259,2.259,0,0,1,2.256,2.253,2.257,2.257,0,0,1-2.256,2.257h-5.776a2.25,2.25,0,0,1-2.126-1.533h-1.884a2.044,2.044,0,0,1-1.184,1.185v1.961a.724.724,0,0,1-.724.725A.725.725,0,0,1-3455.672,14013.283Zm5.831-3.865a.812.812,0,0,0,.808.812h5.776a.815.815,0,0,0,.812-.812.815.815,0,0,0-.812-.812h-5.776A.809.809,0,0,0-3449.841,14009.418Zm.083-6.772a.812.812,0,0,0,.191.59.825.825,0,0,0,.553.281l5.757,0a.8.8,0,0,0,.724-.74.811.811,0,0,0-.744-.872h-5.747A.814.814,0,0,0-3449.758,14002.646Z" transform="translate(3461 -13994)" fill="#021d3d" stroke="rgba(0,0,0,0)" stroke-miterlimit="10" stroke-width="1"/>
</svg>
