<svg id="Time_Profile" data-name="Time Profile" xmlns="http://www.w3.org/2000/svg" width="24" height="24" viewBox="0 0 24 24">
  <rect id="Base" width="24" height="24" fill="#021d3d" opacity="0"/>
  <path id="clock" d="M19.55,12.45H19.5A4.763,4.763,0,0,0,16,11a4.951,4.951,0,0,0-5,5,4.763,4.763,0,0,0,1.45,3.5A4.847,4.847,0,0,0,16,21a4.685,4.685,0,0,0,3.5-1.5A4.685,4.685,0,0,0,21,16a4.991,4.991,0,0,0-1.45-3.55m-1.1,1.05h0A3.582,3.582,0,0,1,19.5,16a3.259,3.259,0,0,1-1.05,2.45A3.259,3.259,0,0,1,16,19.5a3.42,3.42,0,0,1-2.5-1.05,3.337,3.337,0,0,1-1-2.45A3.418,3.418,0,0,1,16,12.5a3.337,3.337,0,0,1,2.45,1m-3.05.05a.713.713,0,0,0-.2.45v2a.713.713,0,0,0,.2.45L16.95,18a.639.639,0,0,0,.9-.9l-1.4-1.4V14a.536.536,0,0,0-.15-.45.606.606,0,0,0-.9,0Z" transform="translate(1 2)" fill="#021d3d"/>
  <path id="ABX_TIme_Profile_edited" data-name="ABX TIme Profile_edited" d="M17.6,5.6H16V4.8a.765.765,0,0,0-.25-.55A.765.765,0,0,0,15.2,4a.666.666,0,0,0-.55.25.765.765,0,0,0-.25.55v.8H9.6V4.8a.765.765,0,0,0-.25-.55A.765.765,0,0,0,8.8,4a.666.666,0,0,0-.55.25A.765.765,0,0,0,8,4.8v.8H6.4A2.39,2.39,0,0,0,4,8v9.6a2.212,2.212,0,0,0,.7,1.7,2.275,2.275,0,0,0,1.55.7H9.7a.842.842,0,0,0,.6-.25.743.743,0,0,0,.2-.55.931.931,0,0,0-.2-.6.958.958,0,0,0-.6-.2H6.35a.7.7,0,0,1-.75-.8V8a.707.707,0,0,1,.8-.8H8V8a.707.707,0,0,0,.8.8.861.861,0,0,0,.55-.2A.818.818,0,0,0,9.6,8V7.2h4.8V8a.707.707,0,0,0,.8.8A.707.707,0,0,0,16,8V7.2h1.6a.765.765,0,0,1,.55.25.8.8,0,0,1,.15.2.62.62,0,0,1,.1.3v3a.842.842,0,0,0,.25.6.743.743,0,0,0,.55.2.931.931,0,0,0,.6-.2.958.958,0,0,0,.2-.6v-3a2.3,2.3,0,0,0-.2-.9,2.106,2.106,0,0,0-.5-.75A2.314,2.314,0,0,0,17.6,5.6Z" fill="#021d3d"/>
</svg>
