<svg id="times_circle_outlined" data-name="times circle outlined" xmlns="http://www.w3.org/2000/svg" width="24" height="24" viewBox="0 0 24 24">
  <rect id="Shape" width="24" height="24" fill="#021d3d" opacity="0"/>
  <path id="Reject" d="M12.283,6.718a.75.75,0,0,0-1.065,0L9.5,8.443,7.783,6.718A.753.753,0,0,0,6.718,7.783L8.443,9.5,6.718,11.218a.753.753,0,1,0,1.065,1.065L9.5,10.558l1.718,1.725a.753.753,0,1,0,1.065-1.065L10.558,9.5l1.725-1.718a.75.75,0,0,0,0-1.065ZM14.8,4.2a7.5,7.5,0,1,0,0,10.606A7.5,7.5,0,0,0,14.8,4.2Zm-1.058,9.548A6,6,0,1,1,15.5,9.5,6,6,0,0,1,13.745,13.745Z" transform="translate(2.5 2.5)" fill="#021d3d"/>
</svg>
