<svg id="times_circle_filled" data-name="times circle filled" xmlns="http://www.w3.org/2000/svg" width="24" height="24" viewBox="0 0 24 24">
  <rect id="Shape" width="24" height="24"  opacity="0"/>
  <path id="Subtraction_5" data-name="Subtraction 5" d="M7.5,15A7.5,7.5,0,0,1,2.2,2.2,7.5,7.5,0,1,1,12.8,12.8,7.444,7.444,0,0,1,7.5,15Zm0-6.442v0l2.468,2.469a.789.789,0,0,0,.3.183.755.755,0,0,0,.234.037.742.742,0,0,0,.529-.22.752.752,0,0,0,.22-.53.744.744,0,0,0-.22-.529L8.56,7.5l2.468-2.469a.749.749,0,0,0,0-1.06.747.747,0,0,0-1.06,0L7.5,6.441,5.03,3.972a.747.747,0,0,0-1.06,0,.754.754,0,0,0,0,1.06L6.44,7.5,3.97,9.97a.742.742,0,0,0-.218.529.747.747,0,0,0,.749.75.742.742,0,0,0,.529-.22L7.5,8.56Z" transform="translate(5 5)" />
</svg>
