<svg id="Toggle_on" data-name="Toggle on" xmlns="http://www.w3.org/2000/svg" width="24" height="24" viewBox="0 0 24 24">
  <rect id="Shape" width="24" height="24" fill="#021d3d" opacity="0"/>
  <path id="Toggle-on" d="M11.227,7.386a2.386,2.386,0,1,0,2.386,2.386,2.386,2.386,0,0,0-2.386-2.386Zm0,3.409A1.023,1.023,0,1,1,12.25,9.773,1.023,1.023,0,0,1,11.227,10.8Zm0-5.8H5.773a4.773,4.773,0,0,0,0,9.545h5.455a4.773,4.773,0,1,0,0-9.545Zm0,8.182H5.773a3.409,3.409,0,0,1,0-6.818h5.455a3.409,3.409,0,0,1,0,6.818Z" transform="translate(3.5 2.237)" fill="#021d3d"/>
</svg>
