<svg id="Trash_Lines" data-name="Trash Lines" xmlns="http://www.w3.org/2000/svg" width="24" height="24" viewBox="0 0 24 24">
  <rect id="Shape" width="24" height="24" fill="#021d3d" opacity="0"/>
  <path id="trash-alt" d="M8.25,14A.75.75,0,0,0,9,13.25V8.75a.75.75,0,0,0-1.5,0v4.5A.75.75,0,0,0,8.25,14Zm7.5-9h-3V4.25A2.25,2.25,0,0,0,10.5,2H9A2.25,2.25,0,0,0,6.75,4.25V5h-3a.75.75,0,0,0,0,1.5H4.5v8.25A2.25,2.25,0,0,0,6.75,17h6A2.25,2.25,0,0,0,15,14.75V6.5h.75a.75.75,0,0,0,0-1.5Zm-7.5-.75A.75.75,0,0,1,9,3.5h1.5a.75.75,0,0,1,.75.75V5h-3Zm5.25,10.5a.75.75,0,0,1-.75.75h-6A.75.75,0,0,1,6,14.75V6.5h7.5ZM11.25,14a.75.75,0,0,0,.75-.75V8.75a.75.75,0,0,0-1.5,0v4.5A.75.75,0,0,0,11.25,14Z" transform="translate(2.2 2.5)" fill="#021d3d"/>
</svg>
