<svg id="Trees" xmlns="http://www.w3.org/2000/svg" width="24" height="24" viewBox="0 0 24 24">
  <rect id="Shape" width="24" height="24"  opacity="0"/>
  <path id="Trees-2" data-name="Trees" d="M13.045,4.281a3.661,3.661,0,0,0-1.883.52A4.519,4.519,0,0,0,2.5,6.541V9.554a4.519,4.519,0,0,0,3.766,4.452v2.327a.753.753,0,1,0,1.506,0V14.005a4.58,4.58,0,0,0,2.094-.949,3.766,3.766,0,0,0,2.425,1.695v1.582a.753.753,0,1,0,1.506,0V14.751a3.766,3.766,0,0,0,3.013-3.691V8.047a3.766,3.766,0,0,0-3.766-3.766ZM9.279,8.047V11.06a3.939,3.939,0,0,0,.045.429,3.013,3.013,0,0,1-1.552.979V10.307a.753.753,0,1,0-1.506,0v2.154a3.013,3.013,0,0,1-2.26-2.907V6.541A3.013,3.013,0,0,1,9.151,4.4a2.968,2.968,0,0,1,.8,1.506A3.766,3.766,0,0,0,9.279,8.047Zm6.026,3.013A2.26,2.26,0,0,1,13.8,13.184V10.307a.753.753,0,1,0-1.506,0v2.877a2.26,2.26,0,0,1-1.506-2.124V8.047a2.26,2.26,0,1,1,4.519,0Z" transform="translate(2.338 2.414)"  />
</svg>
