<svg id="UploadArrow" xmlns="http://www.w3.org/2000/svg" width="24" height="24" viewBox="0 0 24 24">
  <rect id="Shape" width="24" height="24"  opacity="0"/>
  <path d="M11.422 8.213c0.139-0.131 0.326-0.212 0.532-0.212s0.394 0.081 0.533 0.212l-0-0 3 3c0.136 0.136 0.221 0.325 0.221 0.533 0 0.416-0.337 0.753-0.753 0.753-0.208 0-0.396-0.084-0.532-0.22v0l-1.714-1.726v5.693c0 0.414-0.336 0.75-0.75 0.75s-0.75-0.336-0.75-0.75v0-5.693l-1.721 1.725c-0.136 0.136-0.325 0.221-0.533 0.221-0.416 0-0.753-0.337-0.753-0.753 0-0.208 0.084-0.396 0.221-0.533v0z"></path>
</svg>
