<svg id="Upload" xmlns="http://www.w3.org/2000/svg" width="24" height="24" viewBox="0 0 24 24">
  <rect id="Shape" width="24" height="24"  opacity="0"/>
  <path id="Upload-2" data-name="Upload" d="M8.031,5.53,9,4.555v8.69a.75.75,0,1,0,1.5,0V4.555l.967.975A.753.753,0,1,0,12.53,4.465L10.28,2.216a.75.75,0,0,0-1.065,0L6.966,4.465A.753.753,0,0,0,8.031,5.53Zm6.216,1.717h-1.5a.75.75,0,1,0,0,1.5h1.5A.75.75,0,0,1,15,9.5v5.248a.75.75,0,0,1-.75.75h-9a.75.75,0,0,1-.75-.75V9.5a.75.75,0,0,1,.75-.75h1.5a.75.75,0,0,0,0-1.5h-1.5A2.249,2.249,0,0,0,3,9.5v5.248a2.249,2.249,0,0,0,2.249,2.249h9A2.249,2.249,0,0,0,16.5,14.745V9.5A2.249,2.249,0,0,0,14.247,7.247Z" transform="translate(2.251 2.506)"  />
</svg>
