<svg id="upload_circle_filled" data-name="upload circle filled" xmlns="http://www.w3.org/2000/svg" width="24" height="24" viewBox="0 0 24 24">
  <rect id="Shape" width="24" height="24" fill="#021d3d" opacity="0"/>
  <path id="Subtraction_27" data-name="Subtraction 27" d="M21897.5,17692a7.5,7.5,0,1,1,7.5-7.5A7.51,7.51,0,0,1,21897.5,17692Zm-.754-7.943v2.693a.751.751,0,0,0,1.5,0v-2.693l.967.979a.754.754,0,0,0,1.287-.533.762.762,0,0,0-.221-.533l-2.248-2.254a.82.82,0,0,0-.252-.154.714.714,0,0,0-.566,0,.713.713,0,0,0-.248.154l-2.254,2.254a.76.76,0,0,0,0,1.066.751.751,0,0,0,.535.217.742.742,0,0,0,.531-.217l.965-.977Z" transform="translate(-21885.5 -17672.5)" fill="#021d3d"/>
</svg>
