<svg xmlns="http://www.w3.org/2000/svg" width="24" height="24" viewBox="0 0 24 24">
  <g id="Upload_Cancelled" transform="translate(-500 -393.002)">
    <rect id="Rectangle_4161" width="24" height="24" transform="translate(500 393.002)" opacity="0"/>
    <g id="Upload_Cancelled-2" transform="translate(497.251 386.899)">
      <path id="Upload" d="M7.025,4.823l.774-.78V11A.6.6,0,0,0,9,11V4.043l.774.78a.6.6,0,1,0,.852-.852l-1.8-1.8a.6.6,0,0,0-.852,0l-1.8,1.8a.6.6,0,1,0,.852.852ZM12,6.2H10.8a.6.6,0,0,0,0,1.2H12a.6.6,0,0,1,.6.6v4.2a.6.6,0,0,1-.6.6H4.8a.6.6,0,0,1-.6-.6V8a.6.6,0,0,1,.6-.6H6A.6.6,0,0,0,6,6.2H4.8A1.8,1.8,0,0,0,3,8v4.2a1.8,1.8,0,0,0,1.8,1.8H12a1.8,1.8,0,0,0,1.8-1.8V8A1.8,1.8,0,0,0,12,6.2Z" transform="translate(3.749 12.506)"/>
      <path id="Close" d="M10.317,9.5l2.506-2.5A.585.585,0,0,0,12,6.167l-2.5,2.506-2.5-2.506a.585.585,0,0,0-.828.828L8.673,9.5,6.167,12a.585.585,0,1,0,.828.828l2.5-2.506L12,12.824A.585.585,0,1,0,12.823,12Z" transform="translate(9.607 3.107)"/>
    </g>
  </g>
</svg>
