<svg xmlns="http://www.w3.org/2000/svg" width="24" height="24" viewBox="0 0 24 24">
  <g id="Upload_Queued" transform="translate(-8.127 -6.625)">
    <rect id="Rectangle_4159" width="24" height="24" transform="translate(8.127 6.625)" opacity="0"/>
    <g id="Upload_Queued-2" transform="translate(12.127 12.625)">
      <path id="End_of_tour" d="M12.429,12.252h-.562v-.938a2.813,2.813,0,0,0-.169-.944c-.006-.017-.013-.032-.02-.048a2.8,2.8,0,0,0-.374-.7l-.787-1.05a1.7,1.7,0,0,1-.338-1.013V7A1.7,1.7,0,0,1,10.673,5.8l.37-.37a2.782,2.782,0,0,0,.785-1.6c0-.008,0-.014,0-.022l0-.008a2.823,2.823,0,0,0,.035-.362V2.127h.562a.562.562,0,0,0,0-1.125H4.554a.562.562,0,1,0,0,1.125h.562V3.445a2.823,2.823,0,0,0,.035.362l0,.008c0,.008,0,.014,0,.022a2.782,2.782,0,0,0,.785,1.6l.37.37A1.7,1.7,0,0,1,6.8,7v.568a1.7,1.7,0,0,1-.337,1.013l-.788,1.05a2.8,2.8,0,0,0-.374.7c-.007.016-.014.031-.02.047a2.814,2.814,0,0,0-.169.944v.938H4.554a.562.562,0,1,0,0,1.125h7.875a.562.562,0,0,0,0-1.125Zm-6.187-9V2.127h4.5V3.252Zm.494,1.386a1.671,1.671,0,0,1-.212-.261H10.46a1.671,1.671,0,0,1-.212.261l-.37.37a2.79,2.79,0,0,0-.8,1.619H7.905a2.79,2.79,0,0,0-.8-1.619Zm.631,4.614a2.833,2.833,0,0,0,.556-1.5H9.06a2.831,2.831,0,0,0,.556,1.5l.563.75H6.8Zm3.375,3h-4.5v-.938a1.662,1.662,0,0,1,.015-.187h4.469a1.662,1.662,0,0,1,.015.187Z" transform="translate(-3.992 -1.002)"/>
      <g id="Upload" transform="translate(9.251 2)">
        <path id="Upload-2" d="M5.794,3.958l.537-.541V8.243a.416.416,0,0,0,.833,0V3.417l.537.541a.418.418,0,1,0,.591-.591L7.044,2.117a.416.416,0,0,0-.591,0L5.2,3.367a.418.418,0,0,0,.591.591Zm3.452.954H8.414a.416.416,0,0,0,0,.833h.833a.416.416,0,0,1,.416.416V9.076a.416.416,0,0,1-.416.416h-5a.416.416,0,0,1-.416-.416V6.161a.416.416,0,0,1,.416-.416h.833a.416.416,0,0,0,0-.833H4.249A1.249,1.249,0,0,0,3,6.161V9.076a1.249,1.249,0,0,0,1.249,1.249h5A1.249,1.249,0,0,0,10.5,9.076V6.161A1.249,1.249,0,0,0,9.247,4.912Z" transform="translate(-3 -1.994)"/>
      </g>
    </g>
  </g>
</svg>
