<svg id="User_slash" data-name="User slash" xmlns="http://www.w3.org/2000/svg" width="24" height="24" viewBox="0 0 24 24">
  <rect id="Shape" width="24" height="24"  opacity="0"/>
  <path id="User_blocked_edited" data-name="User blocked edited" d="M4.55,7.8a.708.708,0,0,0-.4-.05.811.811,0,0,0-.5.35.786.786,0,0,0-.15.6.772.772,0,0,0,.35.5l4.8,3.35a6.5,6.5,0,0,0-2.1,2.05,6.392,6.392,0,0,0-1,3.45.765.765,0,0,0,.25.55.678.678,0,0,0,.5.2.743.743,0,0,0,.55-.2.765.765,0,0,0,.25-.55,4.629,4.629,0,0,1,1.4-3.4,4.878,4.878,0,0,1,1.55-1.1l6.9,4.85a.788.788,0,0,0,.6.15.878.878,0,0,0,.65-.95.815.815,0,0,0-.35-.5l-.6-.4q-.064-.037-.15-.1L4.55,7.8m9,3.2a2.184,2.184,0,0,1-.9.55L14,12.5l.6-.35A3.893,3.893,0,0,0,15.8,9.3a3.8,3.8,0,0,0-1.1-2.85A3.983,3.983,0,0,0,9.05,6.4a4.151,4.151,0,0,0-1.1,1.85l1.5,1a2.387,2.387,0,0,1,.7-1.65,2.425,2.425,0,0,1,1.7-.7,2.314,2.314,0,0,1,1.7.7,2.425,2.425,0,0,1,.7,1.7A2.314,2.314,0,0,1,13.55,11Z" transform="translate(0.01 0.05)" />
</svg>
