<svg id="Users_Moves" xmlns="http://www.w3.org/2000/svg" width="24" height="24" viewBox="0 0 24 24">
  <rect width="24" height="24" opacity="0"/>
  <g transform="translate(-400 -1397)">
    <path d="M21621.229,16331.351a3.58,3.58,0,0,0,1.238-2.709,3.641,3.641,0,1,0-7.281,0,3.58,3.58,0,0,0,1.238,2.709,5.823,5.823,0,0,0-3.424,5.3.729.729,0,0,0,1.457,0,4.369,4.369,0,1,1,8.738,0,.729.729,0,0,0,1.457,0A5.826,5.826,0,0,0,21621.229,16331.351Zm-2.4-.524a2.185,2.185,0,1,1,2.186-2.185A2.185,2.185,0,0,1,21618.826,16330.826Zm7.094.233a3.642,3.642,0,0,0-2.725-6.06.728.728,0,1,0,0,1.456,2.181,2.181,0,0,1,1.092,4.071.728.728,0,0,0-.035,1.238l.283.189.1.051a5.1,5.1,0,0,1,2.912,4.646.729.729,0,0,0,1.457,0A6.557,6.557,0,0,0,21625.92,16331.06Z" transform="translate(-21210.773 -14921.75)"/>
    <path d="M21627.541,16336.654a5.086,5.086,0,0,0-2.91-4.647l-.1-.054-.281-.185a.734.734,0,0,1-.326-.63.725.725,0,0,1,.363-.614,2.178,2.178,0,0,0-1.1-4.066.73.73,0,0,1,0-1.46,3.642,3.642,0,0,1,2.725,6.059,6.564,6.564,0,0,1,3.084,5.6.73.73,0,0,1-1.461,0Zm-4.348,0a4.368,4.368,0,1,0-8.736,0,.728.728,0,1,1-1.455,0,5.822,5.822,0,0,1,3.42-5.3,3.574,3.574,0,0,1-1.238-2.71,3.641,3.641,0,1,1,7.281,0,3.574,3.574,0,0,1-1.238,2.71,5.83,5.83,0,0,1,3.426,5.3.729.729,0,0,1-1.459,0Zm-6.555-8.014a2.186,2.186,0,1,0,2.189-2.183A2.185,2.185,0,0,0,21616.639,16328.641Zm13.135-.891,4,2.5-4,2.5Z" transform="translate(-21210.773 -14921.75)"/>
  </g>
</svg>
