<svg id="user_card" data-name="user card" xmlns="http://www.w3.org/2000/svg" width="24" height="24" viewBox="0 0 24 24">
  <rect id="Shape" width="24" height="24" fill="#021d3d" opacity="0"/>
  <path id="ABX_Personnel_edited" data-name="ABX Personnel_edited" d="M18.35,4.55A1.808,1.808,0,0,0,17,4H7a2.038,2.038,0,0,0-1.45.6A2.007,2.007,0,0,0,5,6V18a1.859,1.859,0,0,0,.55,1.4l.05.05h0A1.992,1.992,0,0,0,7,20H17a1.76,1.76,0,0,0,1.35-.6A1.815,1.815,0,0,0,19,18V6a1.739,1.739,0,0,0-.6-1.35.362.362,0,0,0-.05-.1m-7.3,7.35a1.3,1.3,0,0,1,.95-.4,1.141,1.141,0,0,1,.9.4,1.328,1.328,0,0,1,0,1.9,1.141,1.141,0,0,1-.9.4,1.344,1.344,0,0,1-.95-2.3M17,5.5a.307.307,0,0,1,.25.15h.05l.05.05a.466.466,0,0,1,.15.3V18a.461.461,0,0,1-.2.35.339.339,0,0,1-.3.15h-.6a.461.461,0,0,0,.05-.3,4.092,4.092,0,0,0-2.35-3.45,3.246,3.246,0,0,0,.75-1.9A2.9,2.9,0,0,0,12,10a2.9,2.9,0,0,0-2.85,2.85,2.8,2.8,0,0,0,.75,1.9A4.08,4.08,0,0,0,7.5,18.2a.866.866,0,0,0,0,.3H7a.581.581,0,0,1-.4-.2v.05A.524.524,0,0,1,6.5,18V6a.6.6,0,0,1,.1-.35A.747.747,0,0,1,7,5.5H17M8.95,18.4,9,18.35a2.923,2.923,0,0,1,3.3-2.6,2.857,2.857,0,0,1,1.8.85,3,3,0,0,1,.85,1.75v.15H8.9a.187.187,0,0,0,.05-.1M13.4,7H10.6q-.6,0-.6.65a.53.53,0,0,0,.6.6h2.8a.475.475,0,0,0,.4-.2.475.475,0,0,0,.2-.4Q14,7,13.4,7Z" transform="translate(0 0)" fill="#021d3d"/>
</svg>
