<svg id="user_clock" data-name="user clock" xmlns="http://www.w3.org/2000/svg" width="24" height="24" viewBox="0 0 24 24">
  <rect id="Shape" width="24" height="24" opacity="0"/>
  <g id="ABX_Guests_edited" data-name="ABX Guests_edited" transform="translate(-0.5 -0.7)">
    <path id="Path_7130" data-name="Path 7130" d="M13.5,8A3.5,3.5,0,0,0,10,4.5,3.253,3.253,0,0,0,7.55,5.55,3.253,3.253,0,0,0,6.5,8a3.414,3.414,0,0,0,1.05,2.5h0A6.435,6.435,0,0,0,5.8,11.8,5.65,5.65,0,0,0,4,16v1a.765.765,0,0,0,.25.55.678.678,0,0,0,.5.2.861.861,0,0,0,.55-.2A.861.861,0,0,0,5.5,17V16a4.211,4.211,0,0,1,1.35-3.15,4.2,4.2,0,0,1,3.1-1.35h.1a3.367,3.367,0,0,0,2.4-1h.05a3.5,3.5,0,0,0,1-2.5M12,8a2.07,2.07,0,0,1-.55,1.45,2.067,2.067,0,0,1-1.4.55h-.1A1.889,1.889,0,0,1,8.6,9.45,1.975,1.975,0,0,1,8,8a1.816,1.816,0,0,1,.6-1.4A1.816,1.816,0,0,1,10,6a1.975,1.975,0,0,1,1.45.6H11.4A1.919,1.919,0,0,1,12,8Z"/>
    <path id="Path_7131" data-name="Path 7131" d="M19.55,12.45H19.5A4.763,4.763,0,0,0,16,11a4.951,4.951,0,0,0-5,5,4.763,4.763,0,0,0,1.45,3.5A4.847,4.847,0,0,0,16,21a4.685,4.685,0,0,0,3.5-1.5A4.685,4.685,0,0,0,21,16a4.991,4.991,0,0,0-1.45-3.55m-1.1,1.05h0A3.582,3.582,0,0,1,19.5,16a3.259,3.259,0,0,1-1.05,2.45A3.259,3.259,0,0,1,16,19.5a3.42,3.42,0,0,1-2.5-1.05,3.337,3.337,0,0,1-1-2.45A3.418,3.418,0,0,1,16,12.5a3.337,3.337,0,0,1,2.45,1m-3.05.05a.713.713,0,0,0-.2.45v2a.713.713,0,0,0,.2.45L16.95,18a.639.639,0,0,0,.9-.9l-1.4-1.4V14a.536.536,0,0,0-.15-.45.606.606,0,0,0-.9,0Z"/>
  </g>
</svg>
