<svg id="User_Avatar" data-name="User Avatar" xmlns="http://www.w3.org/2000/svg" width="24" height="24" viewBox="0 0 24 24">
  <rect id="Base" width="24" height="24" fill="none"/>
  <path id="User" d="M9.213,2a7.207,7.207,0,0,0-5.3,12.08h0a7.207,7.207,0,0,0,10.595,0h0A7.207,7.207,0,0,0,9.213,2Zm0,12.973a5.766,5.766,0,0,1-4-1.622,4.324,4.324,0,0,1,8,0A5.766,5.766,0,0,1,9.213,14.973ZM7.771,7.766A1.441,1.441,0,1,1,9.213,9.207,1.441,1.441,0,0,1,7.771,7.766Zm6.422,4.324a5.766,5.766,0,0,0-2.818-2.436,2.883,2.883,0,1,0-4.324,0A5.766,5.766,0,0,0,4.232,12.09a5.708,5.708,0,0,1-.786-2.883,5.766,5.766,0,0,1,11.532,0A5.708,5.708,0,0,1,14.193,12.09Z" transform="translate(2.781 2.8)"  />
</svg>
