<svg id="users_back" data-name="users back" xmlns="http://www.w3.org/2000/svg" width="24" height="24" viewBox="0 0 24 24">
  <rect id="Shape" width="24" height="24" fill="#021d3d" opacity="0"/>
  <g id="Main_group" data-name="Main group" transform="translate(3.225 5.251)">
    <path id="Participants" d="M9.974,10.425a3.907,3.907,0,0,0,1.35-2.954,3.971,3.971,0,0,0-7.941,0,3.907,3.907,0,0,0,1.35,2.954A6.353,6.353,0,0,0,1,16.206a.794.794,0,1,0,1.588,0,4.765,4.765,0,0,1,9.529,0,.794.794,0,1,0,1.588,0,6.353,6.353,0,0,0-3.732-5.781ZM7.353,9.853A2.382,2.382,0,1,1,9.735,7.471,2.382,2.382,0,0,1,7.353,9.853Z" transform="translate(-1 -3.5)" fill="#021d3d"/>
    <path id="Participants-2" data-name="Participants" d="M14.232,10.107A3.971,3.971,0,0,0,11.262,3.5a.794.794,0,1,0,0,1.588,2.378,2.378,0,0,1,1.191,4.439.793.793,0,0,0-.04,1.35l.31.206.1.056A5.559,5.559,0,0,1,16,16.206a.794.794,0,1,0,1.588,0A7.147,7.147,0,0,0,14.232,10.107Z" transform="translate(-0.144 -3.5)" fill="#021d3d" opacity="0.34"/>
  </g>
</svg>
