<svg id="User" xmlns="http://www.w3.org/2000/svg" width="24" height="24" viewBox="0 0 24 24">
  <rect id="Shape" width="24" height="24" fill="#021d3d" opacity="0"/>
  <path id="User-2" data-name="User" d="M12.234,10.425a3.907,3.907,0,0,0,1.35-2.954,3.971,3.971,0,1,0-7.941,0,3.907,3.907,0,0,0,1.39,2.954A6.353,6.353,0,0,0,3.3,16.206a.794.794,0,0,0,1.588,0,4.765,4.765,0,1,1,9.529,0,.794.794,0,0,0,1.588,0,6.353,6.353,0,0,0-3.772-5.781ZM9.613,9.853A2.382,2.382,0,1,1,12,7.471,2.382,2.382,0,0,1,9.613,9.853Z" transform="translate(2.325 1.749)" fill="#021d3d"/>
</svg>
