<svg id="Users_times" data-name="Users times" xmlns="http://www.w3.org/2000/svg" width="24" height="24" viewBox="0 0 24 24">
  <rect id="Shape" width="24" height="24" fill="#02234b" opacity="0"/>
  <path id="Union_93" data-name="Union 93" d="M21627.543,16336.653a5.1,5.1,0,0,0-2.91-4.647l-.1-.049-.283-.19a.73.73,0,0,1,.033-1.237,2.181,2.181,0,0,0-1.092-4.072.728.728,0,0,1,0-1.455,3.641,3.641,0,0,1,2.725,6.06,6.552,6.552,0,0,1,3.084,5.592.729.729,0,0,1-1.459,0Zm-4.35,0a4.368,4.368,0,1,0-8.736,0,.729.729,0,0,1-1.459,0,5.832,5.832,0,0,1,3.426-5.3,3.574,3.574,0,0,1-1.238-2.709,3.641,3.641,0,0,1,7.281,0,3.574,3.574,0,0,1-1.238,2.709,5.838,5.838,0,0,1,3.426,5.3.73.73,0,0,1-1.461,0Zm-6.553-8.014a2.186,2.186,0,1,0,2.188-2.183A2.188,2.188,0,0,0,21616.641,16328.64Zm13.367,3.3v-.792h-.793a.8.8,0,1,1,0-1.591h.793v-.793a.795.795,0,0,1,1.59,0v.793h.793a.8.8,0,0,1,0,1.591h-.793v.792a.795.795,0,0,1-1.59,0Z" transform="translate(-21610.773 -16318.75)" fill="#021d3d"/>
</svg>
