<svg id="user_stats" data-name="user stats" xmlns="http://www.w3.org/2000/svg" width="24" height="24" viewBox="0 0 24 24">
  <rect id="Shape" width="24" height="24" fill="#021d3d" opacity="0"/>
  <g id="ABX_Guests_edited" data-name="ABX Guests_edited" transform="translate(1 0.5)">
    <path id="Union_91" data-name="Union 91" d="M19703.248,17385.549a.776.776,0,0,1-.246-.549v-1a5.63,5.63,0,0,1,1.8-4.2,6.308,6.308,0,0,1,1.746-1.3,3.434,3.434,0,0,1-1.049-2.5,3.6,3.6,0,0,1,3.5-3.5,3.507,3.507,0,0,1,3.5,3.5,3.506,3.506,0,0,1-1,2.5h-.049a3.379,3.379,0,0,1-2.4,1h-.1a4.612,4.612,0,0,0-4.449,4.5v1a.693.693,0,0,1-.752.752A.69.69,0,0,1,19703.248,17385.549Zm4.352-10.947a1.8,1.8,0,0,0-.6,1.4,1.956,1.956,0,0,0,.6,1.449,1.9,1.9,0,0,0,1.35.555h.1a1.891,1.891,0,0,0,1.949-2,1.908,1.908,0,0,0-.6-1.4h.049a1.973,1.973,0,0,0-1.449-.6A1.819,1.819,0,0,0,19707.6,17374.6Zm6.789,10.9a.741.741,0,0,1-.539-.258l-2.1-2.4-.969.936a.73.73,0,0,1-.529.219h-1.5a.75.75,0,1,1,0-1.5h1.193l1.271-1.281a.761.761,0,0,1,.559-.223.771.771,0,0,1,.539.262l2.1,2.395.93-.934a.73.73,0,0,1,.529-.219h1.875a.75.75,0,1,1,0,1.5h-1.568l-1.256,1.281a.734.734,0,0,1-.518.219Z" transform="translate(-19700.002 -17368)" fill="#021d3d"/>
  </g>
</svg>
