<svg id="User_Temporary" data-name="User Temporary" xmlns="http://www.w3.org/2000/svg" width="24" height="24" viewBox="0 0 24 24">
  <rect id="Shape" width="24" height="24" fill="#021d3d" opacity="0"/>
  <path id="Participants" d="M9.974,10.425a3.907,3.907,0,0,0,1.35-2.954,3.971,3.971,0,0,0-7.941,0,3.907,3.907,0,0,0,1.35,2.954A6.353,6.353,0,0,0,1,16.206a.794.794,0,1,0,1.588,0,4.765,4.765,0,0,1,9.529,0,.794.794,0,1,0,1.588,0,6.353,6.353,0,0,0-3.732-5.781ZM7.353,9.853A2.382,2.382,0,1,1,9.735,7.471,2.382,2.382,0,0,1,7.353,9.853Z" transform="translate(2.225 1.751)" fill="#021d3d"/>
  <path id="Report" d="M7.75,11h4.5a.75.75,0,0,1,0,1.5H7.75a.75.75,0,0,1,0-1.5Zm0-3h3a.75.75,0,1,1,0,1.5h-3a.75.75,0,1,1,0-1.5Z" transform="translate(8 -0.5)" fill="#021d3d"/>
</svg>
