<svg id="user_edit" data-name="user edit" xmlns="http://www.w3.org/2000/svg" width="24" height="24" viewBox="0 0 24 24">
  <rect id="Shape" width="24" height="24"  opacity="0"/>
  <g id="ABX_Guests_edited" data-name="ABX Guests_edited" transform="translate(1 0.5)">
    <path id="Path_7130" data-name="Path 7130" d="M13.5,8A3.5,3.5,0,0,0,10,4.5,3.253,3.253,0,0,0,7.55,5.55,3.253,3.253,0,0,0,6.5,8a3.414,3.414,0,0,0,1.05,2.5h0A6.435,6.435,0,0,0,5.8,11.8,5.65,5.65,0,0,0,4,16v1a.765.765,0,0,0,.25.55.678.678,0,0,0,.5.2.861.861,0,0,0,.55-.2A.861.861,0,0,0,5.5,17V16a4.211,4.211,0,0,1,1.35-3.15,4.2,4.2,0,0,1,3.1-1.35h.1a3.367,3.367,0,0,0,2.4-1h.05a3.5,3.5,0,0,0,1-2.5M12,8a2.07,2.07,0,0,1-.55,1.45,2.067,2.067,0,0,1-1.4.55h-.1A1.889,1.889,0,0,1,8.6,9.45,1.975,1.975,0,0,1,8,8a1.816,1.816,0,0,1,.6-1.4A1.816,1.816,0,0,1,10,6a1.975,1.975,0,0,1,1.45.6H11.4A1.919,1.919,0,0,1,12,8Z" />
    <path id="envelope-edit" d="M11.481,9.619h1.912a.79.79,0,0,0,.561-.229l3.619-3.618a.79.79,0,0,0,0-1.122L15.66,2.738a.79.79,0,0,0-1.122,0L10.92,6.356a.83.83,0,0,0-.229.561V8.829A.79.79,0,0,0,11.481,9.619Zm.79-2.37L15.1,4.421l.79.79L13.061,8.039h-.79Z" transform="translate(-0.5 8.195)" />
  </g>
</svg>
