<svg id="Users_People" data-name="Users People" xmlns="http://www.w3.org/2000/svg" width="24" height="24" viewBox="0 0 24 24">
  <rect id="Shape" width="24" height="24" transform="translate(0)"  opacity="0"/>
  <path id="Participants" d="M9.974,10.425a3.907,3.907,0,0,0,1.35-2.954,3.971,3.971,0,0,0-7.941,0,3.907,3.907,0,0,0,1.35,2.954A6.353,6.353,0,0,0,1,16.206a.794.794,0,1,0,1.588,0,4.765,4.765,0,0,1,9.529,0,.794.794,0,1,0,1.588,0,6.353,6.353,0,0,0-3.732-5.781ZM7.353,9.853A2.382,2.382,0,1,1,9.735,7.471,2.382,2.382,0,0,1,7.353,9.853Zm7.735.254A3.971,3.971,0,0,0,12.118,3.5a.794.794,0,0,0,0,1.588,2.378,2.378,0,0,1,1.191,4.439.793.793,0,0,0-.04,1.35l.31.206.1.056a5.559,5.559,0,0,1,3.176,5.066.794.794,0,0,0,1.588,0A7.147,7.147,0,0,0,15.088,10.107Z" transform="translate(2.225 1.75)"  />
</svg>
