<svg id="User_Verified" data-name="User Verified" xmlns="http://www.w3.org/2000/svg" width="24" height="24" viewBox="0 0 24 24">
  <rect id="Shape" width="24" height="24" fill="#021d3d" opacity="0"/>
  <path id="Show" d="M10.974,10.425a3.907,3.907,0,0,0,1.35-2.954,3.971,3.971,0,1,0-7.941,0,3.907,3.907,0,0,0,1.35,2.954A6.353,6.353,0,0,0,2,16.206a.794.794,0,1,0,1.588,0,4.765,4.765,0,1,1,9.529,0,.794.794,0,1,0,1.588,0,6.353,6.353,0,0,0-3.732-5.781ZM8.353,9.853a2.382,2.382,0,1,1,2.382-2.382A2.382,2.382,0,0,1,8.353,9.853Zm9.3-1.882a.794.794,0,0,0-1.128,0L14.936,9.559l-.492-.5a.795.795,0,0,0-1.128,1.12l1.064,1.064a.794.794,0,0,0,1.12,0l2.12-2.12a.794.794,0,0,0,.032-1.151Z" transform="translate(3.25 1.751)" fill="#021d3d"/>
</svg>
