<svg id="User_Pinned" data-name="User Pinned" xmlns="http://www.w3.org/2000/svg" width="24" height="24" viewBox="0 0 24 24">
  <rect id="Shape" width="24" height="24" fill="#021d3d" opacity="0"/>
  <path id="Staff_Feedback" data-name="Staff Feedback" d="M11.685,8.975a2.43,2.43,0,0,0,.532-1.5,2.467,2.467,0,0,0-4.935,0,2.43,2.43,0,0,0,.532,1.5,3.75,3.75,0,0,0-1.5,1.732.75.75,0,1,0,1.38.585A2.25,2.25,0,0,1,9.75,9.927h0a2.25,2.25,0,0,1,2.062,1.365.75.75,0,0,0,.69.457.818.818,0,0,0,.292-.06.75.75,0,0,0,.4-.983,3.75,3.75,0,0,0-1.507-1.732ZM9.75,8.427h0a.968.968,0,1,1,.967-.96.967.967,0,0,1-.967.96ZM14.25,2h-9A2.25,2.25,0,0,0,3,4.25V12.5a2.25,2.25,0,0,0,2.25,2.25H7.192l2.025,2.032a.756.756,0,0,0,1.02.037l2.415-2.07h1.6A2.25,2.25,0,0,0,16.5,12.5V4.25A2.25,2.25,0,0,0,14.25,2ZM15,12.5a.75.75,0,0,1-.75.75H12.375a.75.75,0,0,0-.488.18l-2.1,1.8L8.032,13.467A.75.75,0,0,0,7.5,13.25H5.25a.75.75,0,0,1-.75-.75V4.25a.75.75,0,0,1,.75-.75h9a.75.75,0,0,1,.75.75Z" transform="translate(2.249 2.5)" fill="#021d3d"/>
</svg>
