<svg id="user_arrows" data-name="user arrows" xmlns="http://www.w3.org/2000/svg" width="24" height="24" viewBox="0 0 24 24">
  <rect id="Shape" width="24" height="24" rx="8" opacity="0"/>
  <path id="user-arrows" d="M16.177,13.1a2.7,2.7,0,1,0-4.08,0,3.855,3.855,0,0,0-1.823,3.267.773.773,0,0,0,1.545,0,2.318,2.318,0,0,1,4.636,0,.773.773,0,0,0,1.545,0A3.855,3.855,0,0,0,16.177,13.1Zm-2.04-.6A1.159,1.159,0,1,1,15.3,11.341,1.159,1.159,0,0,1,14.136,12.5ZM5.477,6.865,7.022,8.41A.773.773,0,1,0,8.115,7.317l-.226-.226h3.224l-.226.226A.773.773,0,1,0,11.978,8.41l1.545-1.545a.775.775,0,0,0,0-1.093L11.978,4.226a.773.773,0,1,0-1.093,1.093l.226.226H7.888l.226-.226A.773.773,0,1,0,7.022,4.226L5.477,5.772a.775.775,0,0,0,0,1.093ZM6.9,13.1a2.7,2.7,0,1,0-4.745-1.755A2.68,2.68,0,0,0,2.823,13.1,3.855,3.855,0,0,0,1,16.364a.773.773,0,0,0,1.545,0,2.318,2.318,0,0,1,4.636,0,.773.773,0,1,0,1.545,0A3.855,3.855,0,0,0,6.9,13.1Zm-2.04-.6a1.159,1.159,0,1,1,1.159-1.159A1.159,1.159,0,0,1,4.864,12.5Z" transform="translate(3 2)" />
</svg>
