<svg id="user_cards" data-name="user cards" xmlns="http://www.w3.org/2000/svg" width="24" height="24" viewBox="0 0 24 24">
  <rect id="Shape" width="24" height="24" fill="#021d3d" opacity="0"/>
  <g id="ABX_Personnel_Groups_edited" data-name="ABX Personnel Groups_edited" transform="translate(0.6 -0.5)">
    <path id="Path_7152" data-name="Path 7152" d="M16.35,3.55A1.808,1.808,0,0,0,15,3H5a2.038,2.038,0,0,0-1.45.6A2.007,2.007,0,0,0,3,5V17a1.859,1.859,0,0,0,.55,1.4l.05.05h0A1.992,1.992,0,0,0,5,19H15a1.76,1.76,0,0,0,1.35-.6A1.815,1.815,0,0,0,17,17V5a1.739,1.739,0,0,0-.6-1.35.362.362,0,0,0-.05-.1M10.9,10.9a1.328,1.328,0,0,1,0,1.9,1.141,1.141,0,0,1-.9.4,1.35,1.35,0,0,1,0-2.7,1.141,1.141,0,0,1,.9.4m4.45-6.2a.466.466,0,0,1,.15.3V17a.461.461,0,0,1-.2.35.339.339,0,0,1-.3.15h-.6a.461.461,0,0,0,.05-.3,4.092,4.092,0,0,0-2.35-3.45,3.246,3.246,0,0,0,.75-1.9A2.9,2.9,0,0,0,10,9a2.9,2.9,0,0,0-2.85,2.85,2.8,2.8,0,0,0,.75,1.9A4.08,4.08,0,0,0,5.5,17.2a.866.866,0,0,0,0,.3H5a.581.581,0,0,1-.4-.2v.05A.524.524,0,0,1,4.5,17V5a.6.6,0,0,1,.1-.35A.747.747,0,0,1,5,4.5H15a.307.307,0,0,1,.25.15h.05l.05.05M6.95,17.4,7,17.35a2.923,2.923,0,0,1,3.3-2.6,2.857,2.857,0,0,1,1.8.85,3,3,0,0,1,.85,1.75v.15H6.9a.187.187,0,0,0,.05-.1M12,6.65a.622.622,0,0,0-.2-.45.475.475,0,0,0-.4-.2H8.6Q8,6,8,6.65a.53.53,0,0,0,.6.6h2.8a.475.475,0,0,0,.4-.2A.475.475,0,0,0,12,6.65Z" fill="#021d3d"/>
    <path id="Path_7153" data-name="Path 7153" d="M18.65,8a.681.681,0,0,0-.2.5v11a1.025,1.025,0,0,1-1,1h-9a.7.7,0,1,0,0,1.4h9a2.39,2.39,0,0,0,2.4-2.4V8.5a.707.707,0,0,0-1.2-.5Z" fill="#021d3d"/>
  </g>
</svg>
