<svg id="User_Rectangle" data-name="User Rectangle" xmlns="http://www.w3.org/2000/svg" width="24" height="24" viewBox="0 0 24 24">
  <rect id="Shape" width="24" height="24" fill="#021d3d" opacity="0"/>
  <path id="Professional_staff" data-name="Professional staff" d="M11.608,9.71a2.8,2.8,0,0,0,.75-1.875,2.835,2.835,0,0,0-5.67,0,2.8,2.8,0,0,0,.75,1.875A4.455,4.455,0,0,0,5,13.167a.755.755,0,1,0,1.5.165,3,3,0,0,1,5.955,0,.75.75,0,0,0,.8.668h.083a.75.75,0,0,0,.66-.825A4.455,4.455,0,0,0,11.608,9.71ZM9.5,9.17a1.335,1.335,0,1,1,1.335-1.335A1.335,1.335,0,0,1,9.5,9.17ZM14.75,2H4.25A2.25,2.25,0,0,0,2,4.25v10.5A2.25,2.25,0,0,0,4.25,17h10.5A2.25,2.25,0,0,0,17,14.75V4.25A2.25,2.25,0,0,0,14.75,2Zm.75,12.75a.75.75,0,0,1-.75.75H4.25a.75.75,0,0,1-.75-.75V4.25a.75.75,0,0,1,.75-.75h10.5a.75.75,0,0,1,.75.75Z" transform="translate(2.5 2.5)" fill="#021d3d"/>
</svg>
