<svg id="user_minus" data-name="user minus" xmlns="http://www.w3.org/2000/svg" width="24" height="24" viewBox="0 0 24 24">
  <rect id="Shape" width="24" height="24" fill="#021d3d" opacity="0"/>
  <path id="user-minus" d="M17.088,9.059H13.912a.794.794,0,0,0,0,1.588h3.176a.794.794,0,1,0,0-1.588Zm-6.115,1.366a3.907,3.907,0,0,0,1.35-2.954,3.971,3.971,0,1,0-7.941,0,3.907,3.907,0,0,0,1.35,2.954A6.353,6.353,0,0,0,2,16.206a.794.794,0,1,0,1.588,0,4.765,4.765,0,0,1,9.529,0,.794.794,0,1,0,1.588,0,6.353,6.353,0,0,0-3.732-5.781ZM8.353,9.853a2.382,2.382,0,1,1,2.382-2.382A2.382,2.382,0,0,1,8.353,9.853Z" transform="translate(2 1.5)" fill="#021d3d"/>
</svg>
