<svg id="User_Warning" data-name="User Warning" xmlns="http://www.w3.org/2000/svg" width="24" height="24" viewBox="0 0 24 24">
  <rect id="Shape" width="24" height="24"  opacity="0"/>
  <path id="No_show" data-name="No show" d="M12.234,10.425a3.907,3.907,0,0,0,1.35-2.954,3.971,3.971,0,1,0-7.941,0,3.907,3.907,0,0,0,1.39,2.954A6.353,6.353,0,0,0,3.3,16.206a.794.794,0,0,0,1.588,0,4.765,4.765,0,1,1,9.529,0,.794.794,0,0,0,1.588,0,6.353,6.353,0,0,0-3.772-5.781ZM9.613,9.853A2.382,2.382,0,1,1,12,7.471,2.382,2.382,0,0,1,9.613,9.853Zm6.75-3.971a.794.794,0,0,0-.794.794V8.265a.794.794,0,0,0,1.588,0V6.676A.794.794,0,0,0,16.363,5.882Zm-.6,4.2a.834.834,0,0,0-.23.564.794.794,0,0,0,.23.564.913.913,0,0,0,.262.167.746.746,0,0,0,.6,0,.715.715,0,0,0,.429-.429.667.667,0,0,0,.064-.3.794.794,0,0,0-1.358-.564Z" transform="translate(1.949 1.749)"  />
</svg>
