<svg id="Vacation" xmlns="http://www.w3.org/2000/svg" xmlns:xlink="http://www.w3.org/1999/xlink" width="24" height="24" viewBox="0 0 24 24">
  <defs>
    <clipPath id="clip-path">
      <path id="mask" d="M0,0H17l4.25,8.477L17,15.5H0Z" transform="translate(2 1.11)"  />
    </clipPath>
    <clipPath id="clip-path-2">
      <rect id="mask-2" data-name="mask" width="19" height="9" transform="translate(3 1)"  opacity="0.44"/>
    </clipPath>
  </defs>
  <rect id="Base" width="24" height="24"  opacity="0"/>
  <g id="Chair" transform="translate(2 -1)">
    <line id="Line_201" data-name="Line 201" x2="9" transform="translate(5.5 18.5)"  stroke-width="1.5"/>
    <line id="Line_202" data-name="Line 202" x2="5" transform="translate(14.7 18.336) rotate(-45)"  stroke-width="1.5"/>
    <path id="Path_2234" data-name="Path 2234" d="M2,0,.563,2.438" transform="translate(5.5 18.5)"  stroke-width="1.5"/>
    <path id="Path_2235" data-name="Path 2235" d="M.563,0,2,2.438" transform="translate(13.5 18.5)"  stroke-width="1.5"/>
  </g>
  <g id="Umbrella" transform="translate(-1 -1.11)" clip-path="url(#clip-path)">
    <g id="umbrella-2" data-name="umbrella" transform="matrix(0.966, -0.259, 0.259, 0.966, -2.486, 4.728)">
      <g id="Mask_Group_6" data-name="Mask Group 6" clip-path="url(#clip-path-2)">
        <g id="Ellipse_388" data-name="Ellipse 388" transform="translate(4 4)"  stroke-width="1.5">
          <ellipse cx="8" cy="7" rx="8" ry="7" stroke="none"/>
          <ellipse cx="8" cy="7" rx="7.25" ry="6.25" fill="none"/>
        </g>
        <g id="Ellipse_389" data-name="Ellipse 389" transform="translate(8 4)"  stroke-width="1.5">
          <ellipse cx="4" cy="7" rx="4" ry="7" stroke="none"/>
          <ellipse cx="4" cy="7" rx="3.25" ry="6.25" fill="none"/>
        </g>
      </g>
      <line id="Line_203" data-name="Line 203" x2="14.8" transform="translate(4.601 10.5)"  stroke-width="1.5"/>
      <line id="Line_204" data-name="Line 204" y2="1.4" transform="translate(12.001 3.1)"  stroke-width="1.5"/>
      <line id="Line_205" data-name="Line 205" y2="10.4" transform="translate(12.001 11.1)"  stroke-width="1.5"/>
    </g>
  </g>
</svg>
