<svg id="video_camera_alt_que" data-name="video camera alt que" xmlns="http://www.w3.org/2000/svg" width="24" height="24" viewBox="0 0 24 24">
  <rect id="Base" width="24" height="24"  opacity="0"/>
  <path id="video-question" d="M9.122,15.662a.908.908,0,0,0-1.232,0,.891.891,0,0,0-.182.286.817.817,0,0,0,0,.66,1,1,0,0,0,.182.286A.865.865,0,0,0,9.3,15.948a1,1,0,0,0-.182-.286ZM8.506,8.47a2.611,2.611,0,0,0-2.253,1.3.867.867,0,0,0,1.5.868.868.868,0,1,1,.752,1.3.867.867,0,0,0-.868.868v.867a.868.868,0,0,0,1.735,0v-.16A2.6,2.6,0,0,0,8.506,8.47ZM18.938,6a.867.867,0,0,0-.844-.038L15,7.5A2.6,2.6,0,0,0,12.41,5H4.6A2.605,2.605,0,0,0,2,7.6v5.2a2.605,2.605,0,0,0,2.6,2.6H5.47a.868.868,0,0,0,0-1.735H4.6a.868.868,0,0,1-.867-.867V7.6A.868.868,0,0,1,4.6,6.735H12.41a.868.868,0,0,1,.867.868v5.2a.868.868,0,0,1-.867.867h-.434a.868.868,0,1,0,0,1.735h.434A2.6,2.6,0,0,0,15,12.905l3.092,1.546a.868.868,0,0,0,1.256-.776V6.735A.867.867,0,0,0,18.938,6Zm-1.323,6.274-2.6-1.3V9.44l2.6-1.3Z" transform="translate(1 1)"  />
</svg>
