<svg id="Video_camera_slash_alt" data-name="Video camera slash alt" xmlns="http://www.w3.org/2000/svg" width="24" height="24" viewBox="0 0 24 24">
  <rect id="Shape" width="24" height="24"   opacity="0"/>
  <path id="video-slash" d="M6.95,5.719h0L3.482,2.251A.871.871,0,0,0,2.251,3.482l2.02,1.986A2.6,2.6,0,0,0,2,8.069v5.2a2.6,2.6,0,0,0,2.6,2.6h7.8a2.6,2.6,0,0,0,1.647-.6l3.806,3.815a.871.871,0,1,0,1.231-1.231ZM12.4,14.138H4.6a.867.867,0,0,1-.867-.867v-5.2A.867.867,0,0,1,4.6,7.2H5.979L12.8,14.034A.867.867,0,0,1,12.4,14.138Zm6.529-7.674a.867.867,0,0,0-.867,0L15.006,7.974a2.6,2.6,0,0,0-2.6-2.506H11.242a.867.867,0,1,0,0,1.734H12.4a.867.867,0,0,1,.867.867v1.3h0a1.405,1.405,0,0,0,0,.165.564.564,0,0,0,.043.173h0a.61.61,0,0,1,.061.087.867.867,0,0,0,.13.182s.087.052.13.087l.147.1a.737.737,0,0,0,.2,0,.607.607,0,0,0,.121,0h0a1.4,1.4,0,0,0,.165,0,.564.564,0,0,0,.173-.043h0l3.165-1.509v4.96a.867.867,0,1,0,1.734,0V7.2a.867.867,0,0,0-.408-.737Z" transform="translate(1.004 1.004)" />
</svg>
