<svg xmlns="http://www.w3.org/2000/svg" width="24" height="24" viewBox="0 0 24 24">
  <g id="Video_Camera_CCTV_OLD_" data-name="Video Camera / CCTV (OLD)" opacity="0.34">
    <rect id="Shape" width="24" height="24" fill="none" opacity="0.12"/>
    <path id="Shape-2" data-name="Shape" d="M1.877,15H.627A.626.626,0,0,1,0,14.377V10a.626.626,0,0,1,.625-.625h1.25a1.877,1.877,0,0,1,1.875,1.875v.313h2.5V8.127h-5A1.251,1.251,0,0,1,0,6.877V1.252A1.251,1.251,0,0,1,1.252,0H12.234a1.249,1.249,0,0,1,1.209,1.563h.308A1.251,1.251,0,0,1,15,2.815v2.5a1.251,1.251,0,0,1-1.25,1.25H11.633l-.12.328A1.88,1.88,0,0,1,9.751,8.127H7.5v4.062a.626.626,0,0,1-.625.625H3.752v.313A1.877,1.877,0,0,1,1.877,15Zm-.625-4.375v3.125h.625a.626.626,0,0,0,.625-.625V11.252a.626.626,0,0,0-.625-.625Zm0-9.375V6.877h8.5a.631.631,0,0,0,.588-.412l1.9-5.213ZM13,2.815l-.909,2.5h1.664v-2.5Z" transform="translate(4.998 4.998)" fill="#021d3d"/>
  </g>
</svg>
