<svg id="Video_camera_alt" data-name="Video camera alt" xmlns="http://www.w3.org/2000/svg" width="24" height="24" viewBox="0 0 24 24">
  <rect id="Base" width="24" height="24" fill="#021d3d" opacity="0"/>
  <path id="ABX_Access_Points_edited" data-name="ABX Access Points_edited" d="M20.85,15V9a.884.884,0,0,0-1-1l-3.9,1.7V9.5a2.376,2.376,0,0,0-.75-1.75l.05.05a2.315,2.315,0,0,0-1.75-.75H6a2.546,2.546,0,0,0-1.8.7h.05A2.315,2.315,0,0,0,3.5,9.5v5a2.376,2.376,0,0,0,.7,1.75A2.457,2.457,0,0,0,6,17h7.5a2.247,2.247,0,0,0,1.75-.8l-.05.05a2.3,2.3,0,0,0,.75-1.75v-.25L19.85,16a.884.884,0,0,0,1-1m-6.8-6.1h0a.883.883,0,0,1,.3.6v5a.751.751,0,0,1-.3.6v.05a.651.651,0,0,1-.55.25H6a.9.9,0,0,1-.65-.3.816.816,0,0,1-.25-.6v-5a.717.717,0,0,1,.2-.55l.05-.05A1,1,0,0,1,6,8.65h7.5a.718.718,0,0,1,.55.2V8.9m1.9,2.6H16l3.25-1.45V14L16,12.55h-.05Z" transform="translate(-0.201 -0.05)" fill="#021d3d"/>
</svg>
