<svg id="Video_Camera_CCTV" data-name="Video Camera / CCTV" xmlns="http://www.w3.org/2000/svg" width="24" height="24" viewBox="0 0 24 24">
  <rect id="Base" width="24" height="24" fill="#021d3d" opacity="0"/>
  <path id="ABX_Camera_edited" data-name="ABX Camera_edited" d="M16.7,5.1a1.816,1.816,0,0,0-1.4-.6h-9a1.975,1.975,0,0,0-1.45.6A1.9,1.9,0,0,0,4.3,6.5v5a2.07,2.07,0,0,0,.55,1.45,2.07,2.07,0,0,0,1.45.55H8.05v2.75H5.8v-1a.678.678,0,0,0-.2-.5.765.765,0,0,0-.55-.25.663.663,0,0,0-.75.75v3.5a.663.663,0,0,0,.75.75.663.663,0,0,0,.75-.75v-1h3a.611.611,0,0,0,.5-.25.612.612,0,0,0,.25-.5V13.5H13.3a1.327,1.327,0,0,0,1.05-.35q.041-.041.65-1.15h3.65a.884.884,0,0,0,1-1V7a1.06,1.06,0,0,0-.25-.7,1.018,1.018,0,0,0-.75-.3H17.2a1.724,1.724,0,0,0-.5-.9m-2.75,5.7L13.3,12h-7a.442.442,0,0,1-.5-.5v-5A.442.442,0,0,1,6.3,6h9a.432.432,0,0,1,.45.35,22.438,22.438,0,0,1-1.8,4.45M16.7,8.25l.4-.75h1.05v3H15.8A18.668,18.668,0,0,0,16.7,8.25Z" transform="translate(0.099)" fill="#021d3d"/>
</svg>
