<svg id="Wallet" xmlns="http://www.w3.org/2000/svg" width="24" height="24" viewBox="0 0 24 24">
  <rect id="Shape" width="24" height="24"  opacity="0"/>
  <path id="Wallet-2" data-name="Wallet" d="M14.75,6H14V5.25A2.25,2.25,0,0,0,11.75,3H4.25A2.25,2.25,0,0,0,2,5.25H2v9A2.25,2.25,0,0,0,4.25,16.5h10.5A2.25,2.25,0,0,0,17,14.25v-6A2.25,2.25,0,0,0,14.75,6ZM4.25,4.5h7.5a.75.75,0,0,1,.75.75V6H4.25a.75.75,0,1,1,0-1.5ZM15.5,12h-.75a.75.75,0,1,1,0-1.5h.75Zm0-3h-.75a2.25,2.25,0,0,0,0,4.5h.75v.75a.75.75,0,0,1-.75.75H4.25a.75.75,0,0,1-.75-.75V7.372a2.25,2.25,0,0,0,.75.127h10.5a.75.75,0,0,1,.75.75Z" transform="translate(2.5 2.249)"  />
</svg>
