<svg id="warning_circle_filled" data-name="warning circle filled" xmlns="http://www.w3.org/2000/svg" width="24" height="24" viewBox="0 0 24 24">
  <rect id="Shape" width="24" height="24"  opacity="0"/>
  <path id="Subtraction_32" data-name="Subtraction 32" d="M20824.307,17452h-12.082a2.244,2.244,0,0,1-1.912-3.387l5.979-10.459a2.241,2.241,0,0,1,3.92,0l6.016,10.459a2.245,2.245,0,0,1-1.92,3.387Zm-6.055-4.484a.748.748,0,1,0,.746.748A.749.749,0,0,0,20818.252,17447.514Zm0-5.979a.748.748,0,0,0-.748.746v2.99a.747.747,0,1,0,1.494,0v-2.99A.746.746,0,0,0,20818.252,17441.535Z" transform="translate(-20806.25 -17432.5)"  />
</svg>
