<svg id="Warning" xmlns="http://www.w3.org/2000/svg" width="24" height="24" viewBox="0 0 24 24">
  <rect id="Shape" width="24" height="24" fill="#021d3d" opacity="0"/>
  <path id="Warning-2" data-name="Warning" d="M9.212,12.447a.747.747,0,1,0,.747.747A.747.747,0,0,0,9.212,12.447Zm7.975,1.1L11.17,3.081a2.242,2.242,0,0,0-3.917,0L1.274,13.545a2.242,2.242,0,0,0,1.913,3.386H15.236a2.242,2.242,0,0,0,1.951-3.386ZM15.894,15.04a.747.747,0,0,1-.658.381H3.187a.755.755,0,0,1-.658-1.129L8.509,3.829a.747.747,0,0,1,1.33,0l6.017,10.464a.747.747,0,0,1,.037.762ZM9.212,6.467a.747.747,0,0,0-.747.747V10.2a.747.747,0,0,0,1.495,0V7.215A.747.747,0,0,0,9.212,6.467Z" transform="translate(2.789 2.569)" fill="#021d3d"/>
</svg>
