<svg id="window_expand" data-name="window expand" xmlns="http://www.w3.org/2000/svg" width="24" height="24" viewBox="0 0 24 24">
  <rect id="Shape" width="24" height="24" fill="none"  opacity="0"/>
  <path id="expand-arrows-alt" d="M7.468,10.467,3.5,14.443V13.25a.75.75,0,0,0-1.5,0v3a.762.762,0,0,0,.75.75h3a.75.75,0,0,0,0-1.5H4.558l3.975-3.967a.753.753,0,1,0-1.065-1.065ZM4.558,3.5H5.75a.75.75,0,0,0,0-1.5h-3A.762.762,0,0,0,2,2.75v3a.75.75,0,0,0,1.5,0V4.558L7.468,8.532A.753.753,0,1,0,8.532,7.468Zm11.692,9a.75.75,0,0,0-.75.75v1.193l-3.967-3.975a.753.753,0,0,0-1.065,1.065L14.443,15.5H13.25a.75.75,0,0,0,0,1.5h3a.762.762,0,0,0,.75-.75v-3A.75.75,0,0,0,16.25,12.5Zm.69-10.035A.762.762,0,0,0,16.25,2h-3a.75.75,0,0,0,0,1.5h1.193L10.467,7.468a.753.753,0,1,0,1.065,1.065L15.5,4.558V5.75a.75.75,0,0,0,1.5,0v-3A.75.75,0,0,0,16.94,2.465Z" transform="translate(3 3)" fill="#021d3d"/>
</svg>
