<svg id="Zone" xmlns="http://www.w3.org/2000/svg" width="24" height="24" viewBox="0 0 24 24">
  <rect id="Base" width="24" height="24" fill="none"/>
  <path id="Path_7286" data-name="Path 7286" d="M19,7a1.739,1.739,0,0,0-.6-1.35.35.35,0,0,0-.05-.1A1.808,1.808,0,0,0,17,5H7a2.038,2.038,0,0,0-1.45.6A2.007,2.007,0,0,0,5,7V17a1.859,1.859,0,0,0,.55,1.4l.05.05h0A1.992,1.992,0,0,0,7,19H17a1.76,1.76,0,0,0,1.35-.6A1.815,1.815,0,0,0,19,17V7m-6.45-.5h3.9L6.5,16.45v-3.7L12.55,6.5M17.5,7.55v3.7L11.45,17.5H7.55L17.5,7.55M6.6,6.65A.747.747,0,0,1,7,6.5h3.45L6.5,10.55V7a.6.6,0,0,1,.1-.35M17,17.5H13.6l3.9-4.05V17a.461.461,0,0,1-.2.35A.339.339,0,0,1,17,17.5Z" transform="translate(0 0)" fill="#021d3d"/>
</svg>
